g Mesh1
# Vertex Positions: 10
v 22.69 -2 1
v 15.69 -2 1
v 10 -0.1033335 1
v 10 0 1
v 27.69 0 1
v 10 -0.1033335 -1
v 10 0 -1
v 15.69 -2 -1
v 22.69 -2 -1
v 27.69 0 -1
# Vertex UVs: 30
vt 1 -0.4999999
vt -0.75 -0.4999999
vt -2.1725 -0.02583331
vt -2.1725 5.960464E-08
vt 2.25 4.470348E-08
vt 0.2499998 -0.02583337
vt -0.2500003 -0.02583337
vt -0.2500003 0
vt 0.2499998 0
vt 2.1725 -0.02583341
vt 0.7500001 -0.5000001
vt -1 -0.5000001
vt -2.25 -5.960464E-08
vt 2.1725 -4.470348E-08
vt -1 0.2500001
vt 0.75 0.2500001
vt 0.75 -0.25
vt -1 -0.25
vt -2.25 -0.25
vt -2.25 0.25
vt 2.1725 0.25
vt 2.1725 -0.25
vt -0.2499997 0.7427817
vt -0.2499997 2.089073
vt 0.2500003 2.089073
vt 0.2500003 0.7427817
vt -0.2499999 0.5533986
vt -0.2500001 2.052845
vt 0.2499999 2.052845
vt 0.2500001 0.5533986
# Vertex Normals: 7
vn 0 0 1
vn -1 0 0
vn 0 0 -1
vn 0 -1 0
vn 0 1 0
vn 0.3713907 -0.9284767 0
vn -0.3162278 -0.9486833 0
# Faces: 7
f 5/5/1 4/4/1 3/3/1 2/2/1 1/1/1 
f 4/9/2 7/8/2 6/7/2 3/6/2 
f 7/14/3 10/13/3 9/12/3 8/11/3 6/10/3 
f 1/18/4 2/17/4 8/16/4 9/15/4 
f 7/22/5 4/21/5 5/20/5 10/19/5 
f 9/26/6 10/25/6 5/24/6 1/23/6 
f 2/30/7 3/29/7 6/28/7 8/27/7 


