mtllib EffCommonLandingSmokeS.mtl

v -0.386905 0.054949 -1.443948
v -0.560490 2.477145 -3.517602
v -1.289682 4.110085 -4.813161
v -0.258660 0.176435 -1.623342
v -0.215086 3.123756 -4.117507
v -0.094307 0.341437 -1.805363
v 0.187063 2.415665 -3.503939
v 0.096407 0.341437 -1.805833
v 0.524293 2.247112 -3.321935
v 0.256345 0.176435 -1.624213
v 1.285480 4.110085 -4.812047
v 0.385644 0.054949 -1.443613
v 1.375378 2.789696 -3.577721
v 0.648721 0.341437 -1.687494
v 1.773970 2.866145 -3.474239
v 0.747699 0.176435 -1.464336
v 1.825283 2.395713 -2.977268
v 0.983733 0.341436 -1.517662
v 2.216094 2.433625 -2.739395
v 1.033686 0.176435 -1.277779
v 3.524616 4.110085 -3.519280
v 1.057385 0.054949 -1.055783
v 2.714664 2.394945 -2.195850
v 1.278437 0.176435 -1.034108
v 3.022418 2.527455 -1.966978
v 1.377905 0.176435 -0.896734
v 3.816641 3.308757 -1.945494
v 1.610645 0.341435 -0.821010
v 3.171083 2.285584 -1.213879
v 1.688705 0.341436 -0.646429
v 4.813161 4.110083 -1.289683
v 1.443948 0.054949 -0.386905
v -1.289682 4.110085 -4.813161
v -0.646430 0.341437 -1.688705
v -0.386905 0.054949 -1.443948
v -1.212915 2.282484 -3.168564
v -0.746371 0.176435 -1.464220
v -1.970282 3.371572 -3.865273
v -0.986407 0.341436 -1.515695
v -2.117648 2.845231 -3.253939
v -1.034109 0.176435 -1.278436
v -1.994775 2.027205 -2.466082
v -1.055783 0.054949 -1.057385
v -3.519279 4.110085 -3.524616
v -1.405556 0.341436 -1.137052
v -2.692451 2.364136 -2.178113
v -1.379694 0.176435 -0.894303
v -3.535447 3.225321 -2.291637
v -1.464336 0.176435 -0.747699
v -3.129267 2.420595 -1.597824
v -1.687495 0.341436 -0.648720
v -3.145718 2.257116 -1.209303
v -1.443613 0.054949 -0.385643
v -4.812047 4.110083 -1.285480
v -1.624212 0.176434 -0.256345
v -3.269463 2.186016 -0.516012
v -1.641667 0.176435 -0.087643
v -3.692497 2.632887 -0.197129
v -1.805363 0.341435 0.094306
v -3.066073 1.912147 0.160163
v -1.785677 0.341435 0.284527
v -3.237217 2.150484 0.515814
v -1.443948 0.054948 0.386905
v -4.813161 4.110081 1.289684
v -1.688704 0.341435 0.646431
v -3.215431 2.340215 1.230855
v -1.464219 0.176434 0.746372
v -2.938556 2.179797 1.507877
v -1.515694 0.341435 0.986408
v -3.263926 2.858935 2.124149
v -1.278437 0.176434 1.034108
v -2.528694 2.119825 2.045422
v -1.057384 0.054948 1.055784
v -3.524616 4.110080 3.519281
v -1.137052 0.341435 1.405557
v -1.958633 1.962566 2.421142
v -0.894302 0.176434 1.379695
v -2.137499 2.917883 3.316882
v -0.747699 0.176434 1.464336
v -1.861446 3.087409 3.645562
v -0.648720 0.341435 1.687494
v -1.279504 2.486423 3.332219
v -0.385643 0.054947 1.443613
v -1.285480 4.110078 4.812047
v -0.256345 0.176433 1.624212
v -0.554838 2.423202 3.472089
v -0.087642 0.176433 1.641666
v -0.211363 3.136007 4.129657
v 0.094307 0.341434 1.805363
v 0.173657 2.209810 3.324389
v 0.284528 0.341434 1.785676
v 0.522307 2.197953 3.277966
v 0.386905 0.054947 1.443948
v 1.289683 4.110078 4.813161
v 0.646430 0.341434 1.688705
v 1.243781 2.381814 3.249196
v 0.746371 0.176433 1.464223
v 1.363053 1.832886 2.674016
v 0.986409 0.341435 1.515694
v 1.899961 2.386115 2.919446
v 1.034110 0.176434 1.278437
v 2.036669 2.085041 2.496798
v 1.055784 0.054948 1.057384
v 3.519280 4.110080 3.524617
v 1.405556 0.341435 1.137055
v 2.729119 2.429831 2.223492
v 1.379695 0.176434 0.894302
v 3.368158 2.996003 2.183201
v 1.610769 0.341435 0.822468
v 3.077187 2.353332 1.571232
v 1.534085 0.176434 0.589746
v 3.430918 2.608713 1.318941
v 1.443613 0.054948 0.385643
v 4.812047 4.110081 1.285480
v 1.786633 0.341435 0.281980
v 3.176668 2.077960 0.501365
v 1.641668 0.176434 0.087642
v 4.318219 3.353740 0.230534
v 1.641239 0.176434 -0.085734
v 3.627710 2.559340 -0.189501
v 1.785676 0.341435 -0.284527
v 3.370260 2.305484 -0.537013

vt 4.009033 1.000000
vt 3.892090 0.000000
vt 4.009033 0.000000
vt 3.892090 1.000000
vt 3.775146 0.000000
vt 3.775146 1.000000
vt 3.658203 0.000000
vt 3.658203 1.000000
vt 3.541016 0.000000
vt 3.541016 1.000000
vt 3.424072 0.000000
vt 3.424072 1.000000
vt 3.307129 0.000000
vt 3.307129 1.000000
vt 3.190186 0.000000
vt 3.190186 1.000000
vt 3.073242 0.000000
vt 3.073242 1.000000
vt 2.956299 0.000000
vt 2.956299 1.000000
vt 2.839355 0.000000
vt 2.839355 1.000000
vt 2.722412 0.000000
vt 2.722412 1.000000
vt 2.605469 0.000000
vt 2.605469 1.000000
vt 2.488525 0.000000
vt 2.488525 1.000000
vt 2.371582 0.000000
vt 2.371582 1.000000
vt 2.254395 0.000000
vt 2.254395 1.000000
vt -3.009033 0.000000
vt -2.892090 1.000000
vt -3.009033 1.000000
vt -2.892090 0.000000
vt -2.775146 1.000000
vt -2.775146 0.000000
vt -2.658203 1.000000
vt -2.658203 0.000000
vt -2.541016 1.000000
vt -2.541016 0.000000
vt -2.424072 1.000000
vt -2.424072 0.000000
vt -2.307129 1.000000
vt -2.307129 0.000000
vt -2.190186 1.000000
vt -2.190186 0.000000
vt -2.073242 1.000000
vt -2.073242 0.000000
vt -1.956299 1.000000
vt -1.956299 0.000000
vt -1.839355 1.000000
vt -1.839355 0.000000
vt -1.722412 1.000000
vt -1.722412 0.000000
vt -1.605469 1.000000
vt -1.605469 0.000000
vt -1.488525 1.000000
vt -1.488525 0.000000
vt -1.371582 1.000000
vt -1.371582 0.000000
vt -1.254395 1.000000
vt -1.254395 0.000000
vt -1.137451 1.000000
vt -1.137451 0.000000
vt -1.020508 1.000000
vt -1.020508 0.000000
vt -0.903564 1.000000
vt -0.903564 0.000000
vt -0.786621 1.000000
vt -0.786621 0.000000
vt -0.669678 1.000000
vt -0.669678 0.000000
vt -0.552734 1.000000
vt -0.552734 0.000000
vt -0.435791 1.000000
vt -0.435791 0.000000
vt -0.318848 1.000000
vt -0.318848 0.000000
vt -0.201904 1.000000
vt -0.201904 0.000000
vt -0.084717 1.000000
vt -0.084717 0.000000
vt 0.032227 1.000000
vt 0.032227 0.000000
vt 0.149170 1.000000
vt 0.149170 0.000000
vt 0.266113 1.000000
vt 0.266113 0.000000
vt 0.383057 1.000000
vt 0.383057 0.000000
vt 0.500000 1.000000
vt 0.500000 0.000000
vt 0.616943 1.000000
vt 0.616943 0.000000
vt 0.733887 1.000000
vt 0.733887 0.000000
vt 0.850830 1.000000
vt 0.850830 0.000000
vt 0.967773 1.000000
vt 0.967773 0.000000
vt 1.084717 1.000000
vt 1.084717 0.000000
vt 1.201904 1.000000
vt 1.201904 0.000000
vt 1.318848 1.000000
vt 1.318848 0.000000
vt 1.435791 1.000000
vt 1.435791 0.000000
vt 1.552734 1.000000
vt 1.552734 0.000000
vt 1.669678 1.000000
vt 1.669678 0.000000
vt 1.786621 1.000000
vt 1.786621 0.000000
vt 1.903564 1.000000
vt 1.903564 0.000000
vt 2.020508 1.000000
vt 2.020508 0.000000
vt 2.137451 1.000000
vt 2.137451 0.000000

vn 0.032479 0.977145 0.210080
vn 0.046295 0.977315 0.206670
vn 0.046295 0.977315 0.206670
vn 0.054304 0.975972 0.211022
vn 0.018113 0.976412 0.215153
vn 0.006380 0.976153 0.216990
vn -0.016304 0.975779 0.218151
vn -0.027194 0.975827 0.216844
vn -0.027194 0.975827 0.216844
vn -0.049376 0.976982 0.207530
vn -0.059474 0.977463 0.202557
vn -0.059474 0.977463 0.202557
vn -0.059474 0.977463 0.202557
vn -0.069776 0.976347 0.204642
vn -0.101870 0.976408 0.190392
vn -0.101870 0.976408 0.190392
vn -0.114051 0.975941 0.185827
vn -0.123064 0.975986 0.179739
vn -0.130436 0.976019 0.174278
vn -0.146797 0.977020 0.154541
vn -0.152991 0.977449 0.145560
vn -0.160882 0.977251 0.138190
vn -0.160882 0.977251 0.138190
vn -0.161775 0.976320 0.143628
vn -0.177002 0.976396 0.123776
vn -0.177002 0.976396 0.123776
vn -0.189535 0.976532 0.102281
vn -0.196742 0.976211 0.091133
vn -0.196742 0.976211 0.091133
vn -0.205038 0.976781 0.062118
vn -0.206791 0.977307 0.045917
vn -0.210159 0.977028 0.035348
vn 0.046295 0.977315 0.206670
vn 0.067259 0.976872 0.202973
vn 0.032479 0.977145 0.210080
vn 0.091782 0.976658 0.194202
vn 0.083371 0.976427 0.199098
vn 0.091782 0.976658 0.194202
vn 0.114736 0.976508 0.182396
vn 0.130897 0.977038 0.168117
vn 0.158673 0.975394 0.153065
vn 0.143014 0.977264 0.156531
vn 0.130897 0.977038 0.168117
vn 0.143014 0.977264 0.156531
vn 0.158923 0.976889 0.142938
vn 0.176888 0.976477 0.123299
vn 0.176888 0.976477 0.123299
vn 0.180143 0.976794 0.115853
vn 0.189523 0.976480 0.102795
vn 0.195335 0.976063 0.095635
vn 0.207682 0.975812 0.068262
vn 0.202445 0.977439 0.060240
vn 0.201599 0.977096 0.068123
vn 0.202445 0.977439 0.060240
vn 0.208477 0.977048 0.043765
vn 0.216114 0.976126 0.021761
vn 0.214524 0.976287 0.029050
vn 0.216757 0.976144 0.012653
vn 0.219723 0.975538 -0.006807
vn 0.222332 0.974741 -0.021199
vn 0.216552 0.974924 -0.051274
vn 0.206966 0.977294 -0.045404
vn 0.210602 0.976990 -0.033724
vn 0.206966 0.977294 -0.045404
vn 0.203017 0.976891 -0.066848
vn 0.194639 0.975384 -0.103638
vn 0.196350 0.975742 -0.096823
vn 0.198628 0.975875 -0.090633
vn 0.188760 0.976178 -0.106990
vn 0.177461 0.976188 -0.124760
vn 0.153744 0.975528 -0.157189
vn 0.155355 0.977281 -0.144173
vn 0.167420 0.977068 -0.131562
vn 0.155355 0.977281 -0.144173
vn 0.141238 0.976726 -0.161423
vn 0.121089 0.975229 -0.185110
vn 0.120761 0.976711 -0.177346
vn 0.120761 0.976711 -0.177346
vn 0.109640 0.976696 -0.184511
vn 0.098035 0.976537 -0.191741
vn 0.066129 0.977128 -0.202106
vn 0.060616 0.977452 -0.202271
vn 0.066129 0.977128 -0.202106
vn 0.060616 0.977452 -0.202271
vn 0.045301 0.977117 -0.207822
vn 0.029836 0.976557 -0.213183
vn 0.029836 0.976557 -0.213183
vn 0.013041 0.976521 -0.215029
vn -0.007694 0.976004 -0.217614
vn -0.024828 0.975195 -0.219949
vn -0.053178 0.975114 -0.215232
vn -0.045377 0.977295 -0.206966
vn -0.034238 0.976998 -0.210481
vn -0.045377 0.977295 -0.206966
vn -0.066568 0.976909 -0.203020
vn -0.107888 0.975681 -0.190806
vn -0.107888 0.975681 -0.190806
vn -0.094749 0.975394 -0.199072
vn -0.107888 0.975681 -0.190806
vn -0.124163 0.975803 -0.179978
vn -0.155091 0.975471 -0.156212
vn -0.142769 0.977265 -0.156748
vn -0.131235 0.977061 -0.167717
vn -0.142769 0.977265 -0.156748
vn -0.158416 0.976914 -0.143330
vn -0.178723 0.976469 -0.120692
vn -0.174419 0.976322 -0.127960
vn -0.178723 0.976469 -0.120692
vn -0.193602 0.976122 -0.098505
vn -0.200583 0.975816 -0.086885
vn -0.208296 0.975996 -0.063602
vn -0.201229 0.977080 -0.069431
vn -0.198608 0.977157 -0.075625
vn -0.202341 0.977308 -0.062662
vn -0.209814 0.976796 -0.042996
vn -0.218910 0.975598 -0.016944
vn -0.214588 0.976471 -0.021350
vn -0.213601 0.976854 -0.011474
vn -0.215198 0.976556 0.005390
vn -0.216489 0.976176 0.014614
vn -0.213647 0.975918 0.044023
vn -0.206791 0.977307 0.045917

g polygon0
s 1
usemtl mat2
f 1/1/1 2/2/2 3/3/3
f 1/1/1 4/4/4 2/2/2
f 4/4/4 5/5/5 2/2/2
f 4/4/4 6/6/6 5/5/5
f 6/6/6 7/7/7 5/5/5
f 6/6/6 8/8/8 7/7/7
f 8/8/8 9/9/9 7/7/7
f 8/8/8 10/10/10 9/9/9
f 10/10/10 11/11/11 9/9/9
f 10/10/10 12/12/12 11/11/11
f 12/12/12 13/13/13 11/11/11
f 12/12/12 14/14/14 13/13/13
f 14/14/14 15/15/15 13/13/13
f 14/14/14 16/16/16 15/15/15
f 16/16/16 17/17/17 15/15/15
f 16/16/16 18/18/18 17/17/17
f 18/18/18 19/19/19 17/17/17
f 18/18/18 20/20/20 19/19/19
f 20/20/20 21/21/21 19/19/19
f 20/20/20 22/22/22 21/21/21
f 22/22/22 23/23/23 21/21/21
f 22/22/22 24/24/24 23/23/23
f 24/24/24 25/25/25 23/23/23
f 24/24/24 26/26/26 25/25/25
f 26/26/26 27/27/27 25/25/25
f 26/26/26 28/28/28 27/27/27
f 28/28/28 29/29/29 27/27/27
f 28/28/28 30/30/30 29/29/29
f 30/30/30 31/31/31 29/29/29
f 30/30/30 32/32/32 31/31/31
f 33/33/33 34/34/34 35/35/35
f 33/33/33 36/36/36 34/34/34
f 36/36/36 37/37/37 34/34/34
f 36/36/36 38/38/38 37/37/37
f 38/38/38 39/39/39 37/37/37
f 38/38/38 40/40/40 39/39/39
f 40/40/40 41/41/41 39/39/39
f 40/40/40 42/42/42 41/41/41
f 42/42/42 43/43/43 41/41/41
f 42/42/42 44/44/44 43/43/43
f 44/44/44 45/45/45 43/43/43
f 44/44/44 46/46/46 45/45/45
f 46/46/46 47/47/47 45/45/45
f 46/46/46 48/48/48 47/47/47
f 48/48/48 49/49/49 47/47/47
f 48/48/48 50/50/50 49/49/49
f 50/50/50 51/51/51 49/49/49
f 50/50/50 52/52/52 51/51/51
f 52/52/52 53/53/53 51/51/51
f 52/52/52 54/54/54 53/53/53
f 54/54/54 55/55/55 53/53/53
f 54/54/54 56/56/56 55/55/55
f 56/56/56 57/57/57 55/55/55
f 56/56/56 58/58/58 57/57/57
f 58/58/58 59/59/59 57/57/57
f 58/58/58 60/60/60 59/59/59
f 60/60/60 61/61/61 59/59/59
f 60/60/60 62/62/62 61/61/61
f 62/62/62 63/63/63 61/61/61
f 62/62/62 64/64/64 63/63/63
f 64/64/64 65/65/65 63/63/63
f 64/64/64 66/66/66 65/65/65
f 66/66/66 67/67/67 65/65/65
f 66/66/66 68/68/68 67/67/67
f 68/68/68 69/69/69 67/67/67
f 68/68/68 70/70/70 69/69/69
f 70/70/70 71/71/71 69/69/69
f 70/70/70 72/72/72 71/71/71
f 72/72/72 73/73/73 71/71/71
f 72/72/72 74/74/74 73/73/73
f 74/74/74 75/75/75 73/73/73
f 74/74/74 76/76/76 75/75/75
f 76/76/76 77/77/77 75/75/75
f 76/76/76 78/78/78 77/77/77
f 78/78/78 79/79/79 77/77/77
f 78/78/78 80/80/80 79/79/79
f 80/80/80 81/81/81 79/79/79
f 80/80/80 82/82/82 81/81/81
f 82/82/82 83/83/83 81/81/81
f 82/82/82 84/84/84 83/83/83
f 84/84/84 85/85/85 83/83/83
f 84/84/84 86/86/86 85/85/85
f 86/86/86 87/87/87 85/85/85
f 86/86/86 88/88/88 87/87/87
f 88/88/88 89/89/89 87/87/87
f 88/88/88 90/90/90 89/89/89
f 90/90/90 91/91/91 89/89/89
f 90/90/90 92/92/92 91/91/91
f 92/92/92 93/93/93 91/91/91
f 92/92/92 94/94/94 93/93/93
f 94/94/94 95/95/95 93/93/93
f 94/94/94 96/96/96 95/95/95
f 96/96/96 97/97/97 95/95/95
f 96/96/96 98/98/98 97/97/97
f 98/98/98 99/99/99 97/97/97
f 98/98/98 100/100/100 99/99/99
f 100/100/100 101/101/101 99/99/99
f 100/100/100 102/102/102 101/101/101
f 102/102/102 103/103/103 101/101/101
f 102/102/102 104/104/104 103/103/103
f 104/104/104 105/105/105 103/103/103
f 104/104/104 106/106/106 105/105/105
f 106/106/106 107/107/107 105/105/105
f 106/106/106 108/108/108 107/107/107
f 108/108/108 109/109/109 107/107/107
f 108/108/108 110/110/110 109/109/109
f 110/110/110 111/111/111 109/109/109
f 110/110/110 112/112/112 111/111/111
f 112/112/112 113/113/113 111/111/111
f 112/112/112 114/114/114 113/113/113
f 114/114/114 115/115/115 113/113/113
f 114/114/114 116/116/116 115/115/115
f 116/116/116 117/117/117 115/115/115
f 116/116/116 118/118/118 117/117/117
f 118/118/118 119/119/119 117/117/117
f 118/118/118 120/120/120 119/119/119
f 120/120/120 121/121/121 119/119/119
f 120/120/120 122/122/122 121/121/121
f 122/122/122 32/32/32 121/121/121
f 122/122/122 31/31/31 32/32/32

v 2.254688 0.050684 0.448535
v 9.057129 0.060059 0.000000
v 2.298926 0.050684 0.000000
v 8.883106 0.060059 1.766895
v 2.124023 0.050684 0.879785
v 8.367774 0.060059 3.466113
v 1.911621 0.050684 1.277344
v 7.530762 0.060059 5.031738
v 1.625684 0.050684 1.625684
v 6.404297 0.060059 6.404297
v 1.277344 0.050684 1.911621
v 5.031738 0.060059 7.530762
v 0.879785 0.050684 2.124023
v 3.466113 0.060059 8.367774
v 0.448535 0.050684 2.254688
v 1.766895 0.060059 8.883106
v 0.000000 0.050684 2.298926
v 0.000000 0.060059 9.057129
v -0.448535 0.050684 2.254688
v -1.766895 0.060059 8.883106
v -0.879785 0.050684 2.124023
v -3.466113 0.060059 8.367774
v -1.277344 0.050684 1.911621
v -5.031738 0.060059 7.530762
v -1.625684 0.050684 1.625684
v -6.404297 0.060059 6.404297
v -1.911621 0.050684 1.277344
v -7.530762 0.060059 5.031738
v -2.124023 0.050684 0.879785
v -8.367774 0.060059 3.466113
v -2.254688 0.050684 0.448535
v -8.883106 0.060059 1.766895
v -2.298926 0.050684 0.000000
v -9.057129 0.060059 0.000000
v -2.254688 0.050684 -0.448535
v -8.883106 0.060059 -1.766895
v -2.124023 0.050684 -0.879785
v -8.367774 0.060059 -3.466113
v -1.911621 0.050684 -1.277344
v -7.530762 0.060059 -5.031738
v -1.625684 0.050684 -1.625684
v -6.404297 0.060059 -6.404297
v -1.277344 0.050684 -1.911621
v -5.031738 0.060059 -7.530762
v -0.879785 0.050684 -2.124023
v -3.466113 0.060059 -8.367774
v -0.448535 0.050684 -2.254688
v -1.766895 0.060059 -8.883106
v 0.000000 0.050684 -2.298926
v 0.000000 0.060059 -9.057129
v 0.448535 0.050684 -2.254688
v 1.766895 0.060059 -8.883106
v 0.879785 0.050684 -2.124023
v 3.466113 0.060059 -8.367774
v 1.277344 0.050684 -1.911621
v 5.031738 0.060059 -7.530762
v 1.625684 0.050684 -1.625684
v 6.404297 0.060059 -6.404297
v 1.911621 0.050684 -1.277344
v 7.530762 0.060059 -5.031738
v 2.124023 0.050684 -0.879785
v 8.367774 0.060059 -3.466113
v 2.254688 0.050684 -0.448535
v 8.883106 0.060059 -1.766895
v 2.298926 0.050684 0.000000
v 9.057129 0.060059 0.000000

vt 0.968750 1.000000
vt 1.000000 0.000000
vt 1.000000 1.000000
vt 0.968750 0.000000
vt 0.937500 1.000000
vt 0.937500 0.000000
vt 0.906250 1.000000
vt 0.906250 0.000000
vt 0.875000 1.000000
vt 0.875000 0.000000
vt 0.843750 1.000000
vt 0.843750 0.000000
vt 0.812500 1.000000
vt 0.812500 0.000000
vt 0.781250 1.000000
vt 0.781250 0.000000
vt 0.750000 1.000000
vt 0.750000 0.000000
vt 0.718750 1.000000
vt 0.718750 0.000000
vt 0.687500 1.000000
vt 0.687500 0.000000
vt 0.656250 1.000000
vt 0.656250 0.000000
vt 0.625000 1.000000
vt 0.625000 0.000000
vt 0.593750 1.000000
vt 0.593750 0.000000
vt 0.562500 1.000000
vt 0.562500 0.000000
vt 0.531250 1.000000
vt 0.531250 0.000000
vt 0.500000 1.000000
vt 0.500000 0.000000
vt 0.468750 1.000000
vt 0.468750 0.000000
vt 0.437500 1.000000
vt 0.437500 0.000000
vt 0.406250 1.000000
vt 0.406250 0.000000
vt 0.375000 1.000000
vt 0.375000 0.000000
vt 0.343750 1.000000
vt 0.343750 0.000000
vt 0.312500 1.000000
vt 0.312500 0.000000
vt 0.281250 1.000000
vt 0.281250 0.000000
vt 0.250000 1.000000
vt 0.250000 0.000000
vt 0.218750 1.000000
vt 0.218750 0.000000
vt 0.187500 1.000000
vt 0.187500 0.000000
vt 0.156250 1.000000
vt 0.156250 0.000000
vt 0.125000 1.000000
vt 0.125000 0.000000
vt 0.093750 1.000000
vt 0.093750 0.000000
vt 0.062500 1.000000
vt 0.062500 0.000000
vt 0.031250 1.000000
vt 0.031250 0.000000
vt 0.000000 1.000000
vt 0.000000 0.000000

vn -0.001343 0.999999 0.000244
vn -0.001343 0.999999 0.000244
vn -0.001343 0.999999 0.000244
vn -0.001343 0.999999 0.000244
vn -0.001343 0.999999 0.000244
vn -0.001343 0.999999 0.000244
vn -0.001343 0.999999 0.000244
vn -0.001343 0.999999 0.000244
vn -0.001343 0.999999 0.000244
vn -0.001343 0.999999 0.000244
vn -0.001343 0.999999 0.000244
vn -0.001343 0.999999 0.000244
vn -0.001343 0.999999 0.000244
vn -0.001343 0.999999 0.000244
vn -0.001343 0.999999 0.000244
vn -0.001343 0.999999 0.000244
vn -0.001343 0.999999 0.000244
vn -0.001343 0.999999 0.000244
vn -0.001343 0.999999 0.000244
vn -0.001343 0.999999 0.000244
vn -0.001343 0.999999 0.000244
vn -0.001343 0.999999 0.000244
vn -0.001343 0.999999 0.000244
vn -0.001343 0.999999 0.000244
vn -0.001343 0.999999 0.000244
vn -0.001343 0.999999 0.000244
vn -0.001343 0.999999 0.000244
vn -0.001343 0.999999 0.000244
vn -0.001343 0.999999 0.000244
vn -0.001343 0.999999 0.000244
vn -0.001343 0.999999 0.000244
vn -0.001343 0.999999 0.000244
vn -0.001343 0.999999 0.000244
vn -0.001343 0.999999 0.000244
vn -0.001343 0.999999 0.000244
vn -0.001343 0.999999 0.000244
vn -0.001343 0.999999 0.000244
vn -0.001343 0.999999 0.000244
vn -0.001343 0.999999 0.000244
vn -0.001343 0.999999 0.000244
vn -0.001343 0.999999 0.000244
vn -0.001343 0.999999 0.000244
vn -0.001343 0.999999 0.000244
vn -0.001343 0.999999 0.000244
vn -0.001343 0.999999 0.000244
vn -0.001343 0.999999 0.000244
vn -0.001343 0.999999 0.000244
vn -0.001343 0.999999 0.000244
vn -0.001343 0.999999 0.000244
vn -0.001343 0.999999 0.000244
vn -0.001343 0.999999 0.000244
vn -0.001343 0.999999 0.000244
vn -0.001343 0.999999 0.000244
vn -0.001343 0.999999 0.000244
vn -0.001343 0.999999 0.000244
vn -0.001343 0.999999 0.000244
vn -0.001343 0.999999 0.000244
vn -0.001343 0.999999 0.000244
vn -0.001343 0.999999 0.000244
vn -0.001343 0.999999 0.000244
vn -0.001343 0.999999 0.000244
vn -0.001343 0.999999 0.000244
vn -0.001343 0.999999 0.000244
vn -0.001343 0.999999 0.000244
vn -0.001343 0.999999 0.000244
vn -0.001343 0.999999 0.000244

g polygon1
s 1
usemtl mat1
f 123/123/123 124/124/124 125/125/125
f 123/123/123 126/126/126 124/124/124
f 127/127/127 126/126/126 123/123/123
f 127/127/127 128/128/128 126/126/126
f 129/129/129 128/128/128 127/127/127
f 129/129/129 130/130/130 128/128/128
f 131/131/131 130/130/130 129/129/129
f 131/131/131 132/132/132 130/130/130
f 133/133/133 132/132/132 131/131/131
f 133/133/133 134/134/134 132/132/132
f 135/135/135 134/134/134 133/133/133
f 135/135/135 136/136/136 134/134/134
f 137/137/137 136/136/136 135/135/135
f 137/137/137 138/138/138 136/136/136
f 139/139/139 138/138/138 137/137/137
f 139/139/139 140/140/140 138/138/138
f 141/141/141 140/140/140 139/139/139
f 141/141/141 142/142/142 140/140/140
f 143/143/143 142/142/142 141/141/141
f 143/143/143 144/144/144 142/142/142
f 145/145/145 144/144/144 143/143/143
f 145/145/145 146/146/146 144/144/144
f 147/147/147 146/146/146 145/145/145
f 147/147/147 148/148/148 146/146/146
f 149/149/149 148/148/148 147/147/147
f 149/149/149 150/150/150 148/148/148
f 151/151/151 150/150/150 149/149/149
f 151/151/151 152/152/152 150/150/150
f 153/153/153 152/152/152 151/151/151
f 153/153/153 154/154/154 152/152/152
f 155/155/155 154/154/154 153/153/153
f 155/155/155 156/156/156 154/154/154
f 157/157/157 156/156/156 155/155/155
f 157/157/157 158/158/158 156/156/156
f 159/159/159 158/158/158 157/157/157
f 159/159/159 160/160/160 158/158/158
f 161/161/161 160/160/160 159/159/159
f 161/161/161 162/162/162 160/160/160
f 163/163/163 162/162/162 161/161/161
f 163/163/163 164/164/164 162/162/162
f 165/165/165 164/164/164 163/163/163
f 165/165/165 166/166/166 164/164/164
f 167/167/167 166/166/166 165/165/165
f 167/167/167 168/168/168 166/166/166
f 169/169/169 168/168/168 167/167/167
f 169/169/169 170/170/170 168/168/168
f 171/171/171 170/170/170 169/169/169
f 171/171/171 172/172/172 170/170/170
f 173/173/173 172/172/172 171/171/171
f 173/173/173 174/174/174 172/172/172
f 175/175/175 174/174/174 173/173/173
f 175/175/175 176/176/176 174/174/174
f 177/177/177 176/176/176 175/175/175
f 177/177/177 178/178/178 176/176/176
f 179/179/179 178/178/178 177/177/177
f 179/179/179 180/180/180 178/178/178
f 181/181/181 180/180/180 179/179/179
f 181/181/181 182/182/182 180/180/180
f 183/183/183 182/182/182 181/181/181
f 183/183/183 184/184/184 182/182/182
f 185/185/185 184/184/184 183/183/183
f 185/185/185 186/186/186 184/184/184
f 187/187/187 186/186/186 185/185/185
f 187/187/187 188/188/188 186/186/186

