mtllib EffCommonHorizontalSmokeB.mtl

v -2.249512 1.783202 10.002441
v -6.836914 10.619629 6.442874
v -1.705078 0.869139 11.296875
v -5.603516 8.147461 6.774904
v -1.686523 0.612304 9.877441
v -7.049805 10.642579 3.770999
v -2.162598 1.396972 8.649414
v -5.554688 7.711426 4.595705
v -1.708984 0.449706 8.526855
v -7.411621 10.679689 -0.790036
v -2.294434 1.407715 6.968750
v -4.685547 5.566407 2.215822
v -5.606934 6.806154 -1.959959
v 2.249512 1.783202 10.002441
v 5.961914 9.010254 7.612307
v 1.705078 0.869139 11.296875
v 5.056152 7.086425 7.155764
v 1.686523 0.612304 9.877441
v 6.971680 10.624023 4.681643
v 2.162598 1.396972 8.649414
v 4.807617 6.304199 5.382326
v 1.708984 0.449706 8.526855
v 6.876953 9.875489 1.087893
v 2.294434 1.407715 6.968750
v 4.192871 4.751465 3.470216
v 5.150879 6.056643 -0.773924
v -1.850098 0.472168 6.801758
v -2.324707 1.223633 5.380372
v -3.065430 2.322267 2.678223
v -1.966797 0.469238 5.233398
v 1.850098 0.472168 6.801758
v 2.324707 1.223633 5.380372
v 3.498047 3.071779 1.798341
v 1.966797 0.469238 5.233398
v -3.016113 1.796877 -0.073730
v 3.310059 2.136233 -1.772949

vt -0.750000 0.000000
vt -1.000000 1.000000
vt -1.000000 0.000000
vt -0.750000 1.000000
vt -0.500000 0.000000
vt -0.500000 1.000000
vt -0.250000 0.000000
vt -0.250000 1.000000
vt 0.000000 0.000000
vt 0.000000 1.000000
vt 0.250000 0.000000
vt 0.250000 1.000000
vt 0.500000 1.000000
vt -0.750000 0.000000
vt -1.000000 1.000000
vt -1.000000 0.000000
vt -0.750000 1.000000
vt -0.500000 0.000000
vt -0.500000 1.000000
vt -0.250000 0.000000
vt -0.250000 1.000000
vt 0.000000 0.000000
vt 0.000000 1.000000
vt 0.250000 0.000000
vt 0.250000 1.000000
vt 0.500000 1.000000
vt 0.500000 0.000000
vt 0.750000 0.000000
vt 0.750000 1.000000
vt 1.000000 0.000000
vt 0.500000 0.000000
vt 0.750000 0.000000
vt 0.750000 1.000000
vt 1.000000 0.000000
vt 1.000000 1.000000
vt 1.000000 1.000000

vn 0.895779 0.440032 -0.062862
vn 0.895779 0.440032 -0.062862
vn 0.895779 0.440032 -0.062862
vn 0.895779 0.440032 -0.062862
vn 0.895779 0.440032 -0.062862
vn 0.895779 0.440032 -0.062862
vn 0.895779 0.440032 -0.062862
vn 0.895779 0.440032 -0.062862
vn 0.895779 0.440032 -0.062862
vn 0.895779 0.440032 -0.062862
vn 0.895779 0.440032 -0.062862
vn 0.895779 0.440032 -0.062862
vn 0.895779 0.440032 -0.062862
vn 0.895779 -0.440032 0.062862
vn 0.895779 -0.440032 0.062862
vn 0.895779 -0.440032 0.062862
vn 0.895779 -0.440032 0.062862
vn 0.895779 -0.440032 0.062862
vn 0.895779 -0.440032 0.062862
vn 0.895779 -0.440032 0.062862
vn 0.895779 -0.440032 0.062862
vn 0.895779 -0.440032 0.062862
vn 0.895779 -0.440032 0.062862
vn 0.895779 -0.440032 0.062862
vn 0.895779 -0.440032 0.062862
vn 0.895779 -0.440032 0.062862
vn 0.895779 0.440032 -0.062862
vn 0.895779 0.440032 -0.062862
vn 0.895779 0.440032 -0.062862
vn 0.895779 0.440032 -0.062862
vn 0.895779 -0.440032 0.062862
vn 0.895779 -0.440032 0.062862
vn 0.895779 -0.440032 0.062862
vn 0.895779 -0.440032 0.062862
vn 0.895779 0.440032 -0.062862
vn 0.895779 -0.440032 0.062862

g polygon0
s 1
usemtl mat2
f 1/1/1 2/2/2 3/3/3
f 1/1/1 4/4/4 2/2/2
f 5/5/5 4/4/4 1/1/1
f 5/5/5 6/6/6 4/4/4
f 7/7/7 6/6/6 5/5/5
f 7/7/7 8/8/8 6/6/6
f 9/9/9 8/8/8 7/7/7
f 9/9/9 10/10/10 8/8/8
f 11/11/11 10/10/10 9/9/9
f 11/11/11 12/12/12 10/10/10
f 13/13/13 12/12/12 11/11/11
f 14/14/14 15/15/15 16/16/16
f 14/14/14 17/17/17 15/15/15
f 18/18/18 17/17/17 14/14/14
f 18/18/18 19/19/19 17/17/17
f 20/20/20 19/19/19 18/18/18
f 20/20/20 21/21/21 19/19/19
f 22/22/22 21/21/21 20/20/20
f 22/22/22 23/23/23 21/21/21
f 24/24/24 23/23/23 22/22/22
f 24/24/24 25/25/25 23/23/23
f 26/26/26 25/25/25 24/24/24
f 27/27/27 13/13/13 11/11/11
f 27/27/27 28/28/28 13/13/13
f 28/28/28 29/29/29 13/13/13
f 28/28/28 30/30/30 29/29/29
f 31/31/31 26/26/26 24/24/24
f 31/31/31 32/32/32 26/26/26
f 32/32/32 33/33/33 26/26/26
f 32/32/32 34/34/34 33/33/33
f 30/30/30 35/35/35 29/29/29
f 34/34/34 36/36/36 33/33/33

v 2.137207 0.536133 4.937988
v 5.717773 3.051272 -3.595214
v 4.732910 2.187502 -1.706542
v 4.838867 2.349123 -0.707031
v 2.877441 0.991700 3.884278
v 6.484375 3.816897 -3.367187
v 5.122070 2.846193 -0.548827
v -5.073242 2.578127 -1.363281
v -1.865723 0.295410 5.742188
v -6.050781 3.160159 -5.443358
v -2.607422 0.753906 4.736816
v -5.870605 3.195314 -2.305663
v -4.997070 2.619142 -0.186523
v 2.302734 0.633789 3.749024
v 3.088379 1.251956 -4.541015
v 1.547363 0.102539 5.012207
v 3.525391 1.606935 -1.529296
v 4.507324 2.464358 -5.521484
v -3.245605 1.163577 -5.523437
v -2.425781 0.668946 3.393555
v -1.547363 0.102539 5.012207
v -3.646973 1.335940 -2.764648
v -4.631348 2.026858 -3.851074
v -4.100586 1.592287 -0.900878
v -7.873535 6.147463 -3.719725
v -2.318359 0.566406 6.158203
v 7.752930 6.338870 -3.719725
v 2.309570 0.666504 6.158203

vt 0.500000 0.000000
vt 0.503906 1.000000
vt 0.360474 1.000000
vt 0.625366 1.000000
vt 0.750000 0.000000
vt 0.746399 1.000000
vt 0.878601 1.000000
vt 0.377625 1.000000
vt 0.502991 0.000000
vt 0.499084 1.000000
vt 0.252991 0.000000
vt 0.256592 1.000000
vt 0.124390 1.000000
vt 0.250000 0.000000
vt 0.000549 1.000000
vt 0.000000 0.000000
vt 0.138916 1.000000
vt 0.251953 1.000000
vt 1.002380 1.000000
vt 0.752991 0.000000
vt 1.002991 0.000000
vt 0.864075 1.000000
vt 0.751038 1.000000
vt 0.642517 1.000000
vt -0.011719 1.000000
vt 0.002991 0.000000
vt 1.014709 1.000000
vt 1.000000 0.000000

vn -0.601202 0.798775 -0.022705
vn -0.655083 0.753715 -0.052734
vn -0.508732 0.860602 0.023560
vn -0.613391 0.789291 -0.027770
vn -0.829460 0.527766 -0.182920
vn -0.821759 0.533191 -0.201045
vn -0.873855 0.401130 -0.274724
vn 0.606577 0.794874 -0.015503
vn 0.666627 0.742982 -0.059875
vn 0.731588 0.674213 -0.101077
vn 0.785462 0.602906 -0.139832
vn 0.689623 0.720812 -0.069640
vn 0.852922 0.464670 -0.237920
vn -0.523865 0.851135 0.033692
vn -0.599363 0.800473 0.002869
vn -0.566654 0.823919 0.007752
vn -0.654415 0.756038 -0.012146
vn -0.422488 0.903021 0.077821
vn 0.494507 0.869141 0.007569
vn 0.494507 0.869141 0.007569
vn 0.547053 0.837089 -0.003845
vn 0.519583 0.854355 -0.010559
vn 0.510262 0.859999 0.005860
vn 0.646175 0.760127 -0.068298
vn 0.829412 0.529178 -0.179017
vn 0.767947 0.636416 -0.072327
vn -0.846295 0.496266 -0.193660
vn -0.813605 0.568486 -0.121949

g polygon1
s 1
usemtl mat3
f 37/37/37 38/38/38 39/39/39
f 37/37/37 40/40/40 38/38/38
f 41/41/41 40/40/40 37/37/37
f 41/41/41 42/42/42 40/40/40
f 43/43/43 42/42/42 41/41/41
f 44/44/44 45/45/45 46/46/46
f 44/44/44 47/47/47 45/45/45
f 48/48/48 47/47/47 44/44/44
f 48/48/48 49/49/49 47/47/47
f 50/50/50 51/51/51 52/52/52
f 50/50/50 53/53/53 51/51/51
f 54/54/54 53/53/53 50/50/50
f 55/55/55 56/56/56 57/57/57
f 55/55/55 58/58/58 56/56/56
f 59/59/59 56/56/56 58/58/58
f 59/59/59 60/60/60 56/56/56
f 60/60/60 45/45/45 56/56/56
f 60/60/60 46/46/46 45/45/45
f 47/47/47 61/61/61 62/62/62
f 47/47/47 49/49/49 61/61/61
f 50/50/50 39/39/39 54/54/54
f 50/50/50 37/37/37 39/39/39
f 63/63/63 41/41/41 64/64/64
f 63/63/63 43/43/43 41/41/41

v -1.555176 0.546875 7.418457
v -3.538574 5.576172 5.600099
v -1.555176 0.174804 8.934570
v -5.341309 10.154298 1.969729
v -3.416016 5.769044 2.958009
v -1.304688 1.315430 4.356446
v -4.955566 12.113772 -2.153317
v -2.972168 6.604494 0.299318
v -1.004395 1.771974 2.760254
v 2.078125 5.501466 1.927248
v 0.915039 1.771974 2.760254
v 2.472656 7.888674 -0.988279
v 1.233887 1.315430 4.356446
v 1.304688 0.857422 5.912109
v 2.753418 6.869630 3.880373
v 1.414551 0.546875 7.418457
v 1.414551 0.174804 8.934570
v 4.071289 10.279298 2.946780
v -1.448730 0.857422 5.912109
v 4.307129 12.916018 -1.079098

vt 0.250000 0.000000
vt 0.000000 1.000000
vt 0.000000 0.000000
vt 0.250000 1.000000
vt 0.500000 1.000000
vt 0.750000 0.000000
vt 0.750000 1.000000
vt 1.000000 1.000000
vt 1.000000 0.000000
vt 0.750000 1.000000
vt 1.000000 0.000000
vt 1.000000 1.000000
vt 0.750000 0.000000
vt 0.500000 0.000000
vt 0.250000 1.000000
vt 0.250000 0.000000
vt 0.000000 0.000000
vt 0.000000 1.000000
vt 0.500000 0.000000
vt 0.500000 1.000000

vn 0.908496 0.407892 0.090880
vn 0.924296 0.379447 0.041198
vn 0.913404 0.395330 0.096986
vn 0.913435 0.400627 0.071654
vn 0.855896 0.461731 0.232910
vn 0.841670 0.464780 0.274901
vn 0.841670 0.464780 0.274901
vn 0.879319 0.431573 0.201352
vn 0.823714 0.484976 0.293757
vn 0.908950 -0.351263 -0.224552
vn 0.923504 -0.331292 -0.193355
vn 0.936367 -0.322864 -0.137751
vn 0.930005 -0.305912 -0.203738
vn 0.950085 -0.291569 -0.111024
vn 0.950085 -0.291569 -0.111024
vn 0.962319 -0.255609 -0.092771
vn 0.908950 -0.351263 -0.224552
vn 0.847198 -0.417465 -0.328601
vn 0.868254 0.459793 0.186347
vn 0.946216 -0.302364 -0.115111

g polygon2
s 1
usemtl mat1
f 65/65/65 66/66/66 67/67/67
f 65/65/65 68/68/68 66/66/66
f 69/69/69 68/68/68 65/65/65
f 70/70/70 71/71/71 69/69/69
f 70/70/70 72/72/72 71/71/71
f 73/73/73 72/72/72 70/70/70
f 74/74/74 75/75/75 76/76/76
f 74/74/74 77/77/77 75/75/75
f 78/78/78 77/77/77 74/74/74
f 79/79/79 80/80/80 78/78/78
f 79/79/79 81/81/81 80/80/80
f 82/82/82 81/81/81 79/79/79
f 83/83/83 69/69/69 65/65/65
f 83/83/83 70/70/70 69/69/69
f 84/84/84 78/78/78 74/74/74
f 84/84/84 79/79/79 78/78/78

v 1.902441 1.731542 3.137696
v 5.783886 8.837498 7.267287
v 1.442383 0.996679 1.635840
v 4.740039 6.849607 6.882423
v 1.426660 0.790233 3.282617
v 5.963672 8.855954 10.368069
v 1.829297 1.421190 4.707227
v 4.699023 6.498923 9.410353
v 1.445801 0.659667 4.849414
v 6.269922 8.885347 15.659768
v 1.941406 1.430076 6.657520
v 3.964160 4.774216 12.172071
v 4.742774 5.770894 17.017384
v -1.902441 1.731542 3.137696
v -5.043555 7.543455 5.910354
v -1.442383 0.996679 1.635840
v -4.277246 5.996482 6.440822
v -1.426660 0.790233 3.282617
v -5.898047 8.840916 9.311233
v -1.829297 1.421190 4.707227
v -4.066699 5.367576 8.498439
v -1.445801 0.659667 4.849414
v -5.817383 8.239352 13.480471
v -1.941406 1.430076 6.657520
v -3.547168 4.118649 10.716701
v -4.357226 5.168648 15.641310
v 1.564746 0.677440 6.851660
v 1.966699 1.281736 8.500488
v 2.592871 2.165622 11.635449
v 1.663867 0.675388 8.670703
v -1.564746 0.677440 6.851660
v -1.966699 1.281736 8.500488
v -2.959277 2.767868 12.656739
v -1.663867 0.675388 8.670703
v 2.551172 1.742477 14.828516
v -2.800000 2.015913 16.800001

vt -0.750000 0.000000
vt -1.000000 1.000000
vt -1.000000 0.000000
vt -0.750000 1.000000
vt -0.500000 0.000000
vt -0.500000 1.000000
vt -0.250000 0.000000
vt -0.250000 1.000000
vt 0.000000 0.000000
vt 0.000000 1.000000
vt 0.250000 0.000000
vt 0.250000 1.000000
vt 0.500000 1.000000
vt -0.750000 0.000000
vt -1.000000 1.000000
vt -1.000000 0.000000
vt -0.750000 1.000000
vt -0.500000 0.000000
vt -0.500000 1.000000
vt -0.250000 0.000000
vt -0.250000 1.000000
vt 0.000000 0.000000
vt 0.000000 1.000000
vt 0.250000 0.000000
vt 0.250000 1.000000
vt 0.500000 1.000000
vt 0.500000 0.000000
vt 0.750000 0.000000
vt 0.750000 1.000000
vt 1.000000 0.000000
vt 0.500000 0.000000
vt 0.750000 0.000000
vt 0.750000 1.000000
vt 1.000000 0.000000
vt 1.000000 1.000000
vt 1.000000 1.000000

vn -0.890299 0.452959 0.046858
vn -0.890299 0.452959 0.046858
vn -0.890299 0.452959 0.046858
vn -0.890299 0.452959 0.046858
vn -0.890299 0.452959 0.046858
vn -0.890299 0.452959 0.046858
vn -0.890299 0.452959 0.046858
vn -0.890299 0.452959 0.046858
vn -0.890299 0.452959 0.046858
vn -0.890299 0.452959 0.046858
vn -0.890299 0.452959 0.046858
vn -0.890299 0.452959 0.046858
vn -0.890299 0.452959 0.046858
vn -0.890299 -0.452959 -0.046858
vn -0.890299 -0.452959 -0.046858
vn -0.890299 -0.452959 -0.046858
vn -0.890299 -0.452959 -0.046858
vn -0.890299 -0.452959 -0.046858
vn -0.890299 -0.452959 -0.046858
vn -0.890299 -0.452959 -0.046858
vn -0.890299 -0.452959 -0.046858
vn -0.890299 -0.452959 -0.046858
vn -0.890299 -0.452959 -0.046858
vn -0.890299 -0.452959 -0.046858
vn -0.890299 -0.452959 -0.046858
vn -0.890299 -0.452959 -0.046858
vn -0.890299 0.452959 0.046858
vn -0.890299 0.452959 0.046858
vn -0.890299 0.452959 0.046858
vn -0.890299 0.452959 0.046858
vn -0.890299 -0.452959 -0.046858
vn -0.890299 -0.452959 -0.046858
vn -0.890299 -0.452959 -0.046858
vn -0.890299 -0.452959 -0.046858
vn -0.890299 0.452959 0.046858
vn -0.890299 -0.452959 -0.046858

g polygon3
s 1
usemtl mat1
f 85/85/85 86/86/86 87/87/87
f 85/85/85 88/88/88 86/86/86
f 89/89/89 88/88/88 85/85/85
f 89/89/89 90/90/90 88/88/88
f 91/91/91 90/90/90 89/89/89
f 91/91/91 92/92/92 90/90/90
f 93/93/93 92/92/92 91/91/91
f 93/93/93 94/94/94 92/92/92
f 95/95/95 94/94/94 93/93/93
f 95/95/95 96/96/96 94/94/94
f 97/97/97 96/96/96 95/95/95
f 98/98/98 99/99/99 100/100/100
f 98/98/98 101/101/101 99/99/99
f 102/102/102 101/101/101 98/98/98
f 102/102/102 103/103/103 101/101/101
f 104/104/104 103/103/103 102/102/102
f 104/104/104 105/105/105 103/103/103
f 106/106/106 105/105/105 104/104/104
f 106/106/106 107/107/107 105/105/105
f 108/108/108 107/107/107 106/106/106
f 108/108/108 109/109/109 107/107/107
f 110/110/110 109/109/109 108/108/108
f 111/111/111 97/97/97 95/95/95
f 111/111/111 112/112/112 97/97/97
f 112/112/112 113/113/113 97/97/97
f 112/112/112 114/114/114 113/113/113
f 115/115/115 110/110/110 108/108/108
f 115/115/115 116/116/116 110/110/110
f 116/116/116 117/117/117 110/110/110
f 116/116/116 118/118/118 117/117/117
f 114/114/114 119/119/119 113/113/113
f 118/118/118 120/120/120 117/117/117

