mtllib EffCommonVerticalSmokeA.mtl

v 0.000000 0.000001 -2.400000
v 1.299391 3.328482 -6.532475
v 0.000002 7.500003 -11.999998
v 0.672672 0.818749 -3.381745
v 2.192713 2.601433 -5.293675
v 0.918441 0.000001 -2.217311
v 4.827235 4.913121 -7.224464
v 2.353848 1.435010 -3.522780
v 4.058393 2.608933 -4.058390
v 1.858508 0.178380 -1.858507
v 5.047150 2.867309 -3.372396
v 2.963934 0.909917 -1.980436
v 7.475025 4.446022 -3.096253
v 2.389350 0.145479 -0.989701
v 6.030690 2.928780 -1.199577
v 3.784230 1.139349 -0.752729
v 12.000000 7.500000 0.000002
v 2.668065 0.209425 0.000000
v 0.000002 7.500003 -11.999998
v -0.879127 1.574743 -4.329083
v 0.000000 0.000001 -2.400000
v -1.381009 3.608856 -6.883315
v -1.029807 0.227357 -2.486176
v -3.593371 5.460889 -8.675167
v -2.314070 1.379077 -3.463251
v -3.316752 2.789062 -4.963872
v -1.977926 0.310322 -1.977927
v -4.953500 3.597898 -4.953501
v -2.969556 0.915200 -1.984194
v -8.671476 6.272733 -5.794096
v -2.217311 0.000000 -0.918440
v -5.581139 2.844517 -2.311783
v -3.981776 1.296707 -0.792025
v -5.215201 2.279196 -1.037368
v -2.828060 0.334422 0.000000
v -12.000000 7.500000 0.000001
v -3.559442 0.960294 0.708017
v -6.668198 3.436588 1.326387
v -2.217311 -0.000000 0.918440
v -5.551607 2.819543 2.299551
v -3.207598 1.138862 2.143248
v -7.092270 4.788906 4.738904
v -1.877248 0.199086 1.877248
v -3.851230 2.380048 3.851231
v -1.757655 0.596636 2.630516
v -2.708401 1.933588 4.053409
v -0.918440 -0.000001 2.217311
v -3.148005 4.551664 7.599957
v -0.745643 1.110968 3.748600
v -1.808211 5.366076 9.090490
v 0.000000 -0.000001 2.400000
v 0.000000 3.315787 6.644213
v 0.560255 0.368573 2.816594
v 2.031236 6.259197 10.211718
v 0.918440 -0.000001 2.217311
v 2.543569 3.317704 6.140719
v 2.436903 1.551803 3.647083
v 3.610108 3.201579 5.402910
v 1.940047 0.268468 1.940047
v 8.485282 7.499998 8.485284
v 2.682363 0.645352 1.792298
v 4.670213 2.513138 3.120537
v 2.217311 -0.000000 0.918440
v 7.344800 4.335901 3.042316
v 3.444379 0.868639 0.685130
v 6.089807 2.975868 1.211339

vt 8.500000 0.000000
vt 8.000000 1.000000
vt 8.500000 1.000000
vt 8.000000 0.000000
vt 7.500000 1.000000
vt 7.500000 0.000000
vt 7.000000 1.000000
vt 7.000000 0.000000
vt 6.500000 1.000000
vt 6.500000 0.000000
vt 6.000000 1.000000
vt 6.000000 0.000000
vt 5.500000 1.000000
vt 5.500000 0.000000
vt 5.000000 1.000000
vt 5.000000 0.000000
vt 4.500000 1.000000
vt 4.500000 0.000000
vt -7.500000 1.000000
vt -7.000000 0.000000
vt -7.500000 0.000000
vt -7.000000 1.000000
vt -6.500000 0.000000
vt -6.500000 1.000000
vt -6.000000 0.000000
vt -6.000000 1.000000
vt -5.500000 0.000000
vt -5.500000 1.000000
vt -5.000000 0.000000
vt -5.000000 1.000000
vt -4.500000 0.000000
vt -4.500000 1.000000
vt -4.000000 0.000000
vt -4.000000 1.000000
vt -3.500000 0.000000
vt -3.500000 1.000000
vt -3.000000 0.000000
vt -3.000000 1.000000
vt -2.500000 0.000000
vt -2.500000 1.000000
vt -2.000000 0.000000
vt -2.000000 1.000000
vt -1.500000 0.000000
vt -1.500000 1.000000
vt -1.000000 0.000000
vt -1.000000 1.000000
vt -0.500000 0.000000
vt -0.500000 1.000000
vt 0.000000 0.000000
vt 0.000000 1.000000
vt 0.500000 0.000000
vt 0.500000 1.000000
vt 1.000000 0.000000
vt 1.000000 1.000000
vt 1.500000 0.000000
vt 1.500000 1.000000
vt 2.000000 0.000000
vt 2.000000 1.000000
vt 2.500000 0.000000
vt 2.500000 1.000000
vt 3.000000 0.000000
vt 3.000000 1.000000
vt 3.500000 0.000000
vt 3.500000 1.000000
vt 4.000000 0.000000
vt 4.000000 1.000000

vn 0.000235 0.999512 0.031230
vn -0.004310 0.999511 0.030985
vn 0.000235 0.999512 0.031230
vn -0.007879 0.999510 0.030281
vn -0.011904 0.999512 0.028872
vn -0.011904 0.999512 0.028872
vn -0.016794 0.999512 0.026340
vn -0.016794 0.999512 0.026340
vn -0.021340 0.999511 0.022835
vn -0.021340 0.999511 0.022835
vn -0.025772 0.999512 0.017647
vn -0.027194 0.999510 0.015524
vn -0.028760 0.999512 0.012189
vn -0.028760 0.999512 0.012189
vn -0.030526 0.999512 0.006644
vn -0.031135 0.999509 0.003594
vn -0.031230 0.999512 0.000136
vn -0.031230 0.999512 0.000136
vn 0.000235 0.999512 0.031230
vn 0.003594 0.999509 0.031135
vn 0.000235 0.999512 0.031230
vn 0.006928 0.999512 0.030465
vn 0.011917 0.999512 0.028872
vn 0.011917 0.999512 0.028872
vn 0.015314 0.999509 0.027331
vn 0.018067 0.999512 0.025490
vn 0.023020 0.999511 0.021155
vn 0.023020 0.999511 0.021155
vn 0.026081 0.999512 0.017190
vn 0.026081 0.999512 0.017190
vn 0.028552 0.999512 0.012683
vn 0.028552 0.999512 0.012683
vn 0.030195 0.999510 0.008287
vn 0.031084 0.999509 0.003841
vn 0.031230 0.999512 -0.000580
vn 0.031230 0.999512 -0.000580
vn 0.031123 0.999509 -0.003655
vn 0.030687 0.999512 -0.005841
vn 0.028552 0.999512 -0.012695
vn 0.028552 0.999512 -0.012695
vn 0.025760 0.999512 -0.017671
vn 0.025760 0.999512 -0.017671
vn 0.022376 0.999512 -0.021795
vn 0.022376 0.999512 -0.021795
vn 0.018969 0.999510 -0.024896
vn 0.015931 0.999511 -0.026922
vn 0.010806 0.999511 -0.029330
vn 0.010806 0.999511 -0.029330
vn 0.008126 0.999510 -0.030231
vn 0.005853 0.999512 -0.030687
vn 0.001914 0.999510 -0.031232
vn -0.000692 0.999512 -0.031232
vn -0.006421 0.999512 -0.030563
vn -0.006421 0.999512 -0.030563
vn -0.011521 0.999512 -0.029032
vn -0.011521 0.999512 -0.029032
vn -0.015560 0.999510 -0.027169
vn -0.019018 0.999510 -0.024859
vn -0.022055 0.999512 -0.022116
vn -0.022055 0.999512 -0.022116
vn -0.024565 0.999509 -0.019451
vn -0.026179 0.999512 -0.017029
vn -0.029020 0.999512 -0.011571
vn -0.029020 0.999512 -0.011571
vn -0.030219 0.999510 -0.008212
vn -0.030936 0.999511 -0.004569

g polygon0
s 1
usemtl mat1
f 1/1/1 2/2/2 3/3/3
f 1/1/1 4/4/4 2/2/2
f 4/4/4 5/5/5 2/2/2
f 4/4/4 6/6/6 5/5/5
f 6/6/6 7/7/7 5/5/5
f 6/6/6 8/8/8 7/7/7
f 8/8/8 9/9/9 7/7/7
f 8/8/8 10/10/10 9/9/9
f 10/10/10 11/11/11 9/9/9
f 10/10/10 12/12/12 11/11/11
f 12/12/12 13/13/13 11/11/11
f 12/12/12 14/14/14 13/13/13
f 14/14/14 15/15/15 13/13/13
f 14/14/14 16/16/16 15/15/15
f 16/16/16 17/17/17 15/15/15
f 16/16/16 18/18/18 17/17/17
f 19/19/19 20/20/20 21/21/21
f 19/19/19 22/22/22 20/20/20
f 22/22/22 23/23/23 20/20/20
f 22/22/22 24/24/24 23/23/23
f 24/24/24 25/25/25 23/23/23
f 24/24/24 26/26/26 25/25/25
f 26/26/26 27/27/27 25/25/25
f 26/26/26 28/28/28 27/27/27
f 28/28/28 29/29/29 27/27/27
f 28/28/28 30/30/30 29/29/29
f 30/30/30 31/31/31 29/29/29
f 30/30/30 32/32/32 31/31/31
f 32/32/32 33/33/33 31/31/31
f 32/32/32 34/34/34 33/33/33
f 34/34/34 35/35/35 33/33/33
f 34/34/34 36/36/36 35/35/35
f 36/36/36 37/37/37 35/35/35
f 36/36/36 38/38/38 37/37/37
f 38/38/38 39/39/39 37/37/37
f 38/38/38 40/40/40 39/39/39
f 40/40/40 41/41/41 39/39/39
f 40/40/40 42/42/42 41/41/41
f 42/42/42 43/43/43 41/41/41
f 42/42/42 44/44/44 43/43/43
f 44/44/44 45/45/45 43/43/43
f 44/44/44 46/46/46 45/45/45
f 46/46/46 47/47/47 45/45/45
f 46/46/46 48/48/48 47/47/47
f 48/48/48 49/49/49 47/47/47
f 48/48/48 50/50/50 49/49/49
f 50/50/50 51/51/51 49/49/49
f 50/50/50 52/52/52 51/51/51
f 52/52/52 53/53/53 51/51/51
f 52/52/52 54/54/54 53/53/53
f 54/54/54 55/55/55 53/53/53
f 54/54/54 56/56/56 55/55/55
f 56/56/56 57/57/57 55/55/55
f 56/56/56 58/58/58 57/57/57
f 58/58/58 59/59/59 57/57/57
f 58/58/58 60/60/60 59/59/59
f 60/60/60 61/61/61 59/59/59
f 60/60/60 62/62/62 61/61/61
f 62/62/62 63/63/63 61/61/61
f 62/62/62 64/64/64 63/63/63
f 64/64/64 65/65/65 63/63/63
f 64/64/64 66/66/66 65/65/65
f 66/66/66 18/18/18 65/65/65
f 66/66/66 17/17/17 18/18/18

v 0.000000 2.000001 -2.879882
v 0.759961 7.402345 -3.820018
v 0.000000 25.000002 -7.199994
v 0.719531 6.299806 -3.616698
v 1.966113 14.018556 -4.746383
v 1.102149 2.000001 -2.660742
v 3.320215 18.484377 -4.969038
v 1.836621 4.268556 -2.748925
v 3.306153 11.558595 -3.306149
v 2.208984 3.299805 -2.208984
v 3.491602 9.024415 -2.332908
v 3.082031 6.401368 -2.059276
v 4.882031 14.799806 -2.022067
v 2.660742 2.000000 -1.102148
v 4.749023 12.446289 -0.944528
v 3.527051 5.813477 -0.701659
v 7.200000 25.000000 0.000007
v 2.879883 2.000000 0.000001
v 0.000000 25.000002 -7.199994
v -0.674121 5.064454 -3.389354
v 0.000000 2.000001 -2.879882
v -0.922852 11.852540 -4.639450
v -1.121484 2.271485 -2.707910
v -1.485352 7.330079 -3.585643
v -2.139844 7.171876 -3.202440
v -3.601465 21.179689 -5.390034
v -2.204297 3.263672 -2.204296
v -3.487207 12.922853 -3.487204
v -3.239356 7.410157 -2.164451
v -3.568652 9.517579 -2.384470
v -2.660742 2.000000 -1.102148
v -5.578711 18.764648 -2.290718
v -3.269238 4.413086 -0.650389
v -6.575391 22.361328 -1.307807
v -2.879883 2.000000 0.000001
v -4.875293 12.623047 0.000003
v -3.818262 7.393555 0.759377
v -6.590039 22.439453 1.310748
v -2.929395 3.548828 1.213477
v -4.698926 13.745116 1.946195
v -2.774121 4.430664 1.853615
v -3.077051 6.370117 2.056056
v -2.036426 2.000000 2.036426
v -4.871778 23.347654 4.871784
v -2.093848 6.731444 3.133596
v -2.627051 11.841796 3.931644
v -1.158984 2.791015 2.797853
v -2.241211 17.846678 5.410552
v -0.659766 4.673827 3.317286
v -0.742969 6.946288 3.735940
v 0.000000 1.999999 2.879884
v 0.000000 24.999998 7.200007
v 0.733008 6.669921 3.684963
v 0.849609 9.852538 4.271194
v 1.102149 1.999999 2.660743
v 2.206641 17.368162 5.327641
v 1.919824 5.166991 2.898048
v 2.754785 13.127929 4.137894
v 2.176465 3.053710 2.176466
v 2.871387 8.286132 2.871389
v 3.320801 7.929687 2.218947
v 4.919239 18.165039 3.286821
v 2.981836 3.850586 1.235157
v 3.863965 8.933594 1.600491
v 3.537598 5.870117 0.703713
v 4.500293 11.095703 0.895315

vt 8.500000 0.000000
vt 8.000000 1.000000
vt 8.500000 1.000000
vt 8.000000 0.000000
vt 7.500000 1.000000
vt 7.500000 0.000000
vt 7.000000 1.000000
vt 7.000000 0.000000
vt 6.500000 1.000000
vt 6.500000 0.000000
vt 6.000000 1.000000
vt 6.000000 0.000000
vt 5.500000 1.000000
vt 5.500000 0.000000
vt 5.000000 1.000000
vt 5.000000 0.000000
vt 4.500000 1.000000
vt 4.500000 0.000000
vt -7.500000 1.000000
vt -7.000000 0.000000
vt -7.500000 0.000000
vt -7.000000 1.000000
vt -6.500000 0.000000
vt -6.500000 1.000000
vt -6.000000 0.000000
vt -6.000000 1.000000
vt -5.500000 0.000000
vt -5.500000 1.000000
vt -5.000000 0.000000
vt -5.000000 1.000000
vt -4.500000 0.000000
vt -4.500000 1.000000
vt -4.000000 0.000000
vt -4.000000 1.000000
vt -3.500000 0.000000
vt -3.500000 1.000000
vt -3.000000 0.000000
vt -3.000000 1.000000
vt -2.500000 0.000000
vt -2.500000 1.000000
vt -2.000000 0.000000
vt -2.000000 1.000000
vt -1.500000 0.000000
vt -1.500000 1.000000
vt -1.000000 0.000000
vt -1.000000 1.000000
vt -0.500000 0.000000
vt -0.500000 1.000000
vt 0.000000 0.000000
vt 0.000000 1.000000
vt 0.500000 0.000000
vt 0.500000 1.000000
vt 1.000000 0.000000
vt 1.000000 1.000000
vt 1.500000 0.000000
vt 1.500000 1.000000
vt 2.000000 0.000000
vt 2.000000 1.000000
vt 2.500000 0.000000
vt 2.500000 1.000000
vt 3.000000 0.000000
vt 3.000000 1.000000
vt 3.500000 0.000000
vt 3.500000 1.000000
vt 4.000000 0.000000
vt 4.000000 1.000000

vn -0.003267 0.901802 0.432137
vn -0.047330 0.901188 0.430837
vn 0.007562 0.901786 0.432117
vn -0.120975 0.901184 0.416212
vn -0.172411 0.901789 0.396298
vn -0.182462 0.901672 0.392039
vn -0.230937 0.901753 0.365391
vn -0.253918 0.901699 0.349951
vn -0.291663 0.901639 0.319341
vn -0.312206 0.901783 0.298855
vn -0.347143 0.901592 0.258116
vn -0.377167 0.901341 0.212907
vn -0.399340 0.901806 0.165145
vn -0.403485 0.901752 0.155058
vn -0.421662 0.901754 0.095083
vn -0.429767 0.901372 0.053191
vn -0.432109 0.901810 0.004512
vn -0.432115 0.901783 -0.007936
vn 0.007562 0.901786 0.432117
vn 0.053752 0.901369 0.429703
vn -0.003267 0.901802 0.432137
vn 0.082028 0.901813 0.424269
vn 0.150228 0.901700 0.405423
vn 0.185405 0.901595 0.390833
vn 0.230969 0.901756 0.365361
vn 0.251499 0.901723 0.351632
vn 0.291160 0.901616 0.319868
vn 0.301569 0.901811 0.309504
vn 0.340771 0.901325 0.267375
vn 0.377201 0.901348 0.212815
vn 0.396347 0.901859 0.171930
vn 0.405471 0.901773 0.149660
vn 0.419504 0.901651 0.105079
vn 0.424544 0.901802 0.080721
vn 0.432022 0.901616 0.021111
vn 0.432082 0.901779 -0.009958
vn 0.427186 0.901671 -0.067088
vn 0.421906 0.901781 -0.093736
vn 0.408027 0.901571 -0.143815
vn 0.402767 0.901780 -0.156756
vn 0.377393 0.901330 -0.212554
vn 0.340424 0.901292 -0.267925
vn 0.306328 0.901808 -0.304803
vn 0.299883 0.901786 -0.311211
vn 0.266945 0.901346 -0.341051
vn 0.225081 0.901674 -0.369220
vn 0.175568 0.901754 -0.394989
vn 0.167385 0.901806 -0.398406
vn 0.118263 0.901263 -0.416821
vn 0.052884 0.901343 -0.429865
vn 0.001836 0.901806 -0.432138
vn -0.004699 0.901809 -0.432109
vn -0.048974 0.901240 -0.430544
vn -0.106684 0.901590 -0.419230
vn -0.157441 0.901784 -0.402488
vn -0.172206 0.901748 -0.396480
vn -0.218313 0.901514 -0.373646
vn -0.242047 0.901749 -0.358137
vn -0.292822 0.901670 -0.318194
vn -0.317821 0.901670 -0.293227
vn -0.352005 0.901724 -0.250970
vn -0.364146 0.901781 -0.232784
vn -0.390178 0.901561 -0.186945
vn -0.401550 0.901806 -0.159698
vn -0.419968 0.901644 -0.103272
vn -0.429382 0.901426 -0.055332

g polygon1
s 1
usemtl mat1
f 67/67/67 68/68/68 69/69/69
f 67/67/67 70/70/70 68/68/68
f 70/70/70 71/71/71 68/68/68
f 70/70/70 72/72/72 71/71/71
f 72/72/72 73/73/73 71/71/71
f 72/72/72 74/74/74 73/73/73
f 74/74/74 75/75/75 73/73/73
f 74/74/74 76/76/76 75/75/75
f 76/76/76 77/77/77 75/75/75
f 76/76/76 78/78/78 77/77/77
f 78/78/78 79/79/79 77/77/77
f 78/78/78 80/80/80 79/79/79
f 80/80/80 81/81/81 79/79/79
f 80/80/80 82/82/82 81/81/81
f 82/82/82 83/83/83 81/81/81
f 82/82/82 84/84/84 83/83/83
f 85/85/85 86/86/86 87/87/87
f 85/85/85 88/88/88 86/86/86
f 88/88/88 89/89/89 86/86/86
f 88/88/88 90/90/90 89/89/89
f 90/90/90 91/91/91 89/89/89
f 90/90/90 92/92/92 91/91/91
f 92/92/92 93/93/93 91/91/91
f 92/92/92 94/94/94 93/93/93
f 94/94/94 95/95/95 93/93/93
f 94/94/94 96/96/96 95/95/95
f 96/96/96 97/97/97 95/95/95
f 96/96/96 98/98/98 97/97/97
f 98/98/98 99/99/99 97/97/97
f 98/98/98 100/100/100 99/99/99
f 100/100/100 101/101/101 99/99/99
f 100/100/100 102/102/102 101/101/101
f 102/102/102 103/103/103 101/101/101
f 102/102/102 104/104/104 103/103/103
f 104/104/104 105/105/105 103/103/103
f 104/104/104 106/106/106 105/105/105
f 106/106/106 107/107/107 105/105/105
f 106/106/106 108/108/108 107/107/107
f 108/108/108 109/109/109 107/107/107
f 108/108/108 110/110/110 109/109/109
f 110/110/110 111/111/111 109/109/109
f 110/110/110 112/112/112 111/111/111
f 112/112/112 113/113/113 111/111/111
f 112/112/112 114/114/114 113/113/113
f 114/114/114 115/115/115 113/113/113
f 114/114/114 116/116/116 115/115/115
f 116/116/116 117/117/117 115/115/115
f 116/116/116 118/118/118 117/117/117
f 118/118/118 119/119/119 117/117/117
f 118/118/118 120/120/120 119/119/119
f 120/120/120 121/121/121 119/119/119
f 120/120/120 122/122/122 121/121/121
f 122/122/122 123/123/123 121/121/121
f 122/122/122 124/124/124 123/123/123
f 124/124/124 125/125/125 123/123/123
f 124/124/124 126/126/126 125/125/125
f 126/126/126 127/127/127 125/125/125
f 126/126/126 128/128/128 127/127/127
f 128/128/128 129/129/129 127/127/127
f 128/128/128 130/130/130 129/129/129
f 130/130/130 131/131/131 129/129/129
f 130/130/130 132/132/132 131/131/131
f 132/132/132 84/84/84 131/131/131
f 132/132/132 83/83/83 84/84/84

v -3.432617 0.682617 0.000000
v -8.750000 0.000000 0.000000
v -3.500000 0.000000 0.000000
v -8.582031 1.707031 0.000000
v -3.233398 1.339355 0.000000
v -8.083984 3.348633 0.000001
v -2.910156 1.944336 0.000001
v -7.275391 4.861328 0.000001
v -2.475098 2.475098 0.000001
v -6.187012 6.187012 0.000002
v -2.144043 3.208984 0.000001
v -4.570313 6.839844 0.000002
v -1.559570 3.765625 0.000001
v -3.074707 7.422852 0.000002
v -0.900879 4.333984 0.000001
v -1.492676 7.452637 0.000002
v 0.000000 4.711426 0.000001
v 0.000000 6.865723 0.000002
v 0.898438 4.517578 0.000001
v 1.399902 7.037109 0.000002
v 1.595215 3.851563 0.000001
v 3.065918 7.402344 0.000002
v 2.148438 3.214844 0.000001
v 4.645996 6.953613 0.000002
v 2.475098 2.475098 0.000001
v 6.130859 6.130859 0.000002
v 2.910156 1.944336 0.000001
v 7.275391 4.861328 0.000001
v 3.233398 1.339355 0.000000
v 8.083984 3.348633 0.000001
v 3.432617 0.682617 0.000000
v 8.582031 1.707031 0.000000
v 3.500000 0.000000 0.000000
v 8.750000 0.000000 0.000000

vt 0.000000 0.132080
vt 1.000000 0.000000
vt 0.000000 0.000000
vt 1.000000 0.132080
vt 0.000000 0.250000
vt 1.000000 0.250000
vt 0.000000 0.380981
vt 1.000000 0.380981
vt 0.000000 0.500000
vt 1.000000 0.500000
vt 0.000000 0.629883
vt 1.000000 0.629883
vt 0.000000 0.750000
vt 1.000000 0.750000
vt 0.000000 0.878784
vt 1.000000 0.878784
vt 0.000000 1.000000
vt 1.000000 1.000000
vt 0.000000 1.127686
vt 1.000000 1.127686
vt 0.000000 1.250000
vt 1.000000 1.250000
vt 0.000000 1.376587
vt 1.000000 1.376587
vt 0.000000 1.500000
vt 1.000000 1.500000
vt 0.000000 1.625549
vt 1.000000 1.625549
vt 0.000000 1.750000
vt 1.000000 1.750000
vt 0.000000 1.874451
vt 1.000000 1.874451
vt 0.000000 2.000000
vt 1.000000 2.000000

vn 0.000000 -0.000000 1.000000
vn 0.000000 -0.000000 1.000000
vn 0.000000 -0.000000 1.000000
vn 0.000000 -0.000000 1.000000
vn 0.000000 -0.000000 1.000000
vn 0.000000 -0.000000 1.000000
vn 0.000000 -0.000000 1.000000
vn 0.000000 -0.000000 1.000000
vn 0.000000 -0.000000 1.000000
vn 0.000000 -0.000000 1.000000
vn 0.000000 -0.000000 1.000000
vn 0.000000 -0.000000 1.000000
vn 0.000000 -0.000000 1.000000
vn 0.000000 -0.000000 1.000000
vn 0.000000 -0.000000 1.000000
vn 0.000000 -0.000000 1.000000
vn 0.000000 -0.000000 1.000000
vn 0.000000 -0.000000 1.000000
vn 0.000000 -0.000000 1.000000
vn 0.000000 -0.000000 1.000000
vn 0.000000 -0.000000 1.000000
vn 0.000000 -0.000000 1.000000
vn 0.000000 -0.000000 1.000000
vn 0.000000 -0.000000 1.000000
vn 0.000000 -0.000000 1.000000
vn 0.000000 -0.000000 1.000000
vn 0.000000 -0.000000 1.000000
vn 0.000000 -0.000000 1.000000
vn 0.000000 -0.000000 1.000000
vn 0.000000 -0.000000 1.000000
vn 0.000000 -0.000000 1.000000
vn 0.000000 -0.000000 1.000000
vn 0.000000 -0.000000 1.000000
vn 0.000000 -0.000000 1.000000

g polygon2
s 1
usemtl mat2
f 133/133/133 134/134/134 135/135/135
f 133/133/133 136/136/136 134/134/134
f 137/137/137 136/136/136 133/133/133
f 137/137/137 138/138/138 136/136/136
f 139/139/139 138/138/138 137/137/137
f 139/139/139 140/140/140 138/138/138
f 141/141/141 140/140/140 139/139/139
f 141/141/141 142/142/142 140/140/140
f 143/143/143 142/142/142 141/141/141
f 143/143/143 144/144/144 142/142/142
f 145/145/145 144/144/144 143/143/143
f 145/145/145 146/146/146 144/144/144
f 147/147/147 146/146/146 145/145/145
f 147/147/147 148/148/148 146/146/146
f 149/149/149 148/148/148 147/147/147
f 149/149/149 150/150/150 148/148/148
f 151/151/151 150/150/150 149/149/149
f 151/151/151 152/152/152 150/150/150
f 153/153/153 152/152/152 151/151/151
f 153/153/153 154/154/154 152/152/152
f 155/155/155 154/154/154 153/153/153
f 155/155/155 156/156/156 154/154/154
f 157/157/157 156/156/156 155/155/155
f 157/157/157 158/158/158 156/156/156
f 159/159/159 158/158/158 157/157/157
f 159/159/159 160/160/160 158/158/158
f 161/161/161 160/160/160 159/159/159
f 161/161/161 162/162/162 160/160/160
f 163/163/163 162/162/162 161/161/161
f 163/163/163 164/164/164 162/162/162
f 165/165/165 164/164/164 163/163/163
f 165/165/165 166/166/166 164/164/164

