mtllib EffCommonMerikomi.mtl

v 0.360547 -2.000001 1.812304
v -0.360547 -2.000001 1.812304
v 0.000000 -1.500000 -0.000000
v 0.000000 -1.000002 3.530859
v 0.757031 -1.000002 3.064258
v 0.733594 -0.000002 3.707031
v 1.414063 -0.000002 3.433985
v 0.757031 0.999998 3.064258
v 1.165820 0.999998 2.794922
v 0.360547 1.553221 1.812305
v 1.026563 1.669921 1.536328
v 0.000000 0.663086 0.000000
v 1.026563 -2.000001 1.536328
v 0.000000 -1.500000 -0.000000
v 1.165820 -1.000002 2.794922
v 1.752539 -1.000002 2.721875
v 2.012695 -0.000002 3.157031
v 2.828516 -0.000002 2.828516
v 1.752539 0.999998 2.721875
v 2.496680 0.999998 2.496680
v 1.409961 1.999999 0.950781
v 0.000000 0.663086 0.000000
v -1.026563 -2.000001 1.536328
v 0.000000 -1.500000 -0.000000
v -1.050586 -1.000002 2.496484
v -0.618555 -1.000002 3.087305
v -0.777344 -0.000002 3.491602
v 0.000000 -0.000003 4.000000
v -0.618555 0.999998 3.087305
v 0.000000 0.999998 3.530859
v -0.360547 2.370604 1.812305
v 0.000000 0.663086 0.000000
v 0.360547 -1.999999 -1.812305
v 1.026563 -1.999999 -1.536328
v 0.000000 -1.500000 -0.000000
v 1.095899 -0.999998 -2.837891
v 0.688086 -0.999998 -3.319141
v 0.825391 0.000002 -3.778320
v 0.000000 0.000003 -4.000000
v 0.688086 1.000002 -3.319141
v 0.000000 1.461428 -3.530859
v 0.411133 2.000001 -1.850195
v -0.360547 2.000001 -1.749023
v 0.000000 0.663086 0.000000
v -1.026563 -1.999999 -1.536328
v -0.360547 -1.999999 -1.812305
v 0.000000 -1.500000 -0.000000
v -1.211133 -0.999998 -2.866016
v -1.637109 -0.999998 -2.517578
v -1.966211 0.000002 -2.998633
v -2.828516 0.000002 -2.828516
v -1.637109 1.000002 -2.517578
v -2.496680 1.000002 -2.496680
v -1.102344 1.713868 -1.650195
v -1.624805 2.000001 -1.127734
v 0.000000 0.663086 0.000000
v 1.536328 -1.999999 -1.026563
v 0.000000 -1.500000 -0.000000
v 1.965430 -0.999999 -2.125196
v 1.545898 -0.999999 -2.310938
v 2.035742 0.000002 -2.791992
v 1.414063 0.000002 -3.344531
v 1.545898 1.000002 -2.310937
v 1.095899 1.000002 -2.837891
v 0.887500 1.639649 -1.334180
v 0.000000 0.663086 0.000000
v -1.536328 -1.999999 -1.026563
v 0.000000 -1.500000 -0.000000
v -2.496680 -0.999998 -2.496680
v -2.935742 -0.999999 -1.961719
v -3.325781 0.000001 -2.222266
v -3.483203 0.000001 -1.505664
v -2.935742 1.000001 -1.961719
v -2.912695 1.000001 -1.326562
v -1.812305 1.411621 -0.360547
v 0.000000 0.663086 0.000000
v 1.812305 -2.000000 -0.360547
v 0.000000 -1.500000 -0.000000
v 2.982227 -0.999999 -1.303516
v 2.702344 -0.999999 -1.889844
v 3.137695 0.000001 -2.172852
v 2.480273 0.000002 -2.571094
v 2.702344 1.000001 -1.889844
v 1.965430 1.000001 -2.125195
v 1.397266 2.000001 -0.938086
v 0.000000 0.663086 0.000000
v -1.812305 -2.000000 -0.360547
v 0.000000 -1.500000 -0.000000
v -2.912695 -0.999999 -1.326563
v -2.975586 -1.000000 -0.688477
v -3.595703 0.000000 -0.733984
v -3.810156 0.000000 -0.047070
v -2.975586 1.000000 -0.688476
v -3.204102 0.747559 -0.047070
v -2.039844 1.537597 0.423633
v 0.000000 0.663086 0.000000
v 1.812305 -2.000000 0.360547
v 0.000000 -1.500000 -0.000000
v 3.530859 -1.000000 -0.000000
v 3.320508 -1.000000 -0.665625
v 3.780078 0.000000 -0.733984
v 3.506836 0.000001 -1.459766
v 3.320508 1.221192 -0.665625
v 2.982227 1.000001 -1.303516
v 1.963867 2.564942 -0.360547
v 0.000000 0.663086 0.000000
v -1.812305 -2.000000 0.360547
v 0.000000 -1.500000 -0.000000
v -3.204102 -1.000000 -0.047070
v -3.388867 -1.000000 0.686133
v -3.923047 -0.000001 0.780273
v -3.695508 -0.000001 1.530664
v -3.388867 0.862304 0.686133
v -3.262110 0.999999 1.351172
v -1.599609 1.820312 1.039258
v 0.000000 0.663086 0.000000
v 1.536328 -2.000001 1.026562
v 0.000000 -1.500000 -0.000000
v 3.074023 -1.000001 1.186523
v 3.412305 -1.000000 0.640234
v 3.923047 -0.000001 0.780273
v 4.000000 0.000000 0.000000
v 3.412305 1.205078 0.640235
v 3.530859 1.456543 0.000000
v 1.963867 2.452148 0.385742
v 0.000000 0.663086 0.000000
v -1.536328 -2.000001 1.026562
v 0.000000 -1.500000 -0.000000
v -3.262110 -1.000001 1.351172
v -2.816406 -1.000001 1.818555
v -3.183008 -0.000001 2.216406
v -2.663281 -0.000002 2.706445
v -2.816406 0.999999 1.818555
v -2.194336 0.999999 2.260742
v -0.912695 2.091308 1.245508
v 0.000000 0.663086 0.000000
v 0.000000 -1.500000 -0.000000
v 2.496680 -1.000002 2.496680
v 2.885937 -1.000001 1.726758
v 3.321289 -0.000001 2.032813
v 3.529883 -0.000001 1.342773
v 2.885937 0.999999 1.726758
v 3.074023 0.999999 1.186524
v 0.000000 0.663086 0.000000
v 0.000000 -1.500000 -0.000000
v -2.194336 -1.000001 2.260742
v -1.660156 -1.000002 2.607031
v -1.989258 -0.000002 3.042187
v -1.436328 -0.000002 3.319336
v -1.660156 1.755369 2.607032
v -1.050586 1.383787 2.695899
v 0.000000 0.663086 0.000000
v -0.688867 -0.999998 -3.462891
v 0.000000 -0.999998 -3.530859
v -0.360547 -1.999999 -1.812305
v -0.780273 0.000003 -3.923047
v -1.367578 0.000002 -3.344531
v -0.688867 1.176272 -3.462891
v -1.211133 1.000002 -2.866016
v -0.360547 2.000001 -1.749023
v 0.000000 0.663086 0.000000
v 0.000000 0.000003 -4.000000
v 0.000000 1.461428 -3.530859
v -0.360547 2.000001 -1.749023
v -0.360547 -1.999999 -1.812305
v 0.000000 -1.500000 -0.000000
v 0.000000 -0.999998 -3.530859

vt 0.617798 0.720581
vt 0.368286 0.720581
vt 0.430664 1.072021
vt 0.555420 0.248535
vt 0.680176 0.248535
vt 0.680176 -0.001099
vt 0.805054 -0.001099
vt 0.680176 0.248535
vt 0.805054 0.248535
vt 0.617798 0.720581
vt 0.867432 0.720581
vt 0.680176 1.072021
vt 0.867432 0.720581
vt 0.680176 1.072021
vt 0.805054 0.248535
vt 0.929810 0.248535
vt 0.929810 -0.001099
vt 1.054565 -0.001099
vt 0.929810 0.248535
vt 1.054565 0.248535
vt 1.116943 0.720581
vt 0.929810 1.072021
vt 0.118652 0.720581
vt 0.181030 1.072021
vt 0.305908 0.248535
vt 0.430664 0.248535
vt 0.430664 -0.001099
vt 0.555420 -0.001099
vt 0.430664 0.248535
vt 0.555420 0.248535
vt 0.368286 0.720581
vt 0.430664 1.072021
vt 2.364868 0.720581
vt 2.115234 0.720581
vt 2.177612 1.072021
vt 2.302490 0.248535
vt 2.427246 0.248535
vt 2.427246 -0.001099
vt 2.552002 -0.001099
vt 2.427246 0.248535
vt 2.552002 0.248535
vt 2.364868 0.720581
vt 2.552002 0.720581
vt 2.427246 1.072021
vt -1.129150 0.720581
vt -1.399536 0.720581
vt -1.316406 1.072021
vt -1.191650 0.248535
vt -1.066772 0.248535
vt -1.066772 -0.001099
vt -0.942017 -0.001099
vt -1.066772 0.248535
vt -0.942017 0.248535
vt -1.129150 0.720581
vt -0.879639 0.720581
vt -1.066772 1.072021
vt 1.865723 0.720581
vt 1.928101 1.072021
vt 2.052856 0.248535
vt 2.177612 0.248535
vt 2.177612 -0.001099
vt 2.302490 -0.001099
vt 2.177612 0.248535
vt 2.302490 0.248535
vt 2.115234 0.720581
vt 2.177612 1.072021
vt -0.879639 0.720581
vt -1.066772 1.072021
vt -0.942017 0.248535
vt -0.817261 0.248535
vt -0.817261 -0.001099
vt -0.692505 -0.001099
vt -0.817261 0.248535
vt -0.692505 0.248535
vt -0.630005 0.720581
vt -0.817261 1.072021
vt 1.616089 0.720581
vt 1.678467 1.072021
vt 1.803345 0.248535
vt 1.928101 0.248535
vt 1.928101 -0.001099
vt 2.052856 -0.001099
vt 1.928101 0.248535
vt 2.052856 0.248535
vt 1.865723 0.720581
vt 1.928101 1.072021
vt -0.630005 0.720581
vt -0.817261 1.072021
vt -0.692505 0.248535
vt -0.567627 0.248535
vt -0.567627 -0.001099
vt -0.442871 -0.001099
vt -0.567627 0.248535
vt -0.442871 0.248535
vt -0.380493 0.720581
vt -0.567627 1.072021
vt 1.366577 0.720581
vt 1.428955 1.072021
vt 1.553711 0.248535
vt 1.678467 0.248535
vt 1.678467 -0.001099
vt 1.803345 -0.001099
vt 1.678467 0.248535
vt 1.803345 0.248535
vt 1.616089 0.720581
vt 1.678467 1.072021
vt -0.380493 0.720581
vt -0.567627 1.072021
vt -0.442871 0.248535
vt -0.318115 0.248535
vt -0.318115 -0.001099
vt -0.193237 -0.001099
vt -0.318115 0.248535
vt -0.193237 0.248535
vt -0.130859 0.720581
vt -0.318115 1.072021
vt 1.116943 0.720581
vt 1.179321 1.072021
vt 1.304199 0.248535
vt 1.428955 0.248535
vt 1.428955 -0.001099
vt 1.553711 -0.001099
vt 1.428955 0.248535
vt 1.553711 0.248535
vt 1.366577 0.720581
vt 1.428955 1.072021
vt -0.130859 0.720581
vt -0.318115 1.072021
vt -0.193237 0.248535
vt -0.068481 0.248535
vt -0.068481 -0.001099
vt 0.056274 -0.001099
vt -0.068481 0.248535
vt 0.056274 0.248535
vt 0.118652 0.720581
vt -0.068481 1.072021
vt 0.929810 1.072021
vt 1.054565 0.248535
vt 1.179321 0.248535
vt 1.179321 -0.001099
vt 1.304199 -0.001099
vt 1.179321 0.248535
vt 1.304199 0.248535
vt 1.179321 1.072021
vt -0.068481 1.072021
vt 0.056274 0.248535
vt 0.181030 0.248535
vt 0.181030 -0.001099
vt 0.305908 -0.001099
vt 0.181030 0.248535
vt 0.305908 0.248535
vt 0.181030 1.072021
vt -1.316406 0.248535
vt -1.441162 0.248535
vt -1.441162 0.720581
vt -1.316406 -0.001099
vt -1.191650 -0.001099
vt -1.316406 0.248535
vt -1.191650 0.248535
vt -1.399536 0.720581
vt -1.316406 1.072021
vt -1.441162 -0.001099
vt -1.441162 0.248535
vt -1.441162 0.720581
vt 2.552002 0.720581
vt 2.427246 1.072021
vt 2.552002 0.248535

vn 0.020262 -0.998616 0.048541
vn -0.043817 -0.997981 0.045988
vn 0.000000 -1.000000 -0.000000
vn 0.012320 -0.987675 0.156036
vn 0.078160 -0.985886 0.148056
vn 0.429500 -0.000001 0.903067
vn 0.429500 -0.000001 0.903067
vn 0.078160 0.985886 0.148056
vn 0.060678 0.984100 0.166929
vn 0.020262 0.998616 0.048542
vn 0.011505 0.998677 0.050124
vn 0.000000 1.000000 0.000000
vn 0.011505 -0.998677 0.050124
vn 0.000000 -1.000000 -0.000000
vn 0.060678 -0.984100 0.166929
vn 0.052856 -0.981666 0.183132
vn 0.321222 -0.000001 0.947004
vn 0.549308 -0.000001 0.835620
vn 0.052856 0.981666 0.183133
vn 0.112463 0.987167 0.113373
vn 0.042466 0.998741 0.026689
vn 0.000000 1.000000 0.000000
vn -0.031371 -0.998659 0.041180
vn 0.000000 -1.000000 -0.000000
vn -0.073853 -0.982070 0.173449
vn -0.145618 -0.973725 0.175083
vn -0.572516 -0.000001 0.819894
vn -0.295720 -0.000001 0.955275
vn -0.145618 0.973725 0.175083
vn 0.012320 0.987674 0.156036
vn -0.043817 0.997981 0.045989
vn 0.000000 1.000000 0.000000
vn 0.033364 -0.998645 -0.039929
vn 0.028074 -0.998681 -0.042996
vn 0.000000 -1.000000 -0.000000
vn 0.147349 -0.978023 -0.147512
vn 0.081749 -0.983630 -0.160593
vn 0.529291 0.000001 -0.848440
vn 0.153621 0.000001 -0.988130
vn 0.081749 0.983630 -0.160592
vn 0.010028 0.987325 -0.158393
vn 0.033364 0.998645 -0.039928
vn -0.027056 0.998743 -0.042193
vn 0.000000 1.000000 0.000000
vn -0.027056 -0.998743 -0.042193
vn -0.027056 -0.998743 -0.042193
vn 0.000000 -1.000000 -0.000000
vn -0.115663 -0.983321 -0.140367
vn -0.055913 -0.979343 -0.194322
vn -0.416611 0.000001 -0.909085
vn -0.331786 0.000001 -0.943355
vn -0.055912 0.979343 -0.194321
vn -0.085209 0.985364 -0.147641
vn -0.027056 0.998743 -0.042193
vn -0.034070 0.998971 -0.029946
vn 0.000000 1.000000 0.000000
vn 0.044912 -0.998782 -0.020417
vn 0.000000 -1.000000 -0.000000
vn 0.075364 -0.982974 -0.167575
vn 0.128978 -0.979569 -0.154301
vn 0.542358 0.000001 -0.840148
vn 0.673602 0.000000 -0.739094
vn 0.128978 0.979569 -0.154301
vn 0.147349 0.978023 -0.147512
vn 0.028074 0.998681 -0.042995
vn 0.000000 1.000000 0.000000
vn -0.034070 -0.998971 -0.029947
vn 0.000000 -1.000000 -0.000000
vn -0.085209 -0.985364 -0.147641
vn -0.145104 -0.987995 -0.053013
vn -0.861713 0.000000 -0.507396
vn -0.993310 0.000000 -0.115481
vn -0.145104 0.987995 -0.053012
vn -0.169482 0.985388 -0.016904
vn -0.050569 0.998666 -0.010448
vn 0.000000 1.000000 0.000000
vn 0.045371 -0.998927 -0.009305
vn 0.000000 -1.000000 -0.000000
vn 0.152054 -0.985586 -0.074155
vn 0.106763 -0.985830 -0.129387
vn 0.792467 0.000000 -0.609914
vn 0.421518 0.000001 -0.906820
vn 0.106763 0.985830 -0.129386
vn 0.075364 0.982975 -0.167575
vn 0.044912 0.998782 -0.020417
vn 0.000000 1.000000 0.000000
vn -0.050569 -0.998666 -0.010448
vn 0.000000 -1.000000 -0.000000
vn -0.169482 -0.985388 -0.016904
vn -0.171943 -0.984160 -0.043190
vn -0.983139 0.000000 -0.182859
vn -0.968339 0.000000 -0.249638
vn -0.171943 0.984160 -0.043190
vn -0.171943 0.984160 -0.043190
vn -0.050569 0.998666 -0.010448
vn 0.000000 1.000000 0.000000
vn 0.042466 -0.998741 0.026689
vn 0.000000 -1.000000 -0.000000
vn 0.156190 -0.987605 -0.015515
vn 0.153401 -0.986437 -0.058402
vn 0.949353 0.000000 -0.314213
vn 0.904248 0.000000 -0.427008
vn 0.153401 0.986437 -0.058402
vn 0.152054 0.985587 -0.074155
vn 0.045371 0.998927 -0.009305
vn 0.000000 1.000000 0.000000
vn -0.050569 -0.998666 -0.010448
vn 0.000000 -1.000000 -0.000000
vn -0.171943 -0.984160 -0.043190
vn -0.163145 -0.986583 0.006151
vn -0.999542 0.000000 -0.030274
vn -0.924411 -0.000000 0.381397
vn -0.163145 0.986583 0.006152
vn -0.138588 0.987576 0.074081
vn -0.036596 0.998974 0.026680
vn 0.000000 1.000000 0.000000
vn 0.042466 -0.998741 0.026689
vn 0.000000 -1.000000 -0.000000
vn 0.150145 -0.985464 0.079487
vn 0.154075 -0.986881 0.048234
vn 0.915111 -0.000000 0.403203
vn 0.999935 0.000000 -0.011414
vn 0.154075 0.986881 0.048235
vn 0.156190 0.987605 -0.015515
vn 0.042466 0.998741 0.026689
vn 0.000000 1.000000 0.000000
vn -0.036596 -0.998974 0.026680
vn 0.000000 -1.000000 -0.000000
vn -0.138588 -0.987576 0.074081
vn -0.108239 -0.987293 0.116345
vn -0.743531 -0.000000 0.668702
vn -0.572516 -0.000001 0.819894
vn -0.108239 0.987293 0.116345
vn -0.095191 0.985619 0.139619
vn -0.031371 0.998659 0.041181
vn 0.000000 1.000000 0.000000
vn 0.000000 -1.000000 -0.000000
vn 0.112463 -0.987167 0.113372
vn 0.146384 -0.987094 0.064935
vn 0.900281 -0.000000 0.435309
vn 0.915111 -0.000000 0.403203
vn 0.146384 0.987094 0.064935
vn 0.150145 0.985464 0.079487
vn 0.000000 1.000000 0.000000
vn 0.000000 -1.000000 -0.000000
vn -0.095191 -0.985619 0.139619
vn -0.051703 -0.984954 0.164903
vn -0.478262 -0.000001 0.878217
vn -0.182859 -0.000001 0.983139
vn -0.051703 0.984954 0.164903
vn -0.073853 0.982070 0.173450
vn 0.000000 1.000000 0.000000
vn -0.080465 -0.986942 -0.139538
vn 0.010028 -0.987325 -0.158393
vn -0.027056 -0.998743 -0.042193
vn -0.331786 0.000001 -0.943355
vn -0.665095 0.000000 -0.746759
vn -0.080465 0.986942 -0.139538
vn -0.115663 0.983321 -0.140367
vn -0.027056 0.998743 -0.042193
vn 0.000000 1.000000 0.000000
vn 0.153621 0.000001 -0.988130
vn 0.010028 0.987325 -0.158393
vn -0.027056 0.998743 -0.042193
vn -0.027056 -0.998743 -0.042193
vn 0.000000 -1.000000 -0.000000
vn 0.010028 -0.987325 -0.158393

g polygon0
s 1
usemtl mat1
f 1/1/1 2/2/2 3/3/3
f 1/1/1 4/4/4 2/2/2
f 5/5/5 4/4/4 1/1/1
f 5/5/5 6/6/6 4/4/4
f 7/7/7 6/6/6 5/5/5
f 7/7/7 8/8/8 6/6/6
f 9/9/9 8/8/8 7/7/7
f 9/9/9 10/10/10 8/8/8
f 11/11/11 10/10/10 9/9/9
f 11/11/11 12/12/12 10/10/10
f 13/13/13 1/1/1 14/14/14
f 13/13/13 15/15/15 1/1/1
f 16/16/16 15/15/15 13/13/13
f 16/16/16 17/17/17 15/15/15
f 18/18/18 17/17/17 16/16/16
f 18/18/18 19/19/19 17/17/17
f 20/20/20 19/19/19 18/18/18
f 20/20/20 11/11/11 19/19/19
f 21/21/21 11/11/11 20/20/20
f 21/21/21 22/22/22 11/11/11
f 2/2/2 23/23/23 24/24/24
f 2/2/2 25/25/25 23/23/23
f 26/26/26 25/25/25 2/2/2
f 26/26/26 27/27/27 25/25/25
f 28/28/28 27/27/27 26/26/26
f 28/28/28 29/29/29 27/27/27
f 30/30/30 29/29/29 28/28/28
f 30/30/30 31/31/31 29/29/29
f 10/10/10 31/31/31 30/30/30
f 10/10/10 32/32/32 31/31/31
f 33/33/33 34/34/34 35/35/35
f 33/33/33 36/36/36 34/34/34
f 37/37/37 36/36/36 33/33/33
f 37/37/37 38/38/38 36/36/36
f 39/39/39 38/38/38 37/37/37
f 39/39/39 40/40/40 38/38/38
f 41/41/41 40/40/40 39/39/39
f 41/41/41 42/42/42 40/40/40
f 43/43/43 42/42/42 41/41/41
f 43/43/43 44/44/44 42/42/42
f 45/45/45 46/46/46 47/47/47
f 45/45/45 48/48/48 46/46/46
f 49/49/49 48/48/48 45/45/45
f 49/49/49 50/50/50 48/48/48
f 51/51/51 50/50/50 49/49/49
f 51/51/51 52/52/52 50/50/50
f 53/53/53 52/52/52 51/51/51
f 53/53/53 54/54/54 52/52/52
f 55/55/55 54/54/54 53/53/53
f 55/55/55 56/56/56 54/54/54
f 34/34/34 57/57/57 58/58/58
f 34/34/34 59/59/59 57/57/57
f 60/60/60 59/59/59 34/34/34
f 60/60/60 61/61/61 59/59/59
f 62/62/62 61/61/61 60/60/60
f 62/62/62 63/63/63 61/61/61
f 64/64/64 63/63/63 62/62/62
f 64/64/64 65/65/65 63/63/63
f 42/42/42 65/65/65 64/64/64
f 42/42/42 66/66/66 65/65/65
f 67/67/67 45/45/45 68/68/68
f 67/67/67 69/69/69 45/45/45
f 70/70/70 69/69/69 67/67/67
f 70/70/70 71/71/71 69/69/69
f 72/72/72 71/71/71 70/70/70
f 72/72/72 73/73/73 71/71/71
f 74/74/74 73/73/73 72/72/72
f 74/74/74 55/55/55 73/73/73
f 75/75/75 55/55/55 74/74/74
f 75/75/75 76/76/76 55/55/55
f 57/57/57 77/77/77 78/78/78
f 57/57/57 79/79/79 77/77/77
f 80/80/80 79/79/79 57/57/57
f 80/80/80 81/81/81 79/79/79
f 82/82/82 81/81/81 80/80/80
f 82/82/82 83/83/83 81/81/81
f 84/84/84 83/83/83 82/82/82
f 84/84/84 85/85/85 83/83/83
f 65/65/65 85/85/85 84/84/84
f 65/65/65 86/86/86 85/85/85
f 87/87/87 67/67/67 88/88/88
f 87/87/87 89/89/89 67/67/67
f 90/90/90 89/89/89 87/87/87
f 90/90/90 91/91/91 89/89/89
f 92/92/92 91/91/91 90/90/90
f 92/92/92 93/93/93 91/91/91
f 94/94/94 93/93/93 92/92/92
f 94/94/94 75/75/75 93/93/93
f 95/95/95 75/75/75 94/94/94
f 95/95/95 96/96/96 75/75/75
f 77/77/77 97/97/97 98/98/98
f 77/77/77 99/99/99 97/97/97
f 100/100/100 99/99/99 77/77/77
f 100/100/100 101/101/101 99/99/99
f 102/102/102 101/101/101 100/100/100
f 102/102/102 103/103/103 101/101/101
f 104/104/104 103/103/103 102/102/102
f 104/104/104 105/105/105 103/103/103
f 85/85/85 105/105/105 104/104/104
f 85/85/85 106/106/106 105/105/105
f 107/107/107 87/87/87 108/108/108
f 107/107/107 109/109/109 87/87/87
f 110/110/110 109/109/109 107/107/107
f 110/110/110 111/111/111 109/109/109
f 112/112/112 111/111/111 110/110/110
f 112/112/112 113/113/113 111/111/111
f 114/114/114 113/113/113 112/112/112
f 114/114/114 95/95/95 113/113/113
f 115/115/115 95/95/95 114/114/114
f 115/115/115 116/116/116 95/95/95
f 97/97/97 117/117/117 118/118/118
f 97/97/97 119/119/119 117/117/117
f 120/120/120 119/119/119 97/97/97
f 120/120/120 121/121/121 119/119/119
f 122/122/122 121/121/121 120/120/120
f 122/122/122 123/123/123 121/121/121
f 124/124/124 123/123/123 122/122/122
f 124/124/124 125/125/125 123/123/123
f 105/105/105 125/125/125 124/124/124
f 105/105/105 126/126/126 125/125/125
f 127/127/127 107/107/107 128/128/128
f 127/127/127 129/129/129 107/107/107
f 130/130/130 129/129/129 127/127/127
f 130/130/130 131/131/131 129/129/129
f 132/132/132 131/131/131 130/130/130
f 132/132/132 133/133/133 131/131/131
f 134/134/134 133/133/133 132/132/132
f 134/134/134 115/115/115 133/133/133
f 135/135/135 115/115/115 134/134/134
f 135/135/135 136/136/136 115/115/115
f 117/117/117 13/13/13 137/137/137
f 117/117/117 138/138/138 13/13/13
f 139/139/139 138/138/138 117/117/117
f 139/139/139 140/140/140 138/138/138
f 141/141/141 140/140/140 139/139/139
f 141/141/141 142/142/142 140/140/140
f 143/143/143 142/142/142 141/141/141
f 143/143/143 21/21/21 142/142/142
f 125/125/125 21/21/21 143/143/143
f 125/125/125 144/144/144 21/21/21
f 23/23/23 127/127/127 145/145/145
f 23/23/23 146/146/146 127/127/127
f 147/147/147 146/146/146 23/23/23
f 147/147/147 148/148/148 146/146/146
f 149/149/149 148/148/148 147/147/147
f 149/149/149 150/150/150 148/148/148
f 151/151/151 150/150/150 149/149/149
f 151/151/151 135/135/135 150/150/150
f 31/31/31 135/135/135 151/151/151
f 31/31/31 152/152/152 135/135/135
f 153/153/153 154/154/154 155/155/155
f 153/153/153 156/156/156 154/154/154
f 157/157/157 156/156/156 153/153/153
f 157/157/157 158/158/158 156/156/156
f 159/159/159 158/158/158 157/157/157
f 159/159/159 160/160/160 158/158/158
f 54/54/54 160/160/160 159/159/159
f 54/54/54 161/161/161 160/160/160
f 15/15/15 5/5/5 1/1/1
f 15/15/15 7/7/7 5/5/5
f 17/17/17 7/7/7 15/15/15
f 17/17/17 9/9/9 7/7/7
f 19/19/19 9/9/9 17/17/17
f 19/19/19 11/11/11 9/9/9
f 138/138/138 16/16/16 13/13/13
f 138/138/138 18/18/18 16/16/16
f 140/140/140 18/18/18 138/138/138
f 140/140/140 20/20/20 18/18/18
f 142/142/142 20/20/20 140/140/140
f 142/142/142 21/21/21 20/20/20
f 4/4/4 26/26/26 2/2/2
f 4/4/4 28/28/28 26/26/26
f 6/6/6 28/28/28 4/4/4
f 6/6/6 30/30/30 28/28/28
f 8/8/8 30/30/30 6/6/6
f 8/8/8 10/10/10 30/30/30
f 119/119/119 139/139/139 117/117/117
f 119/119/119 141/141/141 139/139/139
f 121/121/121 141/141/141 119/119/119
f 121/121/121 143/143/143 141/141/141
f 123/123/123 143/143/143 121/121/121
f 123/123/123 125/125/125 143/143/143
f 25/25/25 147/147/147 23/23/23
f 25/25/25 149/149/149 147/147/147
f 27/27/27 149/149/149 25/25/25
f 27/27/27 151/151/151 149/149/149
f 29/29/29 151/151/151 27/27/27
f 29/29/29 31/31/31 151/151/151
f 99/99/99 120/120/120 97/97/97
f 99/99/99 122/122/122 120/120/120
f 101/101/101 122/122/122 99/99/99
f 101/101/101 124/124/124 122/122/122
f 103/103/103 124/124/124 101/101/101
f 103/103/103 105/105/105 124/124/124
f 146/146/146 130/130/130 127/127/127
f 146/146/146 132/132/132 130/130/130
f 148/148/148 132/132/132 146/146/146
f 148/148/148 134/134/134 132/132/132
f 150/150/150 134/134/134 148/148/148
f 150/150/150 135/135/135 134/134/134
f 79/79/79 100/100/100 77/77/77
f 79/79/79 102/102/102 100/100/100
f 81/81/81 102/102/102 79/79/79
f 81/81/81 104/104/104 102/102/102
f 83/83/83 104/104/104 81/81/81
f 83/83/83 85/85/85 104/104/104
f 129/129/129 110/110/110 107/107/107
f 129/129/129 112/112/112 110/110/110
f 131/131/131 112/112/112 129/129/129
f 131/131/131 114/114/114 112/112/112
f 133/133/133 114/114/114 131/131/131
f 133/133/133 115/115/115 114/114/114
f 59/59/59 80/80/80 57/57/57
f 59/59/59 82/82/82 80/80/80
f 61/61/61 82/82/82 59/59/59
f 61/61/61 84/84/84 82/82/82
f 63/63/63 84/84/84 61/61/61
f 63/63/63 65/65/65 84/84/84
f 109/109/109 90/90/90 87/87/87
f 109/109/109 92/92/92 90/90/90
f 111/111/111 92/92/92 109/109/109
f 111/111/111 94/94/94 92/92/92
f 113/113/113 94/94/94 111/111/111
f 113/113/113 95/95/95 94/94/94
f 36/36/36 60/60/60 34/34/34
f 36/36/36 62/62/62 60/60/60
f 38/38/38 62/62/62 36/36/36
f 38/38/38 64/64/64 62/62/62
f 40/40/40 64/64/64 38/38/38
f 40/40/40 42/42/42 64/64/64
f 89/89/89 70/70/70 67/67/67
f 89/89/89 72/72/72 70/70/70
f 91/91/91 72/72/72 89/89/89
f 91/91/91 74/74/74 72/72/72
f 93/93/93 74/74/74 91/91/91
f 93/93/93 75/75/75 74/74/74
f 69/69/69 49/49/49 45/45/45
f 69/69/69 51/51/51 49/49/49
f 71/71/71 51/51/51 69/69/69
f 71/71/71 53/53/53 51/51/51
f 73/73/73 53/53/53 71/71/71
f 73/73/73 55/55/55 53/53/53
f 48/48/48 153/153/153 46/46/46
f 48/48/48 157/157/157 153/153/153
f 50/50/50 157/157/157 48/48/48
f 50/50/50 159/159/159 157/157/157
f 52/52/52 159/159/159 50/50/50
f 52/52/52 54/54/54 159/159/159
f 156/156/156 162/162/162 154/154/154
f 156/156/156 163/163/163 162/162/162
f 158/158/158 163/163/163 156/156/156
f 158/158/158 164/164/164 163/163/163
f 165/165/165 33/33/33 166/166/166
f 165/165/165 167/167/167 33/33/33
f 37/37/37 167/167/167 39/39/39
f 37/37/37 33/33/33 167/167/167

