mtllib EffCommonWhirlwindL.mtl

v 0.634033 0.000001 -3.187500
v 1.645020 2.178712 -2.891845
v 1.243652 0.000001 -3.002686
v 2.149902 6.799806 -3.046873
v 0.000000 0.000001 -3.250000
v 0.594238 3.227540 -3.255858
v -0.634033 0.000001 -3.187500
v 0.867188 7.770509 -3.691160
v -1.243652 0.000001 -3.002686
v 0.807129 11.347657 -4.257321
v -1.805664 0.000001 -2.702393
v -0.857178 6.076173 -3.536131
v -2.298096 0.000001 -2.298096
v -0.664795 12.750001 -4.436032
v -2.702393 -0.000000 1.805664
v -2.871582 2.030273 1.546631
v -3.002686 -0.000000 1.243652
v -2.298096 -0.000001 2.298096
v -2.952637 4.185546 1.858400
v -1.805664 -0.000001 2.702393
v -2.231934 2.679687 2.537110
v -1.243652 -0.000001 3.002686
v -2.807373 7.017578 2.628176
v -0.634033 -0.000001 3.187500
v -1.665283 4.793944 3.070558
v 0.000000 -0.000001 3.250000
v -0.524902 2.925780 3.245362
v 0.634033 -0.000001 3.187500
v -0.929199 8.056640 3.714358
v 1.243652 -0.000001 3.002686
v -0.496094 9.735351 4.066164
v 1.805664 -0.000001 2.702393
v 1.218018 3.933593 3.212159
v 2.298096 -0.000001 2.298096
v 0.974609 10.295897 4.011233
v 2.702393 -0.000000 1.805664
v 2.156494 6.356444 2.902101
v 3.002686 -0.000000 1.243652
v 2.553711 12.749999 3.758548
v 1.243652 0.000001 -3.002686
v 1.645020 2.178712 -2.891845
v 1.805664 0.000001 -2.702393

vt 9.687500 0.000000
vt 10.000000 1.000000
vt 10.000000 0.000000
vt 9.687500 1.000000
vt 9.375000 0.000000
vt 9.375000 1.000000
vt 9.062500 0.000000
vt 9.062500 1.000000
vt 8.750000 0.000000
vt 8.750000 1.000000
vt 8.437500 0.000000
vt 8.437500 1.000000
vt 8.125000 0.000000
vt 8.125000 1.000000
vt 6.562500 0.000000
vt 6.562500 1.000000
vt 6.875000 0.500000
vt 6.250000 0.000000
vt 6.250000 1.000000
vt 5.937500 0.000000
vt 5.937500 1.000000
vt 5.625000 0.000000
vt 5.625000 1.000000
vt 5.312500 0.000000
vt 5.312500 1.000000
vt 5.000000 0.000000
vt 5.000000 1.000000
vt 4.687500 0.000000
vt 4.687500 1.000000
vt 4.375000 0.000000
vt 4.375000 1.000000
vt 4.062500 0.000000
vt 4.062500 1.000000
vt 3.750000 0.000000
vt 3.750000 1.000000
vt 3.437500 0.000000
vt 3.437500 1.000000
vt 3.125000 0.000000
vt 3.125000 1.000000
vt 0.000000 0.000000
vt 0.000000 1.000000
vt 0.312500 0.500000

vn 0.157016 -0.805701 -0.571132
vn 0.162930 -0.921239 -0.353232
vn 0.301771 -0.685614 -0.662471
vn 0.132594 -0.852240 -0.506069
vn 0.089589 -0.419049 -0.903533
vn 0.058914 -0.931990 -0.357663
vn -0.022780 -0.876190 -0.481427
vn 0.021328 -0.972153 -0.233374
vn -0.049656 -0.943856 -0.326603
vn -0.017142 -0.973208 -0.229286
vn -0.158471 -0.906135 -0.392181
vn -0.069783 -0.972870 -0.220578
vn -0.114008 -0.961927 -0.248392
vn -0.063364 -0.979429 -0.191583
vn -0.807217 0.367560 0.461845
vn -0.374223 -0.906238 0.196699
vn -0.915252 0.161565 0.369067
vn -0.393275 -0.863942 0.314546
vn -0.276173 -0.935234 0.221508
vn -0.335431 -0.852648 0.400596
vn -0.192484 -0.954002 0.229849
vn -0.209305 -0.888284 0.408832
vn -0.167409 -0.934180 0.315089
vn -0.183582 -0.809656 0.557453
vn -0.143134 -0.875758 0.461044
vn -0.082937 -0.224024 0.971048
vn -0.055813 -0.931675 0.358979
vn 0.024855 -0.876981 0.479883
vn -0.017909 -0.969157 0.245791
vn 0.054093 -0.938318 0.341515
vn 0.026283 -0.968197 0.248806
vn 0.221109 -0.846998 0.483430
vn 0.106929 -0.960613 0.256495
vn 0.290106 -0.881144 0.373394
vn 0.177591 -0.948662 0.261729
vn 0.327575 -0.885593 0.329271
vn 0.130759 -0.976112 0.173514
vn 0.148296 -0.974702 0.167226
vn 0.090111 -0.986235 0.138636
vn 0.301771 -0.685614 -0.662471
vn 0.162930 -0.921239 -0.353232
vn 0.278671 -0.836406 -0.471983

g polygon0
s 1
usemtl mat2
f 1/1/1 2/2/2 3/3/3
f 1/1/1 4/4/4 2/2/2
f 5/5/5 4/4/4 1/1/1
f 5/5/5 6/6/6 4/4/4
f 7/7/7 6/6/6 5/5/5
f 7/7/7 8/8/8 6/6/6
f 9/9/9 8/8/8 7/7/7
f 9/9/9 10/10/10 8/8/8
f 11/11/11 10/10/10 9/9/9
f 11/11/11 12/12/12 10/10/10
f 13/13/13 12/12/12 11/11/11
f 13/13/13 14/14/14 12/12/12
f 15/15/15 16/16/16 17/17/17
f 15/15/15 18/18/18 16/16/16
f 18/18/18 19/19/19 16/16/16
f 18/18/18 20/20/20 19/19/19
f 20/20/20 21/21/21 19/19/19
f 20/20/20 22/22/22 21/21/21
f 22/22/22 23/23/23 21/21/21
f 22/22/22 24/24/24 23/23/23
f 24/24/24 25/25/25 23/23/23
f 24/24/24 26/26/26 25/25/25
f 26/26/26 27/27/27 25/25/25
f 26/26/26 28/28/28 27/27/27
f 28/28/28 29/29/29 27/27/27
f 28/28/28 30/30/30 29/29/29
f 30/30/30 31/31/31 29/29/29
f 30/30/30 32/32/32 31/31/31
f 32/32/32 33/33/33 31/31/31
f 32/32/32 34/34/34 33/33/33
f 34/34/34 35/35/35 33/33/33
f 34/34/34 36/36/36 35/35/35
f 36/36/36 37/37/37 35/35/35
f 36/36/36 38/38/38 37/37/37
f 38/38/38 39/39/39 37/37/37
f 40/40/40 41/41/41 42/42/42

v 7.206055 -0.000000 1.521484
v 6.496582 1.583983 3.947754
v 6.762207 -0.000001 2.984863
v 6.869141 3.865233 5.160157
v 7.355957 0.000000 0.000000
v 7.370117 2.101562 1.426270
v 7.206055 0.000000 -1.521484
v 8.415039 4.343750 2.081056
v 6.762207 0.000001 -2.984863
v 9.773926 6.107421 1.937013
v 6.041504 0.000001 -4.333496
v 8.042969 3.507813 -2.057128
v 5.071777 0.000001 -5.515625
v 10.202637 6.800782 -1.595701
v -4.777344 0.000002 -6.485352
v -4.156250 1.511721 -6.892089
v -3.428711 0.000002 -7.206055
v -5.959473 0.000001 -5.515625
v -4.903809 2.574221 -7.085937
v -6.929199 0.000001 -4.333496
v -6.532715 1.832033 -5.356445
v -7.649902 0.000001 -2.984863
v -6.751465 3.972658 -6.737792
v -8.093750 0.000000 -1.521484
v -7.813477 2.875001 -3.996581
v -8.243652 0.000000 0.000000
v -8.232910 1.953125 -1.259765
v -8.093750 -0.000000 1.521484
v -9.358398 4.484375 -2.230468
v -7.649902 -0.000001 2.984863
v -10.202637 5.312500 -1.190917
v -6.929199 -0.000001 4.333496
v -8.153320 2.451171 2.923341
v -5.959473 -0.000001 5.515625
v -10.071289 5.589843 2.338869
v -4.777344 -0.000002 6.485352
v -7.409180 3.646483 5.175294
v -3.428711 -0.000002 7.206055
v -9.464844 6.800780 6.128908
v 6.762207 -0.000001 2.984863
v 6.496582 1.583983 3.947754
v 6.041504 -0.000001 4.333496

vt 9.687500 0.000000
vt 10.000000 1.000000
vt 10.000000 0.000000
vt 9.687500 1.000000
vt 9.375000 0.000000
vt 9.375000 1.000000
vt 9.062500 0.000000
vt 9.062500 1.000000
vt 8.750000 0.000000
vt 8.750000 1.000000
vt 8.437500 0.000000
vt 8.437500 1.000000
vt 8.125000 0.000000
vt 8.125000 1.000000
vt 6.562500 0.000000
vt 6.562500 1.000000
vt 6.875000 0.500000
vt 6.250000 0.000000
vt 6.250000 1.000000
vt 5.937500 0.000000
vt 5.937500 1.000000
vt 5.625000 0.000000
vt 5.625000 1.000000
vt 5.312500 0.000000
vt 5.312500 1.000000
vt 5.000000 0.000000
vt 5.000000 1.000000
vt 4.687500 0.000000
vt 4.687500 1.000000
vt 4.375000 0.000000
vt 4.375000 1.000000
vt 4.062500 0.000000
vt 4.062500 1.000000
vt 3.750000 0.000000
vt 3.750000 1.000000
vt 3.437500 0.000000
vt 3.437500 1.000000
vt 3.125000 0.000000
vt 3.125000 1.000000
vt 0.000000 0.000000
vt 0.000000 1.000000
vt 0.312500 0.500000

vn 0.229809 -0.970862 0.067928
vn 0.123641 -0.990173 0.065352
vn 0.401839 -0.895971 0.189109
vn 0.207720 -0.976687 0.054172
vn 0.657010 -0.751395 0.061178
vn 0.141173 -0.989628 0.026593
vn 0.181170 -0.983439 -0.005071
vn 0.075539 -0.997090 0.010309
vn 0.113064 -0.993465 -0.015649
vn 0.081173 -0.996674 -0.007169
vn 0.156997 -0.985357 -0.066504
vn 0.078218 -0.996670 -0.023027
vn 0.081459 -0.996135 -0.032848
vn 0.058790 -0.998182 -0.013288
vn -0.382818 0.627135 -0.678345
vn -0.077887 -0.984018 -0.160129
vn -0.358119 0.304877 -0.882497
vn -0.132954 -0.976149 -0.171630
vn -0.091368 -0.989314 -0.113623
vn -0.193242 -0.968227 -0.158723
vn -0.083552 -0.993559 -0.076553
vn -0.149923 -0.985344 -0.081362
vn -0.115381 -0.991367 -0.062277
vn -0.252737 -0.964113 -0.081306
vn -0.213878 -0.974885 -0.062084
vn -0.871400 -0.485320 -0.071602
vn -0.136211 -0.990334 -0.026172
vn -0.178502 -0.983925 0.005306
vn -0.080992 -0.996677 -0.008720
vn -0.121915 -0.992368 0.018515
vn -0.092754 -0.995611 0.012432
vn -0.216346 -0.970788 0.103757
vn -0.096730 -0.994600 0.037610
vn -0.136005 -0.985532 0.101141
vn -0.092131 -0.993821 0.061902
vn -0.131803 -0.982171 0.134049
vn -0.061628 -0.997119 0.044213
vn -0.056623 -0.997374 0.045149
vn -0.045529 -0.998691 0.023301
vn 0.401839 -0.895971 0.189109
vn 0.123641 -0.990173 0.065352
vn 0.254640 -0.954346 0.156148

g polygon1
s 1
usemtl mat1
f 43/43/43 44/44/44 45/45/45
f 43/43/43 46/46/46 44/44/44
f 47/47/47 46/46/46 43/43/43
f 47/47/47 48/48/48 46/46/46
f 49/49/49 48/48/48 47/47/47
f 49/49/49 50/50/50 48/48/48
f 51/51/51 50/50/50 49/49/49
f 51/51/51 52/52/52 50/50/50
f 53/53/53 52/52/52 51/51/51
f 53/53/53 54/54/54 52/52/52
f 55/55/55 54/54/54 53/53/53
f 55/55/55 56/56/56 54/54/54
f 57/57/57 58/58/58 59/59/59
f 57/57/57 60/60/60 58/58/58
f 60/60/60 61/61/61 58/58/58
f 60/60/60 62/62/62 61/61/61
f 62/62/62 63/63/63 61/61/61
f 62/62/62 64/64/64 63/63/63
f 64/64/64 65/65/65 63/63/63
f 64/64/64 66/66/66 65/65/65
f 66/66/66 67/67/67 65/65/65
f 66/66/66 68/68/68 67/67/67
f 68/68/68 69/69/69 67/67/67
f 68/68/68 70/70/70 69/69/69
f 70/70/70 71/71/71 69/69/69
f 70/70/70 72/72/72 71/71/71
f 72/72/72 73/73/73 71/71/71
f 72/72/72 74/74/74 73/73/73
f 74/74/74 75/75/75 73/73/73
f 74/74/74 76/76/76 75/75/75
f 76/76/76 77/77/77 75/75/75
f 76/76/76 78/78/78 77/77/77
f 78/78/78 79/79/79 77/77/77
f 78/78/78 80/80/80 79/79/79
f 80/80/80 81/81/81 79/79/79
f 82/82/82 83/83/83 84/84/84

v 11.000000 0.499997 11.000000
v -11.000000 0.500003 -11.000000
v -11.000000 0.499997 11.000000
v 11.000000 0.500003 -11.000000

vt 1.000000 0.000000
vt 0.000000 1.000000
vt 0.000000 0.000000
vt 1.000000 1.000000

vn 0.000000 1.000000 0.000000
vn 0.000000 1.000000 0.000000
vn 0.000000 1.000000 0.000000
vn 0.000000 1.000000 0.000000

g polygon2
s 1
usemtl mat3
f 85/85/85 86/86/86 87/87/87
f 85/85/85 88/88/88 86/86/86

