mtllib EffCommonSpinWindS.mtl

v -8.803524 -2.734373 1.871142
v -11.853579 0.000003 0.413943
v -8.994308 -2.860838 0.314104
v -11.477801 0.000003 2.439762
v -8.344801 -2.583982 3.371483
v -10.740728 0.000002 4.339618
v -7.632539 -2.456542 4.769377
v -9.715872 0.000002 6.071141
v -6.688367 -2.311522 6.022370
v -8.406049 0.000001 7.568727
v -5.540838 -2.154784 7.091922
v -6.867936 0.000001 8.790343
v -4.225395 -1.928222 7.946492
v -5.130298 0.000000 9.649119
v -2.781153 -1.725098 8.559508
v -3.314238 0.000000 10.200174
v -1.252415 -1.538086 8.912472
v -1.466449 -0.000000 10.435523
v 0.314104 -1.363770 8.994308
v 0.361511 -0.000001 10.357410
v 1.871142 -1.187989 8.803523
v 2.118377 -0.000001 9.965609
v 3.371483 -1.074709 8.344801
v 3.774189 -0.000002 9.341256
v 4.769377 -0.983889 7.632538
v 5.290986 -0.000002 8.466884
v 6.022370 -0.855471 6.688367
v 6.594663 -0.000002 7.324062
v 7.091922 -0.649416 5.540837
v 7.604211 -0.000002 5.940892
v 7.946492 -0.409182 4.225395
v 8.307729 -0.000002 4.417212
v 8.559509 -0.097170 2.781153
v 8.651921 -0.000002 2.811180
v -8.994308 2.860842 0.314105
v -8.803523 2.734377 1.871142
v -8.344800 2.583986 3.371484
v -7.632537 2.456544 4.769378
v -6.688366 2.311525 6.022371
v -5.540837 2.154786 7.091922
v -4.225394 1.928223 7.946492
v -2.781152 1.725098 8.559509
v -1.252414 1.538086 8.912472
v 0.314105 1.363769 8.994308
v 1.871142 1.187987 8.803524
v 3.371484 1.074705 8.344801
v 4.769378 0.983885 7.632538
v 6.022371 0.855467 6.688367
v 7.091922 0.649412 5.540837
v 7.946492 0.409177 4.225395
v 8.559509 0.097166 2.781153
v -6.135501 0.000002 0.214115
v -6.128781 0.000001 1.302672
v -5.948409 0.000001 2.403500
v -5.549204 0.000001 3.467614
v -4.970535 0.000001 4.475550
v -4.214354 0.000001 5.393814
v -3.320028 0.000000 6.244014
v -2.248069 0.000000 6.918843
v -1.038380 -0.000000 7.389420
v 0.266547 -0.000001 7.631670
v 1.624058 -0.000001 7.640975
v 2.968928 -0.000001 7.347881
v 4.247920 -0.000002 6.797728
v 5.449614 -0.000002 6.052521
v 6.580097 -0.000002 5.140934
v 7.585405 -0.000002 4.033113
v 8.467096 -0.000002 2.751127

vt -0.000610 0.066528
vt 0.621582 0.004333
vt -0.000610 0.004333
vt 0.621582 0.066528
vt -0.000610 0.128784
vt 0.621582 0.128784
vt -0.000610 0.190979
vt 0.621582 0.190979
vt -0.000610 0.253235
vt 0.621582 0.253235
vt -0.000610 0.315430
vt 0.621582 0.315430
vt -0.000610 0.377625
vt 0.621582 0.377625
vt -0.000610 0.439880
vt 0.621582 0.439880
vt -0.000610 0.502075
vt 0.621582 0.502075
vt -0.000610 0.564331
vt 0.621582 0.564331
vt -0.000610 0.626526
vt 0.621582 0.626526
vt -0.000610 0.688782
vt 0.621582 0.688782
vt -0.000610 0.750977
vt 0.621582 0.750977
vt -0.000610 0.813232
vt 0.621582 0.813232
vt -0.000610 0.875427
vt 0.621582 0.875427
vt -0.000610 0.937622
vt 0.621582 0.937622
vt -0.000610 0.999878
vt 0.621582 0.999878
vt 1.372498 0.004333
vt 1.374817 0.066528
vt 1.374817 0.128784
vt 1.374817 0.190979
vt 1.374817 0.253235
vt 1.374817 0.315430
vt 1.374817 0.377625
vt 1.374817 0.439880
vt 1.374817 0.502075
vt 1.374817 0.564331
vt 1.374817 0.626526
vt 1.374817 0.688782
vt 1.374817 0.750977
vt 1.374817 0.813232
vt 1.374817 0.875427
vt 1.374817 0.937622
vt 1.374817 0.999878
vt 0.622131 0.004333
vt 0.622131 0.066528
vt 0.622131 0.128784
vt 0.622131 0.190979
vt 0.622131 0.253235
vt 0.622131 0.315430
vt 0.622131 0.377625
vt 0.622131 0.439880
vt 0.622131 0.502075
vt 0.622131 0.564331
vt 0.622131 0.626526
vt 0.622131 0.688782
vt 0.622131 0.750977
vt 0.622131 0.813232
vt 0.622131 0.875427
vt 0.622131 0.937622
vt 0.622131 0.999878

vn -0.042274 -0.998890 -0.020795
vn -0.948265 -0.295359 0.116430
vn 0.292905 -0.955466 -0.035944
vn -0.978148 0.000000 0.207910
vn -0.046806 -0.998891 -0.005068
vn -0.927193 0.000000 0.374583
vn -0.046806 -0.998891 -0.005068
vn -0.848035 0.000000 0.529941
vn -0.045737 -0.998891 0.011194
vn -0.743144 0.000000 0.669132
vn -0.045737 -0.998891 0.011194
vn -0.615676 0.000000 0.788000
vn -0.039118 -0.998892 0.026180
vn -0.469470 0.000000 0.882949
vn -0.039118 -0.998892 0.026180
vn -0.309017 0.000000 0.951057
vn -0.027815 -0.998890 0.038003
vn -0.139175 -0.000000 0.990268
vn -0.027815 -0.998890 0.038003
vn 0.034918 -0.000000 0.999390
vn -0.013149 -0.998891 0.045207
vn 0.207910 -0.000000 0.978148
vn -0.013149 -0.998891 0.045207
vn 0.374583 -0.000000 0.927193
vn 0.003097 -0.998892 0.046956
vn 0.529941 -0.000000 0.848035
vn 0.003097 -0.998892 0.046956
vn 0.669132 -0.000000 0.743144
vn 0.018991 -0.998891 0.043072
vn 0.788000 -0.000000 0.615676
vn 0.018991 -0.998891 0.043072
vn 0.882949 -0.000000 0.469470
vn 0.310634 -0.941339 0.131864
vn 0.879443 0.295358 0.373287
vn -0.334952 0.941336 0.041146
vn -0.030106 0.998892 0.036168
vn -0.015934 0.998891 0.044302
vn -0.015934 0.998891 0.044302
vn 0.000165 0.998890 0.047094
vn 0.000165 0.998890 0.047094
vn 0.016259 0.998892 0.044173
vn 0.016259 0.998892 0.044173
vn 0.030422 0.998891 0.035940
vn 0.030422 0.998891 0.035940
vn 0.040846 0.998891 0.023411
vn 0.040846 0.998891 0.023411
vn 0.046423 0.998890 0.008024
vn 0.046423 0.998890 0.008024
vn 0.046357 0.998890 -0.008362
vn 0.046357 0.998890 -0.008362
vn -0.271680 0.955457 -0.115293
vn 0.934275 0.337587 -0.114738
vn 0.978148 -0.000000 -0.207910
vn 0.927193 -0.000000 -0.374583
vn 0.848035 -0.000000 -0.529941
vn 0.743144 -0.000000 -0.669132
vn 0.615676 -0.000000 -0.788000
vn 0.469470 -0.000000 -0.882949
vn 0.309017 0.000000 -0.951057
vn 0.139175 0.000000 -0.990268
vn -0.034918 0.000000 -0.999390
vn -0.207910 0.000000 -0.978148
vn -0.374583 0.000000 -0.927193
vn -0.529941 0.000000 -0.848035
vn -0.669132 0.000000 -0.743144
vn -0.788000 0.000000 -0.615676
vn -0.882949 0.000000 -0.469470
vn -0.866474 -0.337576 -0.367785

g polygon0
s 1
usemtl mat1
f 1/1/1 2/2/2 3/3/3
f 1/1/1 4/4/4 2/2/2
f 5/5/5 4/4/4 1/1/1
f 5/5/5 6/6/6 4/4/4
f 7/7/7 6/6/6 5/5/5
f 7/7/7 8/8/8 6/6/6
f 9/9/9 8/8/8 7/7/7
f 9/9/9 10/10/10 8/8/8
f 11/11/11 10/10/10 9/9/9
f 11/11/11 12/12/12 10/10/10
f 13/13/13 12/12/12 11/11/11
f 13/13/13 14/14/14 12/12/12
f 15/15/15 14/14/14 13/13/13
f 15/15/15 16/16/16 14/14/14
f 17/17/17 16/16/16 15/15/15
f 17/17/17 18/18/18 16/16/16
f 19/19/19 18/18/18 17/17/17
f 19/19/19 20/20/20 18/18/18
f 21/21/21 20/20/20 19/19/19
f 21/21/21 22/22/22 20/20/20
f 23/23/23 22/22/22 21/21/21
f 23/23/23 24/24/24 22/22/22
f 25/25/25 24/24/24 23/23/23
f 25/25/25 26/26/26 24/24/24
f 27/27/27 26/26/26 25/25/25
f 27/27/27 28/28/28 26/26/26
f 29/29/29 28/28/28 27/27/27
f 29/29/29 30/30/30 28/28/28
f 31/31/31 30/30/30 29/29/29
f 31/31/31 32/32/32 30/30/30
f 33/33/33 32/32/32 31/31/31
f 33/33/33 34/34/34 32/32/32
f 4/4/4 35/35/35 2/2/2
f 4/4/4 36/36/36 35/35/35
f 6/6/6 36/36/36 4/4/4
f 6/6/6 37/37/37 36/36/36
f 8/8/8 37/37/37 6/6/6
f 8/8/8 38/38/38 37/37/37
f 10/10/10 38/38/38 8/8/8
f 10/10/10 39/39/39 38/38/38
f 12/12/12 39/39/39 10/10/10
f 12/12/12 40/40/40 39/39/39
f 14/14/14 40/40/40 12/12/12
f 14/14/14 41/41/41 40/40/40
f 16/16/16 41/41/41 14/14/14
f 16/16/16 42/42/42 41/41/41
f 18/18/18 42/42/42 16/16/16
f 18/18/18 43/43/43 42/42/42
f 20/20/20 43/43/43 18/18/18
f 20/20/20 44/44/44 43/43/43
f 22/22/22 44/44/44 20/20/20
f 22/22/22 45/45/45 44/44/44
f 24/24/24 45/45/45 22/22/22
f 24/24/24 46/46/46 45/45/45
f 26/26/26 46/46/46 24/24/24
f 26/26/26 47/47/47 46/46/46
f 28/28/28 47/47/47 26/26/26
f 28/28/28 48/48/48 47/47/47
f 30/30/30 48/48/48 28/28/28
f 30/30/30 49/49/49 48/48/48
f 32/32/32 49/49/49 30/30/30
f 32/32/32 50/50/50 49/49/49
f 34/34/34 50/50/50 32/32/32
f 34/34/34 51/51/51 50/50/50
f 36/36/36 52/52/52 35/35/35
f 36/36/36 53/53/53 52/52/52
f 37/37/37 53/53/53 36/36/36
f 37/37/37 54/54/54 53/53/53
f 38/38/38 54/54/54 37/37/37
f 38/38/38 55/55/55 54/54/54
f 39/39/39 55/55/55 38/38/38
f 39/39/39 56/56/56 55/55/55
f 40/40/40 56/56/56 39/39/39
f 40/40/40 57/57/57 56/56/56
f 41/41/41 57/57/57 40/40/40
f 41/41/41 58/58/58 57/57/57
f 42/42/42 58/58/58 41/41/41
f 42/42/42 59/59/59 58/58/58
f 43/43/43 59/59/59 42/42/42
f 43/43/43 60/60/60 59/59/59
f 44/44/44 60/60/60 43/43/43
f 44/44/44 61/61/61 60/60/60
f 45/45/45 61/61/61 44/44/44
f 45/45/45 62/62/62 61/61/61
f 46/46/46 62/62/62 45/45/45
f 46/46/46 63/63/63 62/62/62
f 47/47/47 63/63/63 46/46/46
f 47/47/47 64/64/64 63/63/63
f 48/48/48 64/64/64 47/47/47
f 48/48/48 65/65/65 64/64/64
f 49/49/49 65/65/65 48/48/48
f 49/49/49 66/66/66 65/65/65
f 50/50/50 66/66/66 49/49/49
f 50/50/50 67/67/67 66/66/66
f 51/51/51 67/67/67 50/50/50
f 51/51/51 68/68/68 67/67/67
f 53/53/53 3/3/3 52/52/52
f 53/53/53 1/1/1 3/3/3
f 54/54/54 1/1/1 53/53/53
f 54/54/54 5/5/5 1/1/1
f 55/55/55 5/5/5 54/54/54
f 55/55/55 7/7/7 5/5/5
f 56/56/56 7/7/7 55/55/55
f 56/56/56 9/9/9 7/7/7
f 57/57/57 9/9/9 56/56/56
f 57/57/57 11/11/11 9/9/9
f 58/58/58 11/11/11 57/57/57
f 58/58/58 13/13/13 11/11/11
f 59/59/59 13/13/13 58/58/58
f 59/59/59 15/15/15 13/13/13
f 60/60/60 15/15/15 59/59/59
f 60/60/60 17/17/17 15/15/15
f 61/61/61 17/17/17 60/60/60
f 61/61/61 19/19/19 17/17/17
f 62/62/62 19/19/19 61/61/61
f 62/62/62 21/21/21 19/19/19
f 63/63/63 21/21/21 62/62/62
f 63/63/63 23/23/23 21/21/21
f 64/64/64 23/23/23 63/63/63
f 64/64/64 25/25/25 23/23/23
f 65/65/65 25/25/25 64/64/64
f 65/65/65 27/27/27 25/25/25
f 66/66/66 27/27/27 65/65/65
f 66/66/66 29/29/29 27/27/27
f 67/67/67 29/29/29 66/66/66
f 67/67/67 31/31/31 29/29/29
f 68/68/68 31/31/31 67/67/67
f 68/68/68 33/33/33 31/31/31

