mtllib EffCommonAttackSmoke.mtl

v -2.148926 2.223633 -5.369140
v -8.102051 11.797856 -22.852047
v -7.177734 10.354984 -18.800291
v -5.970703 8.371586 -18.211424
v -1.702148 1.245117 -4.641113
v -6.197754 8.733403 -21.502928
v -4.352051 5.497561 -16.600096
v -1.242188 -0.023438 -4.355469
v -5.774414 8.030279 -27.511717
v -3.076172 2.885745 -16.405273
v -1.775391 0.692872 -7.497559
v -3.323730 3.405767 -25.182617
v -2.383301 1.270022 -15.461914
v 2.563477 3.060059 -7.337890
v 7.653809 11.273442 -22.578121
v 6.495117 8.879886 -17.294432
v 4.984863 6.130374 -15.855955
v 0.678223 0.442382 -3.803223
v 5.334961 7.396000 -19.869627
v 4.108887 4.517581 -15.374022
v 0.867188 0.348633 -4.271973
v 5.878418 8.526860 -25.005369
v 3.449707 3.747074 -18.521971
v 1.524902 0.703126 -7.093262
v 3.944824 4.999518 -29.808592
v 2.591309 1.672855 -16.493164
v -1.838379 1.825195 -4.242675
v -10.166016 14.983891 -24.215816
v -1.740234 1.078125 -5.521484
v -1.429688 -0.004394 -6.163086
v -1.896973 0.002936 -28.069824
v 1.431152 2.099121 -4.061035
v 10.031250 14.592778 -23.445309
v 1.885254 1.618653 -7.059570
v 1.048828 0.062988 -5.663574
v 1.609863 0.068854 -28.069824

vt 0.147156 1.000000
vt 0.169678 0.000000
vt 0.073181 0.000000
vt 0.242371 0.000000
vt 0.325500 1.000000
vt 0.339966 0.000000
vt 0.493958 0.000000
vt 0.662781 1.000000
vt 0.624756 0.000000
vt 0.732605 0.000000
vt 0.828674 1.000000
vt 0.809692 0.000000
vt 0.921570 0.000000
vt 0.827881 1.000000
vt 0.805359 0.000000
vt 0.901855 0.000000
vt 0.732666 0.000000
vt 0.649536 1.000000
vt 0.635071 0.000000
vt 0.481140 0.000000
vt 0.312317 1.000000
vt 0.350281 0.000000
vt 0.242493 0.000000
vt 0.146362 1.000000
vt 0.165405 0.000000
vt 0.053467 0.000000
vt -0.022461 1.000000
vt -0.023621 0.000000
vt 0.497986 1.000000
vt 0.975220 1.000000
vt 0.976379 0.000000
vt 0.997498 1.000000
vt 0.998657 0.000000
vt 0.477051 1.000000
vt -0.000183 1.000000
vt -0.001343 0.000000

vn 0.987989 0.144777 -0.054017
vn 0.987960 0.150388 -0.036315
vn 0.991713 0.049561 -0.118532
vn 0.985408 0.163818 -0.046203
vn 0.985408 0.163818 -0.046203
vn 0.987989 0.144777 -0.054017
vn 0.966118 0.257811 -0.012207
vn 0.983196 0.181210 -0.022094
vn 0.983196 0.181210 -0.022094
vn 0.994920 0.058105 -0.082213
vn 0.987960 0.150388 -0.036315
vn 0.983196 0.181210 -0.022094
vn 0.966848 0.253110 -0.033752
vn 0.983891 -0.162659 0.074158
vn 0.990742 -0.124148 0.054933
vn 0.983116 0.018860 0.182011
vn 0.942766 -0.333441 0.003174
vn 0.976594 -0.202936 0.071287
vn 0.982801 -0.160891 0.090638
vn 0.852324 -0.521380 -0.041322
vn 0.955683 -0.294371 -0.004028
vn 0.938034 -0.345942 -0.020386
vn 0.990161 -0.110106 0.086364
vn 0.994342 -0.088564 0.058656
vn 0.990440 -0.134036 0.032593
vn 0.956958 -0.285214 0.053710
vn 0.968149 -0.121583 -0.218874
vn 0.968149 -0.121583 -0.218874
vn 0.975446 0.217647 -0.033691
vn 0.931373 0.363394 -0.022094
vn 0.925179 0.379032 -0.019470
vn 0.949533 0.168459 0.264590
vn 0.957277 0.141480 0.252198
vn 0.879001 0.389847 0.274547
vn 0.859297 -0.511038 0.021179
vn 0.859297 -0.511038 0.021179

g polygon0
s 1
usemtl mat2
f 1/1/1 2/2/2 3/3/3
f 1/1/1 4/4/4 2/2/2
f 5/5/5 4/4/4 1/1/1
f 5/5/5 6/6/6 4/4/4
f 7/7/7 6/6/6 5/5/5
f 8/8/8 9/9/9 7/7/7
f 8/8/8 10/10/10 9/9/9
f 11/11/11 10/10/10 8/8/8
f 11/11/11 12/12/12 10/10/10
f 13/13/13 12/12/12 11/11/11
f 14/14/14 15/15/15 16/16/16
f 14/14/14 17/17/17 15/15/15
f 18/18/18 17/17/17 14/14/14
f 18/18/18 19/19/19 17/17/17
f 20/20/20 19/19/19 18/18/18
f 21/21/21 22/22/22 20/20/20
f 21/21/21 23/23/23 22/22/22
f 24/24/24 23/23/23 21/21/21
f 24/24/24 25/25/25 23/23/23
f 26/26/26 25/25/25 24/24/24
f 27/27/27 3/3/3 28/28/28
f 27/27/27 1/1/1 3/3/3
f 29/29/29 7/7/7 5/5/5
f 29/29/29 8/8/8 7/7/7
f 30/30/30 13/13/13 11/11/11
f 30/30/30 31/31/31 13/13/13
f 32/32/32 16/16/16 33/33/33
f 32/32/32 14/14/14 16/16/16
f 34/34/34 20/20/20 18/18/18
f 34/34/34 21/21/21 20/20/20
f 35/35/35 26/26/26 24/24/24
f 35/35/35 36/36/36 26/26/26

v 1.141357 0.151856 -0.167725
v 3.665039 1.446290 -4.845214
v 2.808105 0.907960 -3.919433
v 2.983398 1.001954 -3.321289
v 1.575684 0.328613 -0.605957
v 4.315918 1.948488 -4.746337
v 3.540039 1.311280 -3.220215
v -3.357422 1.140626 -3.722412
v -0.978760 0.065674 0.128174
v -3.950684 1.518800 -5.543701
v -1.400146 0.233887 -0.246582
v -3.984131 1.541993 -4.241455
v -3.382813 1.166261 -2.984619
v 1.256348 0.187988 -0.666992
v 2.044434 0.439210 -5.223389
v 0.817383 0.000000 -0.139160
v 2.208740 0.603272 -3.818847
v 3.114502 1.071046 -5.570068
v -2.169434 0.400636 -5.570557
v -1.331543 0.201416 -0.833496
v -0.817383 0.000000 -0.139160
v -2.308350 0.476564 -4.469482
v -2.899902 0.818849 -4.952393
v -2.493896 0.595948 -3.442871
v -5.600830 3.052980 -4.897704
v -1.214844 0.162842 0.270264
v 5.600830 3.118165 -4.897704
v 1.214844 0.200195 0.270264

vt 0.500000 0.000000
vt 0.503906 1.000000
vt 0.360474 1.000000
vt 0.625366 1.000000
vt 0.750000 0.000000
vt 0.746399 1.000000
vt 0.878601 1.000000
vt 0.377625 1.000000
vt 0.502991 0.000000
vt 0.499084 1.000000
vt 0.252991 0.000000
vt 0.256592 1.000000
vt 0.124390 1.000000
vt 0.250000 0.000000
vt 0.000549 1.000000
vt 0.000000 0.000000
vt 0.138916 1.000000
vt 0.251953 1.000000
vt 1.002380 1.000000
vt 0.752991 0.000000
vt 1.002991 0.000000
vt 0.864075 1.000000
vt 0.751038 1.000000
vt 0.642517 1.000000
vt -0.011719 1.000000
vt 0.002991 0.000000
vt 1.014709 1.000000
vt 1.000000 0.000000

vn -0.445870 0.895096 0.001892
vn -0.454904 0.890459 -0.012024
vn -0.520095 0.852196 -0.057130
vn -0.511765 0.857885 -0.046141
vn -0.662265 0.724152 -0.192375
vn -0.488327 0.872471 0.018188
vn -0.668938 0.704216 -0.237912
vn 0.390190 0.920453 0.022766
vn 0.508286 0.859715 -0.050352
vn 0.549139 0.832407 -0.074464
vn 0.661432 0.719048 -0.213255
vn 0.469533 0.882793 -0.014648
vn 0.713518 0.632583 -0.301215
vn -0.465817 0.884515 -0.025451
vn -0.465817 0.884515 -0.025451
vn -0.415585 0.909294 -0.021789
vn -0.511765 0.857885 -0.046141
vn -0.454904 0.890459 -0.012024
vn 0.375782 0.926301 -0.027465
vn 0.390075 0.920470 -0.023987
vn 0.402165 0.914987 -0.032593
vn 0.459542 0.886368 -0.056336
vn 0.428342 0.903192 -0.027710
vn 0.600886 0.787407 -0.137572
vn 0.743166 0.591616 -0.312562
vn 0.646959 0.751571 -0.128781
vn -0.738094 0.604733 -0.299192
vn -0.680704 0.711037 -0.176264

g polygon1
s 1
usemtl mat1
f 37/37/37 38/38/38 39/39/39
f 37/37/37 40/40/40 38/38/38
f 41/41/41 40/40/40 37/37/37
f 41/41/41 42/42/42 40/40/40
f 43/43/43 42/42/42 41/41/41
f 44/44/44 45/45/45 46/46/46
f 44/44/44 47/47/47 45/45/45
f 48/48/48 47/47/47 44/44/44
f 48/48/48 49/49/49 47/47/47
f 50/50/50 51/51/51 52/52/52
f 50/50/50 53/53/53 51/51/51
f 54/54/54 53/53/53 50/50/50
f 55/55/55 56/56/56 57/57/57
f 55/55/55 58/58/58 56/56/56
f 59/59/59 56/56/56 58/58/58
f 59/59/59 60/60/60 56/56/56
f 60/60/60 45/45/45 56/56/56
f 60/60/60 46/46/46 45/45/45
f 47/47/47 61/61/61 62/62/62
f 47/47/47 49/49/49 61/61/61
f 50/50/50 39/39/39 54/54/54
f 50/50/50 37/37/37 39/39/39
f 63/63/63 41/41/41 64/64/64
f 63/63/63 43/43/43 41/41/41

