mtllib EffCommonHorizontalSmokeA.mtl

v 4.156250 2.750488 4.963379
v 1.830078 0.885742 5.379883
v 4.945313 3.944336 3.505859
v 2.467773 0.657715 6.178223
v 2.609375 0.428711 6.956055
v 5.506836 3.435059 5.940430
v 2.829102 0.273438 7.708984
v 2.829102 0.087402 8.467285
v 8.142578 5.139648 5.473633
v -3.110352 0.546875 7.418457
v -7.077148 5.576172 5.600098
v -3.110352 0.174805 8.934570
v -10.682617 10.154297 1.969727
v -6.832031 5.769043 2.958008
v -2.609375 1.315430 4.356445
v -9.911133 12.113770 -2.153320
v -5.944336 6.604492 0.299316
v -2.008789 1.771973 2.760254
v 8.614258 6.458008 3.460449
v -2.897461 0.857422 5.912109

vt 0.750000 1.000000
vt 1.000000 0.000000
vt 1.000000 1.000000
vt 0.750000 0.000000
vt 0.500000 0.000000
vt 0.250000 1.000000
vt 0.250000 0.000000
vt 0.000000 0.000000
vt 0.000000 1.000000
vt 0.250000 0.000000
vt 0.000000 1.000000
vt 0.000000 0.000000
vt 0.250000 1.000000
vt 0.500000 1.000000
vt 0.750000 0.000000
vt 0.750000 1.000000
vt 1.000000 1.000000
vt 1.000000 0.000000
vt 0.500000 1.000000
vt 0.500000 0.000000

vn 0.914991 -0.341483 -0.214898
vn 0.923509 -0.331285 -0.193341
vn 0.936373 -0.322863 -0.137717
vn 0.930017 -0.305870 -0.203744
vn 0.948957 -0.292602 -0.117750
vn 0.950090 -0.291548 -0.111035
vn 0.962316 -0.255624 -0.092764
vn 0.908934 -0.351287 -0.224580
vn 0.847204 -0.417464 -0.328588
vn 0.974557 0.218776 0.048744
vn 0.979343 0.201023 0.021826
vn 0.976063 0.211225 0.051820
vn 0.976072 0.214050 0.038284
vn 0.957269 0.258209 0.130248
vn 0.952207 0.262910 0.155502
vn 0.952207 0.262910 0.155502
vn 0.965235 0.236870 0.110513
vn 0.945563 0.278358 0.168605
vn 0.946217 -0.302357 -0.115129
vn 0.961528 0.254594 0.103183

g polygon0
s 1
usemtl mat1
f 1/1/1 2/2/2 3/3/3
f 1/1/1 4/4/4 2/2/2
f 5/5/5 4/4/4 1/1/1
f 6/6/6 7/7/7 5/5/5
f 6/6/6 8/8/8 7/7/7
f 9/9/9 8/8/8 6/6/6
f 10/10/10 11/11/11 12/12/12
f 10/10/10 13/13/13 11/11/11
f 14/14/14 13/13/13 10/10/10
f 15/15/15 16/16/16 14/14/14
f 15/15/15 17/17/17 16/16/16
f 18/18/18 17/17/17 15/15/15
f 19/19/19 5/5/5 1/1/1
f 19/19/19 6/6/6 5/5/5
f 20/20/20 14/14/14 10/10/10
f 20/20/20 15/15/15 14/14/14

v 3.040527 0.499999 8.157715
v 4.059082 5.109866 -3.517088
v 3.791992 3.864747 1.618165
v 2.800781 -0.168946 7.823242
v 3.121094 2.532228 -0.768554
v 2.701660 0.177246 4.905762
v -3.695313 3.921876 1.507326
v -2.698730 -0.168946 7.823242
v -2.834961 0.524902 8.109863
v -4.326172 6.678714 -6.757811
v -2.601074 0.178711 4.901368
v -3.203613 2.583010 -0.891601
v -2.336914 -0.643066 4.743164
v -2.935547 3.723148 -7.219725
v -1.830566 -0.563476 2.537109
v -2.026367 1.152346 -2.535156
v -0.956543 -1.304687 3.444824
v -1.134766 1.507327 -5.395507
v 0.000000 -0.841307 1.489258
v 0.000000 0.480471 -2.756347
v 0.956543 -1.304687 3.444824
v 0.948242 1.409671 -5.088378
v 1.825195 -0.614745 2.687988
v 2.022949 0.850588 -1.643554
v 2.341309 -0.612304 4.659668
v 2.957520 4.462894 -7.909178

vt -1.260864 0.000000
vt -0.983154 0.955322
vt -1.262939 0.955322
vt -0.984375 0.000000
vt -0.658691 0.955322
vt -0.702148 0.000000
vt 2.233521 0.955322
vt 1.956177 0.000000
vt 2.229736 0.000000
vt 1.953247 0.955322
vt 1.678711 0.000000
vt 1.635254 0.955322
vt 1.401367 0.000000
vt 1.290649 0.955322
vt 1.094971 0.000000
vt 1.031494 0.955322
vt 0.811523 0.000000
vt 0.746094 0.955322
vt 0.495483 0.000000
vt 0.494141 0.955322
vt 0.179077 0.000000
vt 0.239258 0.955322
vt -0.110474 0.000000
vt -0.053711 0.955322
vt -0.418823 0.000000
vt -0.325684 0.955322

vn 0.961694 -0.273078 -0.023926
vn 0.934794 -0.349907 -0.061034
vn 0.974414 -0.224729 -0.003723
vn 0.919744 -0.384340 -0.079712
vn 0.886559 -0.448315 -0.114139
vn 0.897379 -0.424856 -0.119199
vn -0.971061 -0.238828 -0.001465
vn -0.953593 -0.299310 -0.032775
vn -0.979107 -0.201961 0.023681
vn -0.949747 -0.310723 -0.037841
vn -0.938893 -0.340450 -0.050720
vn -0.925207 -0.372671 -0.071470
vn -0.859402 -0.494156 -0.131291
vn -0.827311 -0.540087 -0.154476
vn -0.703956 -0.679421 -0.206963
vn -0.578173 -0.780439 -0.237971
vn -0.354123 -0.892692 -0.278745
vn -0.297301 -0.911740 -0.283447
vn -0.089113 -0.950518 -0.297613
vn 0.075378 -0.951172 -0.299317
vn 0.282585 -0.914403 -0.289848
vn 0.345514 -0.894332 -0.284236
vn 0.502334 -0.825342 -0.257820
vn 0.755065 -0.625731 -0.195801
vn 0.871387 -0.469049 -0.143797
vn 0.871387 -0.469049 -0.143797

g polygon1
s 1
usemtl mat2
f 21/21/21 22/22/22 23/23/23
f 21/21/21 24/24/24 22/22/22
f 24/24/24 25/25/25 22/22/22
f 24/24/24 26/26/26 25/25/25
f 27/27/27 28/28/28 29/29/29
f 27/27/27 30/30/30 28/28/28
f 30/30/30 31/31/31 28/28/28
f 30/30/30 32/32/32 31/31/31
f 32/32/32 33/33/33 31/31/31
f 32/32/32 34/34/34 33/33/33
f 34/34/34 35/35/35 33/33/33
f 34/34/34 36/36/36 35/35/35
f 36/36/36 37/37/37 35/35/35
f 36/36/36 38/38/38 37/37/37
f 38/38/38 39/39/39 37/37/37
f 38/38/38 40/40/40 39/39/39
f 40/40/40 41/41/41 39/39/39
f 40/40/40 42/42/42 41/41/41
f 42/42/42 43/43/43 41/41/41
f 42/42/42 44/44/44 43/43/43
f 44/44/44 45/45/45 43/43/43
f 44/44/44 46/46/46 45/45/45
f 46/46/46 26/26/26 45/45/45
f 46/46/46 25/25/25 26/26/26

v 0.000000 3.177735 4.738282
v 0.000000 6.691407 3.271974
v 0.000000 3.240235 5.299806
v 0.000000 6.562989 2.048342
v 0.000000 2.993165 4.197755
v 0.000000 6.182130 0.871584
v 0.000000 2.693848 3.700196
v 0.000000 5.563478 -0.212401
v 0.000000 2.291016 3.263673
v 0.000000 4.731447 -1.163085
v 0.000000 1.799806 2.905274
v 0.000000 3.717776 -1.942870
v 0.000000 1.239747 2.639160
v 0.000000 2.560549 -2.522460
v 0.000000 0.632325 2.475098
v 0.000000 1.305666 -2.879394
v 0.000000 0.000001 2.419922
v 0.000000 0.000002 -3.000000

vt 0.000000 0.125000
vt 1.000000 0.000000
vt 0.000000 0.000000
vt 1.000000 0.125000
vt 0.000000 0.250000
vt 1.000000 0.250000
vt 0.000000 0.375000
vt 1.000000 0.375000
vt 0.000000 0.500000
vt 1.000000 0.500000
vt 0.000000 0.625000
vt 1.000000 0.625000
vt 0.000000 0.750000
vt 1.000000 0.750000
vt 0.000000 0.875000
vt 1.000000 0.875000
vt 0.000000 1.000000
vt 1.000000 1.000000

vn 1.000000 0.000000 0.000000
vn 1.000000 0.000000 0.000000
vn 1.000000 0.000000 0.000000
vn 1.000000 0.000000 0.000000
vn 1.000000 0.000000 0.000000
vn 1.000000 0.000000 0.000000
vn 1.000000 0.000000 0.000000
vn 1.000000 0.000000 0.000000
vn 1.000000 0.000000 0.000000
vn 1.000000 0.000000 0.000000
vn 1.000000 0.000000 0.000000
vn 1.000000 0.000000 0.000000
vn 1.000000 0.000000 0.000000
vn 1.000000 0.000000 0.000000
vn 1.000000 0.000000 0.000000
vn 1.000000 0.000000 0.000000
vn 1.000000 0.000000 0.000000
vn 1.000000 0.000000 0.000000

g polygon2
s 1
usemtl mat4
f 47/47/47 48/48/48 49/49/49
f 47/47/47 50/50/50 48/48/48
f 51/51/51 50/50/50 47/47/47
f 51/51/51 52/52/52 50/50/50
f 53/53/53 52/52/52 51/51/51
f 53/53/53 54/54/54 52/52/52
f 55/55/55 54/54/54 53/53/53
f 55/55/55 56/56/56 54/54/54
f 57/57/57 56/56/56 55/55/55
f 57/57/57 58/58/58 56/56/56
f 59/59/59 58/58/58 57/57/57
f 59/59/59 60/60/60 58/58/58
f 61/61/61 60/60/60 59/59/59
f 61/61/61 62/62/62 60/60/60
f 63/63/63 62/62/62 61/61/61
f 63/63/63 64/64/64 62/62/62

v 2.137207 0.536133 7.937988
v 5.279297 3.051272 -0.595214
v 4.419922 2.187502 1.293458
v 4.414551 2.349123 2.292969
v 2.877441 0.991700 6.884278
v 5.647949 3.816897 -0.367186
v 5.222656 3.373048 2.451173
v -4.428223 2.578127 1.636719
v -1.865723 0.295410 8.742188
v -5.415039 3.160159 -2.443359
v -2.607422 0.753906 7.736816
v -5.394043 3.572756 0.694337
v -4.959473 3.274904 2.813478
v 2.302734 0.633789 6.749023
v 3.088379 1.251956 -1.541015
v 1.547363 0.102539 8.012207
v 3.525391 1.606935 1.470704
v 4.782227 2.464358 -2.521484
v -2.999023 1.163577 -2.523437
v -2.425781 0.668946 6.393555
v -1.547363 0.102539 8.012207
v -3.379883 1.335940 0.235352
v -4.337402 2.026858 -0.851074
v -3.641113 1.592287 2.099122
v -7.433105 6.147463 -0.719725
v -2.318359 0.566406 9.158203
v 7.752930 6.338870 -0.719725
v 2.307129 0.689453 9.162109

vt 0.500000 0.000000
vt 0.503906 1.000000
vt 0.360474 1.000000
vt 0.625366 1.000000
vt 0.750000 0.000000
vt 0.746399 1.000000
vt 0.878601 1.000000
vt 0.377625 1.000000
vt 0.502991 0.000000
vt 0.499084 1.000000
vt 0.252991 0.000000
vt 0.256592 1.000000
vt 0.124390 1.000000
vt 0.250000 0.000000
vt 0.000549 1.000000
vt 0.000000 0.000000
vt 0.138916 1.000000
vt 0.251953 1.000000
vt 1.002380 1.000000
vt 0.752991 0.000000
vt 1.002991 0.000000
vt 0.864075 1.000000
vt 0.751038 1.000000
vt 0.642517 1.000000
vt -0.011719 1.000000
vt 0.002991 0.000000
vt 1.014709 1.000000
vt 1.000000 0.000000

vn -0.601202 0.798775 -0.022705
vn -0.655083 0.753715 -0.052734
vn -0.508732 0.860602 0.023560
vn -0.613391 0.789291 -0.027770
vn -0.829460 0.527766 -0.182920
vn -0.821759 0.533191 -0.201045
vn -0.873855 0.401130 -0.274724
vn 0.606577 0.794874 -0.015503
vn 0.666627 0.742982 -0.059875
vn 0.731588 0.674213 -0.101077
vn 0.785462 0.602906 -0.139832
vn 0.689623 0.720812 -0.069640
vn 0.852922 0.464670 -0.237920
vn -0.523865 0.851135 0.033692
vn -0.599363 0.800473 0.002869
vn -0.566654 0.823919 0.007752
vn -0.654415 0.756038 -0.012146
vn -0.422488 0.903021 0.077821
vn 0.494507 0.869141 0.007569
vn 0.494507 0.869141 0.007569
vn 0.547053 0.837089 -0.003845
vn 0.519583 0.854355 -0.010559
vn 0.510262 0.859999 0.005860
vn 0.646175 0.760127 -0.068298
vn 0.829412 0.529178 -0.179017
vn 0.767947 0.636416 -0.072327
vn -0.846295 0.496266 -0.193660
vn -0.813605 0.568486 -0.121949

g polygon3
s 1
usemtl mat3
f 65/65/65 66/66/66 67/67/67
f 65/65/65 68/68/68 66/66/66
f 69/69/69 68/68/68 65/65/65
f 69/69/69 70/70/70 68/68/68
f 71/71/71 70/70/70 69/69/69
f 72/72/72 73/73/73 74/74/74
f 72/72/72 75/75/75 73/73/73
f 76/76/76 75/75/75 72/72/72
f 76/76/76 77/77/77 75/75/75
f 78/78/78 79/79/79 80/80/80
f 78/78/78 81/81/81 79/79/79
f 82/82/82 81/81/81 78/78/78
f 83/83/83 84/84/84 85/85/85
f 83/83/83 86/86/86 84/84/84
f 87/87/87 84/84/84 86/86/86
f 87/87/87 88/88/88 84/84/84
f 88/88/88 73/73/73 84/84/84
f 88/88/88 74/74/74 73/73/73
f 75/75/75 89/89/89 90/90/90
f 75/75/75 77/77/77 89/89/89
f 78/78/78 67/67/67 82/82/82
f 78/78/78 65/65/65 67/67/67
f 91/91/91 69/69/69 92/92/92
f 91/91/91 71/71/71 69/69/69

v 0.000000 6.000000 7.500000
v 0.000000 0.000000 1.500000
v 0.000000 -0.000000 7.500000
v 0.000000 6.000000 1.500000

vt 1.000000 0.000000
vt 0.000000 1.000000
vt 0.000000 0.000000
vt 1.000000 1.000000

vn -1.000000 0.000000 0.000000
vn -1.000000 0.000000 0.000000
vn -1.000000 0.000000 0.000000
vn -1.000000 0.000000 0.000000

g polygon4
s 1
usemtl mat5
f 93/93/93 94/94/94 95/95/95
f 93/93/93 96/96/96 94/94/94

