mtllib EffCommonHitNormalShockWave.mtl

v 0.000000 -8.208595 6.552341
v 0.000000 -9.050784 9.050779
v 0.000000 -10.642971 7.110935
v 0.000000 -7.110940 10.642967
v 0.000000 -6.211721 7.182030
v 0.000000 -4.167190 7.635155
v 0.000000 -4.898441 11.825780
v 0.000000 -2.496878 12.553905
v 0.000000 -2.091408 7.908593
v 0.000000 -0.000002 8.000000
v 0.000000 -0.000003 12.800000
v 0.000000 2.496872 12.553907
v 0.000000 2.091404 7.908595
v 0.000000 4.167186 7.635158
v 0.000000 4.898435 11.825783
v 0.000000 7.110935 10.642971
v 0.000000 6.211717 7.182033
v 0.000000 8.208592 6.552346
v 0.000000 9.050779 9.050784
v 0.000000 10.642967 7.110940
v 0.000000 10.142967 5.751565
v 0.000000 11.999999 4.784378
v 0.000000 -10.142970 5.751560
v 0.000000 -12.000002 4.784372

vt 0.442230 0.035858
vt 0.442383 0.352509
vt 0.442383 0.352509
vt 0.442383 0.352509
vt 0.442230 0.035858
vt 0.442230 0.035858
vt 0.442383 0.352509
vt 0.442383 0.352509
vt 0.442230 0.035858
vt 0.442230 0.035858
vt 0.442383 0.352509
vt 0.442383 0.352509
vt 0.442230 0.035858
vt 0.442230 0.035858
vt 0.442383 0.352509
vt 0.442383 0.352509
vt 0.442230 0.035858
vt 0.442230 0.035858
vt 0.442383 0.352509
vt 0.442383 0.352509
vt 0.442230 0.035858
vt 0.442383 0.352509
vt 0.442230 0.035858
vt 0.442383 0.352509

vn 1.000000 0.000000 0.000000
vn 1.000000 0.000000 0.000000
vn 1.000000 0.000000 0.000000
vn 1.000000 0.000000 0.000000
vn 1.000000 0.000000 0.000000
vn 1.000000 0.000000 0.000000
vn 1.000000 0.000000 0.000000
vn 1.000000 0.000000 0.000000
vn 1.000000 0.000000 0.000000
vn 1.000000 0.000000 0.000000
vn 1.000000 0.000000 0.000000
vn 1.000000 0.000000 0.000000
vn 1.000000 0.000000 0.000000
vn 1.000000 0.000000 0.000000
vn 1.000000 0.000000 0.000000
vn 1.000000 0.000000 0.000000
vn 1.000000 0.000000 0.000000
vn 1.000000 0.000000 0.000000
vn 1.000000 0.000000 0.000000
vn 1.000000 0.000000 0.000000
vn 1.000000 0.000000 0.000000
vn 1.000000 0.000000 0.000000
vn 1.000000 0.000000 0.000000
vn 1.000000 0.000000 0.000000

g polygon0
s 1
usemtl mat3
f 1/1/1 2/2/2 3/3/3
f 1/1/1 4/4/4 2/2/2
f 5/5/5 4/4/4 1/1/1
f 5/5/5 6/6/6 4/4/4
f 6/6/6 7/7/7 4/4/4
f 6/6/6 8/8/8 7/7/7
f 9/9/9 8/8/8 6/6/6
f 9/9/9 10/10/10 8/8/8
f 10/10/10 11/11/11 8/8/8
f 10/10/10 12/12/12 11/11/11
f 13/13/13 12/12/12 10/10/10
f 13/13/13 14/14/14 12/12/12
f 14/14/14 15/15/15 12/12/12
f 14/14/14 16/16/16 15/15/15
f 17/17/17 16/16/16 14/14/14
f 17/17/17 18/18/18 16/16/16
f 18/18/18 19/19/19 16/16/16
f 18/18/18 20/20/20 19/19/19
f 21/21/21 20/20/20 18/18/18
f 21/21/21 22/22/22 20/20/20
f 23/23/23 3/3/3 24/24/24
f 23/23/23 1/1/1 3/3/3

v -5.206310 -7.416484 23.562416
v -1.999999 -3.456695 8.239993
v -1.999999 -16.000004 41.999989
v -3.965896 -3.474115 10.557817
v -6.536481 -5.069281 25.626043
v -4.913425 -2.274507 11.275520
v -8.024680 -2.305554 21.841019
v -5.474124 -1.410314 10.215837
v -12.752479 -0.000005 72.012222
v -5.471074 -0.000002 10.018636
v -7.423801 2.063133 19.368559
v -5.916172 1.311016 11.129874
v -6.147548 4.725956 23.931906
v -4.713097 1.976620 10.463208
v -4.767265 7.371028 24.286133
v -3.827953 3.821347 10.702403
v -1.999999 15.999985 41.999996
v -1.999999 3.456691 8.239995
v 4.520935 6.440145 20.723883
v 1.999999 3.456691 8.239995
v 1.999999 15.999985 41.999996
v 3.965897 3.474112 10.557815
v 7.072479 5.484955 27.563406
v 4.913425 2.274503 11.275522
v 8.993964 2.584027 24.237577
v 5.474126 1.410311 10.215837
v 13.219192 -0.000006 71.838112
v 5.471074 -0.000002 10.018636
v 7.717935 -2.144882 20.056702
v 5.916172 -1.311019 11.129872
v 6.386206 -4.909435 24.783333
v 4.713098 -1.976625 10.463207
v 4.767266 -7.371038 24.286129
v 3.827953 -3.821351 10.702401
v 1.999999 -16.000004 41.999989
v 1.999999 -3.456695 8.239993

vt 1.311768 0.000000
vt 1.417023 1.000000
vt 1.417023 0.000000
vt 1.311768 1.000000
vt 1.206512 0.000000
vt 1.206512 1.000000
vt 1.101227 0.000000
vt 1.101227 1.000000
vt 0.995972 0.000000
vt 0.995972 1.000000
vt 0.890717 0.000000
vt 0.890717 1.000000
vt 0.785461 0.000000
vt 0.785461 1.000000
vt 0.680176 0.000000
vt 0.680176 1.000000
vt 0.574921 0.000000
vt 0.574921 1.000000
vt 1.153351 0.000000
vt 1.258606 1.000000
vt 1.258606 0.000000
vt 1.153351 1.000000
vt 1.048065 0.000000
vt 1.048065 1.000000
vt 0.942810 0.000000
vt 0.942810 1.000000
vt 0.837555 0.000000
vt 0.837555 1.000000
vt 0.732300 0.000000
vt 0.732300 1.000000
vt 0.627014 0.000000
vt 0.627014 1.000000
vt 0.521759 0.000000
vt 0.521759 1.000000
vt 0.416504 0.000000
vt 0.416504 1.000000

vn -0.643436 -0.723820 -0.249147
vn -0.612486 -0.747740 -0.256408
vn -0.626653 -0.735907 -0.256411
vn -0.701402 -0.679674 -0.214657
vn -0.803864 -0.561686 -0.195733
vn -0.814943 -0.548036 -0.188477
vn -0.922365 -0.346009 -0.171814
vn -0.973433 -0.169065 -0.154416
vn -0.988550 -0.011475 -0.150455
vn -0.988394 0.020569 -0.150511
vn -0.968673 0.193173 -0.156064
vn -0.888004 0.424684 -0.176331
vn -0.819590 0.541083 -0.188418
vn -0.773379 0.601137 -0.201294
vn -0.717345 0.662169 -0.216674
vn -0.622983 0.740963 -0.250731
vn -0.622983 0.740963 -0.250731
vn -0.549677 0.788872 -0.274838
vn 0.643436 0.723820 -0.249147
vn 0.612486 0.747740 -0.256408
vn 0.626653 0.735907 -0.256411
vn 0.701402 0.679674 -0.214656
vn 0.803864 0.561686 -0.195732
vn 0.814943 0.548036 -0.188477
vn 0.922365 0.346009 -0.171814
vn 0.973433 0.169065 -0.154416
vn 0.988550 0.011475 -0.150455
vn 0.988394 -0.020569 -0.150511
vn 0.968673 -0.193173 -0.156064
vn 0.888004 -0.424684 -0.176331
vn 0.819590 -0.541083 -0.188418
vn 0.773379 -0.601137 -0.201295
vn 0.717345 -0.662169 -0.216675
vn 0.622983 -0.740963 -0.250731
vn 0.622983 -0.740963 -0.250731
vn 0.549677 -0.788872 -0.274839

g polygon1
s 1
usemtl mat2
f 25/25/25 26/26/26 27/27/27
f 25/25/25 28/28/28 26/26/26
f 29/29/29 28/28/28 25/25/25
f 29/29/29 30/30/30 28/28/28
f 31/31/31 30/30/30 29/29/29
f 31/31/31 32/32/32 30/30/30
f 33/33/33 32/32/32 31/31/31
f 33/33/33 34/34/34 32/32/32
f 35/35/35 34/34/34 33/33/33
f 35/35/35 36/36/36 34/34/34
f 37/37/37 36/36/36 35/35/35
f 37/37/37 38/38/38 36/36/36
f 39/39/39 38/38/38 37/37/37
f 39/39/39 40/40/40 38/38/38
f 41/41/41 40/40/40 39/39/39
f 41/41/41 42/42/42 40/40/40
f 43/43/43 44/44/44 45/45/45
f 43/43/43 46/46/46 44/44/44
f 47/47/47 46/46/46 43/43/43
f 47/47/47 48/48/48 46/46/46
f 49/49/49 48/48/48 47/47/47
f 49/49/49 50/50/50 48/48/48
f 51/51/51 50/50/50 49/49/49
f 51/51/51 52/52/52 50/50/50
f 53/53/53 52/52/52 51/51/51
f 53/53/53 54/54/54 52/52/52
f 55/55/55 54/54/54 53/53/53
f 55/55/55 56/56/56 54/54/54
f 57/57/57 56/56/56 55/55/55
f 57/57/57 58/58/58 56/56/56
f 59/59/59 58/58/58 57/57/57
f 59/59/59 60/60/60 58/58/58

v 0.000000 47.121078 51.263683
v 0.000000 8.604489 11.257814
v 0.000000 8.595700 9.349611
v 0.000000 21.779289 28.498053
v 0.000000 7.221677 11.623049
v 0.000000 26.021473 41.880867
v 0.000000 6.310544 12.951174
v 0.000000 12.533196 25.718754
v 0.000000 4.145505 11.513673
v 0.000000 12.011710 33.351566
v 0.000000 3.287106 13.832032
v 0.000000 6.005853 25.283205
v 0.000000 1.461911 12.386719
v 0.000000 6.665024 56.455078
v 0.000000 -0.000003 12.566406
v 0.000000 -0.000007 26.765625
v 0.000000 -1.291995 10.931641
v 0.000000 -4.113290 34.837891
v 0.000000 -3.263675 13.738280
v 0.000000 -6.008796 25.287107
v 0.000000 -4.286136 11.902343
v 0.000000 -13.125010 36.451168
v 0.000000 -6.249027 12.820311
v 0.000000 -14.425789 29.601559
v 0.000000 -6.659183 10.716795
v 0.000000 -24.834970 39.970695
v 0.000000 -8.100589 10.599607
v 0.000000 -18.934576 24.775385
v 0.000000 -8.595706 9.349607
v 0.000000 -47.121109 51.263660

vt 0.995605 0.000000
vt 0.852417 1.000000
vt 0.995605 1.000000
vt 0.852417 0.000000
vt 0.709229 1.000000
vt 0.709229 0.000000
vt 0.566101 1.000000
vt 0.566101 0.000000
vt 0.422913 1.000000
vt 0.422913 0.000000
vt 0.279724 1.000000
vt 0.279724 0.000000
vt 0.136597 1.000000
vt 0.136597 0.000000
vt -0.006592 1.000000
vt -0.006592 0.000000
vt -0.149780 1.000000
vt -0.149780 0.000000
vt -0.292908 1.000000
vt -0.292908 0.000000
vt -0.436096 1.000000
vt -0.436096 0.000000
vt -0.579285 1.000000
vt -0.579285 0.000000
vt -0.722412 1.000000
vt -0.722412 0.000000
vt -0.865601 1.000000
vt -0.865601 0.000000
vt -1.008789 1.000000
vt -1.008789 0.000000

vn 1.000000 0.000000 0.000000
vn 1.000000 0.000000 0.000000
vn 1.000000 0.000000 0.000000
vn 1.000000 0.000000 0.000000
vn 1.000000 0.000000 0.000000
vn 1.000000 0.000000 0.000000
vn 1.000000 0.000000 0.000000
vn 1.000000 0.000000 0.000000
vn 1.000000 0.000000 0.000000
vn 1.000000 0.000000 0.000000
vn 1.000000 0.000000 0.000000
vn 1.000000 0.000000 0.000000
vn 1.000000 0.000000 0.000000
vn 1.000000 0.000000 0.000000
vn 1.000000 0.000000 0.000000
vn 1.000000 0.000000 0.000000
vn 1.000000 0.000000 0.000000
vn 1.000000 0.000000 0.000000
vn 1.000000 0.000000 0.000000
vn 1.000000 0.000000 0.000000
vn 1.000000 0.000000 0.000000
vn 1.000000 0.000000 0.000000
vn 1.000000 0.000000 0.000000
vn 1.000000 0.000000 0.000000
vn 1.000000 0.000000 0.000000
vn 1.000000 0.000000 0.000000
vn 1.000000 0.000000 0.000000
vn 1.000000 0.000000 0.000000
vn 1.000000 0.000000 0.000000
vn 1.000000 0.000000 0.000000

g polygon2
s 1
usemtl mat1
f 61/61/61 62/62/62 63/63/63
f 61/61/61 64/64/64 62/62/62
f 64/64/64 65/65/65 62/62/62
f 64/64/64 66/66/66 65/65/65
f 66/66/66 67/67/67 65/65/65
f 66/66/66 68/68/68 67/67/67
f 68/68/68 69/69/69 67/67/67
f 68/68/68 70/70/70 69/69/69
f 70/70/70 71/71/71 69/69/69
f 70/70/70 72/72/72 71/71/71
f 72/72/72 73/73/73 71/71/71
f 72/72/72 74/74/74 73/73/73
f 74/74/74 75/75/75 73/73/73
f 74/74/74 76/76/76 75/75/75
f 76/76/76 77/77/77 75/75/75
f 76/76/76 78/78/78 77/77/77
f 78/78/78 79/79/79 77/77/77
f 78/78/78 80/80/80 79/79/79
f 80/80/80 81/81/81 79/79/79
f 80/80/80 82/82/82 81/81/81
f 82/82/82 83/83/83 81/81/81
f 82/82/82 84/84/84 83/83/83
f 84/84/84 85/85/85 83/83/83
f 84/84/84 86/86/86 85/85/85
f 86/86/86 87/87/87 85/85/85
f 86/86/86 88/88/88 87/87/87
f 88/88/88 89/89/89 87/87/87
f 88/88/88 90/90/90 89/89/89

