mtllib EffCommonScrew.mtl

v 3.804641 -3.185182 -1.319345
v 4.971003 -1.865837 0.000000
v 3.804641 -3.447621 0.000000
v 4.971003 -1.723806 -0.714025
v 3.804641 -2.437835 -2.437834
v 4.971003 -1.319343 -1.319346
v 3.804641 -1.319350 -3.185184
v 4.971003 -0.714025 -1.723810
v 3.804640 -0.000002 -3.447619
v 4.971002 0.000000 -1.865838
v 3.804641 1.319347 -3.185185
v 4.971003 0.714023 -1.723810
v 3.804639 2.437833 -2.437836
v 4.971004 1.319347 -1.319347
v 3.804640 3.185185 -1.319348
v 4.971000 1.723811 -0.714026
v 3.804640 3.447619 -0.000001
v 4.971000 1.865838 0.000000
v 3.804640 3.185186 1.319346
v 4.971000 1.723811 0.714025
v 3.804639 2.437836 2.437835
v 4.971004 1.319347 1.319347
v 3.804641 1.319347 3.185185
v 4.971003 0.714026 1.723810
v 3.804640 -0.000001 3.447620
v 4.971002 0.000000 1.865838
v 3.804641 -1.319346 3.185186
v 4.971003 -0.714025 1.723810
v 3.804641 -2.437835 2.437836
v 4.971003 -1.319343 1.319347
v 3.804641 -3.185184 1.319347
v 4.971003 -1.723806 0.714026
v 2.059056 -4.161645 -1.723807
v 3.804641 -3.447621 0.000000
v 2.059055 -4.504532 0.000000
v 3.804641 -3.185182 -1.319345
v 2.059057 -3.185186 -3.185182
v 3.804641 -2.437835 -2.437834
v 2.059057 -1.723811 -4.161643
v 3.804641 -1.319350 -3.185184
v 2.059057 -0.000002 -4.504531
v 3.804640 -0.000002 -3.447619
v 2.059055 1.723807 -4.161645
v 3.804641 1.319347 -3.185185
v 2.059056 3.185184 -3.185186
v 3.804639 2.437833 -2.437836
v 2.059057 4.161645 -1.723811
v 3.804640 3.185185 -1.319348
v 2.059057 4.504531 -0.000002
v 3.804640 3.447619 -0.000001
v 2.059057 4.161645 1.723809
v 3.804640 3.185186 1.319346
v 2.059056 3.185186 3.185185
v 3.804639 2.437836 2.437835
v 2.059055 1.723810 4.161644
v 3.804641 1.319347 3.185185
v 2.059057 0.000000 4.504533
v 3.804640 -0.000001 3.447620
v 2.059057 -1.723810 4.161645
v 3.804641 -1.319346 3.185186
v 2.059057 -3.185185 3.185186
v 3.804641 -2.437835 2.437836
v 2.059056 -4.161645 1.723810
v 3.804641 -3.185184 1.319347
v -3.804640 -3.185184 -1.319345
v -2.059057 -4.504533 0.000000
v -3.804640 -3.447619 0.000000
v -2.059057 -4.161645 -1.723807
v -3.804639 -2.437836 -2.437834
v -2.059056 -3.185186 -3.185182
v -3.804640 -1.319350 -3.185184
v -2.059055 -1.723812 -4.161643
v -3.804640 -0.000002 -3.447619
v -2.059057 -0.000002 -4.504531
v -3.804641 1.319347 -3.185185
v -2.059057 1.723809 -4.161645
v -3.804641 2.437831 -2.437836
v -2.059057 3.185186 -3.185186
v -3.804641 3.185183 -1.319348
v -2.059056 4.161645 -1.723811
v -3.804641 3.447621 -0.000001
v -2.059055 4.504530 -0.000002
v -3.804641 3.185185 1.319346
v -2.059056 4.161645 1.723809
v -3.804641 2.437835 2.437835
v -2.059057 3.185186 3.185185
v -3.804641 1.319347 3.185185
v -2.059057 1.723810 4.161644
v -3.804640 0.000000 3.447620
v -2.059057 0.000000 4.504533
v -3.804641 -1.319346 3.185186
v -2.059055 -1.723810 4.161645
v -3.804639 -2.437836 2.437836
v -2.059056 -3.185184 3.185186
v -3.804640 -3.185186 1.319347
v -2.059057 -4.161645 1.723810
v -4.971000 -1.723811 -0.714025
v -3.804640 -3.447619 0.000000
v -4.971000 -1.865838 0.000000
v -3.804640 -3.185184 -1.319345
v -4.971004 -1.319346 -1.319346
v -3.804639 -2.437836 -2.437834
v -4.971003 -0.714026 -1.723810
v -3.804640 -1.319350 -3.185184
v -4.971002 0.000000 -1.865838
v -3.804640 -0.000002 -3.447619
v -4.971003 0.714022 -1.723810
v -3.804641 1.319347 -3.185185
v -4.971003 1.319344 -1.319347
v -3.804641 2.437831 -2.437836
v -4.971003 1.723806 -0.714026
v -3.804641 3.185183 -1.319348
v -4.971003 1.865838 0.000000
v -3.804641 3.447621 -0.000001
v -4.971003 1.723806 0.714025
v -3.804641 3.185185 1.319346
v -4.971003 1.319344 1.319347
v -3.804641 2.437835 2.437835
v -4.971003 0.714026 1.723810
v -3.804641 1.319347 3.185185
v -4.971002 0.000000 1.865838
v -3.804640 0.000000 3.447620
v -4.971003 -0.714026 1.723810
v -3.804641 -1.319346 3.185186
v -4.971004 -1.319346 1.319347
v -3.804639 -2.437836 2.437836
v -4.971000 -1.723811 0.714026
v -3.804640 -3.185186 1.319347
v 5.380576 0.000000 0.000000
v 4.971003 -1.865837 0.000000
v 4.971003 -1.723806 -0.714025
v 4.971003 -1.723806 0.714026
v 4.971003 -1.319343 1.319347
v 4.971003 -0.714025 1.723810
v 4.971002 0.000000 1.865838
v 4.971003 0.714026 1.723810
v 4.971004 1.319347 1.319347
v 4.971000 1.723811 0.714025
v 4.971000 1.865838 0.000000
v 4.971000 1.723811 -0.714026
v 4.971004 1.319347 -1.319347
v 4.971003 0.714023 -1.723810
v 4.971002 0.000000 -1.865838
v 4.971003 -0.714025 -1.723810
v 4.971003 -1.319343 -1.319346
v -5.380576 0.000000 0.000000
v -4.971000 -1.723811 -0.714025
v -4.971000 -1.865838 0.000000
v -4.971004 -1.319346 -1.319346
v -4.971003 -0.714026 -1.723810
v -4.971000 -1.723811 0.714026
v -4.971004 -1.319346 1.319347
v -4.971003 -0.714026 1.723810
v -4.971002 0.000000 1.865838
v -4.971003 0.714026 1.723810
v -4.971003 1.319344 1.319347
v -4.971003 1.723806 0.714025
v -4.971003 1.865838 0.000000
v -4.971003 1.723806 -0.714026
v -4.971003 1.319344 -1.319347
v -4.971003 0.714022 -1.723810
v -4.971002 0.000000 -1.865838

vt 0.334330 0.899846
vt 0.500000 0.734224
vt 0.500000 0.932790
vt 0.410340 0.716395
vt 0.193881 0.806029
vt 0.334330 0.665622
vt 0.100037 0.665622
vt 0.283541 0.589634
vt 0.067083 0.500000
vt 0.265707 0.500000
vt 0.100036 0.334378
vt 0.283541 0.410366
vt 0.193881 0.193971
vt 0.334330 0.334378
vt 0.334329 0.100153
vt 0.410339 0.283605
vt 0.499999 0.067209
vt 0.500000 0.265775
vt 0.665670 0.100153
vt 0.589660 0.283605
vt 0.806118 0.193971
vt 0.665670 0.334378
vt 0.899963 0.334378
vt 0.716458 0.410366
vt 0.932917 0.500000
vt 0.734293 0.500000
vt 0.899963 0.665622
vt 0.716458 0.589634
vt 0.806118 0.806029
vt 0.665670 0.665622
vt 0.665670 0.899847
vt 0.589660 0.716395
vt 0.283542 1.022425
vt 0.500000 0.932790
vt 0.500000 1.065469
vt 0.334330 0.899846
vt 0.100037 0.899847
vt 0.193881 0.806029
vt -0.022577 0.716395
vt 0.100037 0.665622
vt -0.065634 0.500000
vt 0.067083 0.500000
vt -0.022578 0.283605
vt 0.100036 0.334378
vt 0.100036 0.100153
vt 0.193881 0.193971
vt 0.283541 -0.022425
vt 0.334329 0.100153
vt 0.499999 -0.065468
vt 0.499999 0.067209
vt 0.716458 -0.022425
vt 0.665670 0.100153
vt 0.899963 0.100153
vt 0.806118 0.193971
vt 1.022577 0.283605
vt 0.899963 0.334378
vt 1.065633 0.500000
vt 0.932917 0.500000
vt 1.022577 0.716395
vt 0.899963 0.665622
vt 0.899963 0.899846
vt 0.806118 0.806029
vt 0.716458 1.022425
vt 0.665670 0.899847
vt 0.334330 0.899846
vt 0.500000 1.065469
vt 0.500000 0.932790
vt 0.283542 1.022425
vt 0.193881 0.806029
vt 0.100037 0.899847
vt 0.100037 0.665622
vt -0.022577 0.716395
vt 0.067083 0.500000
vt -0.065634 0.500000
vt 0.100036 0.334378
vt -0.022578 0.283605
vt 0.193881 0.193971
vt 0.100036 0.100153
vt 0.334329 0.100153
vt 0.283541 -0.022425
vt 0.499999 0.067209
vt 0.499999 -0.065468
vt 0.665670 0.100153
vt 0.716458 -0.022425
vt 0.806118 0.193971
vt 0.899963 0.100153
vt 0.899963 0.334378
vt 1.022577 0.283605
vt 0.932917 0.500000
vt 1.065633 0.500000
vt 0.899963 0.665622
vt 1.022577 0.716395
vt 0.806118 0.806029
vt 0.899963 0.899846
vt 0.665670 0.899847
vt 0.716458 1.022425
vt 0.410340 0.716395
vt 0.500000 0.932790
vt 0.500000 0.734224
vt 0.334330 0.899846
vt 0.334330 0.665622
vt 0.193881 0.806029
vt 0.283541 0.589634
vt 0.100037 0.665622
vt 0.265707 0.500000
vt 0.067083 0.500000
vt 0.283541 0.410366
vt 0.100036 0.334378
vt 0.334330 0.334378
vt 0.193881 0.193971
vt 0.410339 0.283605
vt 0.334329 0.100153
vt 0.500000 0.265775
vt 0.499999 0.067209
vt 0.589660 0.283605
vt 0.665670 0.100153
vt 0.665670 0.334378
vt 0.806118 0.193971
vt 0.716458 0.410366
vt 0.899963 0.334378
vt 0.734293 0.500000
vt 0.932917 0.500000
vt 0.716458 0.589634
vt 0.899963 0.665622
vt 0.665670 0.665622
vt 0.806118 0.806029
vt 0.589660 0.716395
vt 0.665670 0.899847
vt 0.500000 0.500000
vt 0.500000 0.734224
vt 0.410340 0.716395
vt 0.589660 0.716395
vt 0.665670 0.665622
vt 0.716458 0.589634
vt 0.734293 0.500000
vt 0.716458 0.410366
vt 0.665670 0.334378
vt 0.589660 0.283605
vt 0.500000 0.265775
vt 0.410339 0.283605
vt 0.334330 0.334378
vt 0.283541 0.410366
vt 0.265707 0.500000
vt 0.283541 0.589634
vt 0.334330 0.665622
vt 0.500000 0.500000
vt 0.410340 0.716395
vt 0.500000 0.734224
vt 0.334330 0.665622
vt 0.283541 0.589634
vt 0.589660 0.716395
vt 0.665670 0.665622
vt 0.716458 0.589634
vt 0.734293 0.500000
vt 0.716458 0.410366
vt 0.665670 0.334378
vt 0.589660 0.283605
vt 0.500000 0.265775
vt 0.410339 0.283605
vt 0.334330 0.334378
vt 0.283541 0.410366
vt 0.265707 0.500000

vn 0.904355 -0.394295 -0.163323
vn 0.904355 -0.426781 0.000000
vn 0.904355 -0.426781 0.000000
vn 0.904355 -0.394295 -0.163323
vn 0.904355 -0.301781 -0.301780
vn 0.904355 -0.301781 -0.301780
vn 0.904355 -0.163323 -0.394295
vn 0.904355 -0.163323 -0.394295
vn 0.904355 0.000000 -0.426782
vn 0.904355 0.000000 -0.426782
vn 0.904355 0.163322 -0.394295
vn 0.904355 0.163322 -0.394295
vn 0.904354 0.301781 -0.301781
vn 0.904354 0.301781 -0.301781
vn 0.904355 0.394295 -0.163322
vn 0.904355 0.394295 -0.163322
vn 0.904355 0.426781 0.000000
vn 0.904355 0.426781 0.000000
vn 0.904355 0.394295 0.163322
vn 0.904355 0.394295 0.163322
vn 0.904355 0.301781 0.301780
vn 0.904355 0.301781 0.301780
vn 0.904355 0.163322 0.394295
vn 0.904355 0.163322 0.394295
vn 0.904355 0.000000 0.426782
vn 0.904355 0.000000 0.426782
vn 0.904355 -0.163322 0.394295
vn 0.904355 -0.163322 0.394295
vn 0.904355 -0.301780 0.301780
vn 0.904355 -0.301780 0.301780
vn 0.904355 -0.394295 0.163322
vn 0.904355 -0.394295 0.163322
vn 0.687244 -0.671131 -0.277992
vn 0.687243 -0.726427 0.000000
vn 0.687243 -0.726427 0.000000
vn 0.687244 -0.671131 -0.277992
vn 0.687244 -0.513662 -0.513661
vn 0.687244 -0.513662 -0.513661
vn 0.687243 -0.277993 -0.671131
vn 0.687243 -0.277993 -0.671131
vn 0.687243 0.000000 -0.726428
vn 0.687243 0.000000 -0.726428
vn 0.687243 0.277992 -0.671131
vn 0.687243 0.277992 -0.671131
vn 0.687244 0.513661 -0.513662
vn 0.687244 0.513661 -0.513662
vn 0.687244 0.671131 -0.277992
vn 0.687244 0.671131 -0.277992
vn 0.687243 0.726427 0.000000
vn 0.687243 0.726427 0.000000
vn 0.687244 0.671131 0.277992
vn 0.687244 0.671131 0.277992
vn 0.687243 0.513662 0.513662
vn 0.687243 0.513662 0.513662
vn 0.687244 0.277992 0.671131
vn 0.687244 0.277992 0.671131
vn 0.687243 0.000000 0.726427
vn 0.687243 0.000000 0.726427
vn 0.687244 -0.277992 0.671131
vn 0.687244 -0.277992 0.671131
vn 0.687243 -0.513662 0.513662
vn 0.687243 -0.513662 0.513662
vn 0.687243 -0.671131 0.277992
vn 0.687243 -0.671131 0.277992
vn -0.687244 -0.671131 -0.277992
vn -0.687244 -0.726427 0.000000
vn -0.687244 -0.726427 0.000000
vn -0.687244 -0.671131 -0.277992
vn -0.687243 -0.513662 -0.513662
vn -0.687243 -0.513662 -0.513662
vn -0.687243 -0.277993 -0.671131
vn -0.687243 -0.277993 -0.671131
vn -0.687243 0.000000 -0.726428
vn -0.687243 0.000000 -0.726428
vn -0.687244 0.277992 -0.671131
vn -0.687244 0.277992 -0.671131
vn -0.687244 0.513661 -0.513662
vn -0.687244 0.513661 -0.513662
vn -0.687244 0.671131 -0.277992
vn -0.687244 0.671131 -0.277992
vn -0.687243 0.726428 0.000000
vn -0.687243 0.726428 0.000000
vn -0.687243 0.671132 0.277992
vn -0.687243 0.671132 0.277992
vn -0.687243 0.513662 0.513662
vn -0.687243 0.513662 0.513662
vn -0.687244 0.277992 0.671131
vn -0.687244 0.277992 0.671131
vn -0.687243 0.000000 0.726427
vn -0.687243 0.000000 0.726427
vn -0.687244 -0.277992 0.671131
vn -0.687244 -0.277992 0.671131
vn -0.687243 -0.513662 0.513662
vn -0.687243 -0.513662 0.513662
vn -0.687244 -0.671131 0.277992
vn -0.687244 -0.671131 0.277992
vn -0.904355 -0.394295 -0.163322
vn -0.904355 -0.426781 0.000000
vn -0.904355 -0.426781 0.000000
vn -0.904355 -0.394295 -0.163322
vn -0.904355 -0.301781 -0.301780
vn -0.904355 -0.301781 -0.301780
vn -0.904355 -0.163323 -0.394295
vn -0.904355 -0.163323 -0.394295
vn -0.904355 0.000000 -0.426782
vn -0.904355 0.000000 -0.426782
vn -0.904355 0.163322 -0.394295
vn -0.904355 0.163322 -0.394295
vn -0.904355 0.301780 -0.301780
vn -0.904355 0.301780 -0.301780
vn -0.904355 0.394295 -0.163323
vn -0.904355 0.394295 -0.163323
vn -0.904355 0.426781 0.000000
vn -0.904355 0.426781 0.000000
vn -0.904355 0.394295 0.163322
vn -0.904355 0.394295 0.163322
vn -0.904355 0.301780 0.301780
vn -0.904355 0.301780 0.301780
vn -0.904355 0.163322 0.394295
vn -0.904355 0.163322 0.394295
vn -0.904355 0.000000 0.426782
vn -0.904355 0.000000 0.426782
vn -0.904355 -0.163322 0.394295
vn -0.904355 -0.163322 0.394295
vn -0.904355 -0.301781 0.301780
vn -0.904355 -0.301781 0.301780
vn -0.904355 -0.394295 0.163321
vn -0.904355 -0.394295 0.163321
vn 1.000000 0.000000 0.000000
vn 0.990275 -0.139122 0.000000
vn 0.990275 -0.128532 -0.053239
vn 0.990275 -0.128532 0.053239
vn 0.990275 -0.098374 0.098374
vn 0.990275 -0.053239 0.128532
vn 0.990275 0.000000 0.139122
vn 0.990275 0.053239 0.128532
vn 0.990275 0.098374 0.098373
vn 0.990275 0.128532 0.053238
vn 0.990275 0.139122 0.000000
vn 0.990275 0.128532 -0.053238
vn 0.990275 0.098374 -0.098373
vn 0.990275 0.053239 -0.128532
vn 0.990275 0.000000 -0.139122
vn 0.990275 -0.053239 -0.128532
vn 0.990275 -0.098374 -0.098374
vn -1.000000 0.000000 0.000000
vn -0.990275 -0.128532 -0.053238
vn -0.990275 -0.139122 0.000000
vn -0.990275 -0.098374 -0.098373
vn -0.990275 -0.053239 -0.128532
vn -0.990275 -0.128532 0.053238
vn -0.990275 -0.098374 0.098373
vn -0.990275 -0.053239 0.128532
vn -0.990275 0.000000 0.139122
vn -0.990275 0.053239 0.128532
vn -0.990275 0.098374 0.098374
vn -0.990275 0.128532 0.053239
vn -0.990275 0.139121 0.000000
vn -0.990275 0.128532 -0.053239
vn -0.990275 0.098374 -0.098374
vn -0.990275 0.053239 -0.128532
vn -0.990275 0.000000 -0.139122

g polygon0
s 1
usemtl mat1
f 1/1/1 2/2/2 3/3/3
f 1/1/1 4/4/4 2/2/2
f 5/5/5 4/4/4 1/1/1
f 5/5/5 6/6/6 4/4/4
f 7/7/7 6/6/6 5/5/5
f 7/7/7 8/8/8 6/6/6
f 9/9/9 8/8/8 7/7/7
f 9/9/9 10/10/10 8/8/8
f 11/11/11 10/10/10 9/9/9
f 11/11/11 12/12/12 10/10/10
f 13/13/13 12/12/12 11/11/11
f 13/13/13 14/14/14 12/12/12
f 15/15/15 14/14/14 13/13/13
f 15/15/15 16/16/16 14/14/14
f 17/17/17 16/16/16 15/15/15
f 17/17/17 18/18/18 16/16/16
f 19/19/19 18/18/18 17/17/17
f 19/19/19 20/20/20 18/18/18
f 21/21/21 20/20/20 19/19/19
f 21/21/21 22/22/22 20/20/20
f 23/23/23 22/22/22 21/21/21
f 23/23/23 24/24/24 22/22/22
f 25/25/25 24/24/24 23/23/23
f 25/25/25 26/26/26 24/24/24
f 27/27/27 26/26/26 25/25/25
f 27/27/27 28/28/28 26/26/26
f 29/29/29 28/28/28 27/27/27
f 29/29/29 30/30/30 28/28/28
f 31/31/31 30/30/30 29/29/29
f 31/31/31 32/32/32 30/30/30
f 3/3/3 32/32/32 31/31/31
f 3/3/3 2/2/2 32/32/32
f 33/33/33 34/34/34 35/35/35
f 33/33/33 36/36/36 34/34/34
f 37/37/37 36/36/36 33/33/33
f 37/37/37 38/38/38 36/36/36
f 39/39/39 38/38/38 37/37/37
f 39/39/39 40/40/40 38/38/38
f 41/41/41 40/40/40 39/39/39
f 41/41/41 42/42/42 40/40/40
f 43/43/43 42/42/42 41/41/41
f 43/43/43 44/44/44 42/42/42
f 45/45/45 44/44/44 43/43/43
f 45/45/45 46/46/46 44/44/44
f 47/47/47 46/46/46 45/45/45
f 47/47/47 48/48/48 46/46/46
f 49/49/49 48/48/48 47/47/47
f 49/49/49 50/50/50 48/48/48
f 51/51/51 50/50/50 49/49/49
f 51/51/51 52/52/52 50/50/50
f 53/53/53 52/52/52 51/51/51
f 53/53/53 54/54/54 52/52/52
f 55/55/55 54/54/54 53/53/53
f 55/55/55 56/56/56 54/54/54
f 57/57/57 56/56/56 55/55/55
f 57/57/57 58/58/58 56/56/56
f 59/59/59 58/58/58 57/57/57
f 59/59/59 60/60/60 58/58/58
f 61/61/61 60/60/60 59/59/59
f 61/61/61 62/62/62 60/60/60
f 63/63/63 62/62/62 61/61/61
f 63/63/63 64/64/64 62/62/62
f 35/35/35 64/64/64 63/63/63
f 35/35/35 34/34/34 64/64/64
f 65/65/65 66/66/66 67/67/67
f 65/65/65 68/68/68 66/66/66
f 69/69/69 68/68/68 65/65/65
f 69/69/69 70/70/70 68/68/68
f 71/71/71 70/70/70 69/69/69
f 71/71/71 72/72/72 70/70/70
f 73/73/73 72/72/72 71/71/71
f 73/73/73 74/74/74 72/72/72
f 75/75/75 74/74/74 73/73/73
f 75/75/75 76/76/76 74/74/74
f 77/77/77 76/76/76 75/75/75
f 77/77/77 78/78/78 76/76/76
f 79/79/79 78/78/78 77/77/77
f 79/79/79 80/80/80 78/78/78
f 81/81/81 80/80/80 79/79/79
f 81/81/81 82/82/82 80/80/80
f 83/83/83 82/82/82 81/81/81
f 83/83/83 84/84/84 82/82/82
f 85/85/85 84/84/84 83/83/83
f 85/85/85 86/86/86 84/84/84
f 87/87/87 86/86/86 85/85/85
f 87/87/87 88/88/88 86/86/86
f 89/89/89 88/88/88 87/87/87
f 89/89/89 90/90/90 88/88/88
f 91/91/91 90/90/90 89/89/89
f 91/91/91 92/92/92 90/90/90
f 93/93/93 92/92/92 91/91/91
f 93/93/93 94/94/94 92/92/92
f 95/95/95 94/94/94 93/93/93
f 95/95/95 96/96/96 94/94/94
f 67/67/67 96/96/96 95/95/95
f 67/67/67 66/66/66 96/96/96
f 97/97/97 98/98/98 99/99/99
f 97/97/97 100/100/100 98/98/98
f 101/101/101 100/100/100 97/97/97
f 101/101/101 102/102/102 100/100/100
f 103/103/103 102/102/102 101/101/101
f 103/103/103 104/104/104 102/102/102
f 105/105/105 104/104/104 103/103/103
f 105/105/105 106/106/106 104/104/104
f 107/107/107 106/106/106 105/105/105
f 107/107/107 108/108/108 106/106/106
f 109/109/109 108/108/108 107/107/107
f 109/109/109 110/110/110 108/108/108
f 111/111/111 110/110/110 109/109/109
f 111/111/111 112/112/112 110/110/110
f 113/113/113 112/112/112 111/111/111
f 113/113/113 114/114/114 112/112/112
f 115/115/115 114/114/114 113/113/113
f 115/115/115 116/116/116 114/114/114
f 117/117/117 116/116/116 115/115/115
f 117/117/117 118/118/118 116/116/116
f 119/119/119 118/118/118 117/117/117
f 119/119/119 120/120/120 118/118/118
f 121/121/121 120/120/120 119/119/119
f 121/121/121 122/122/122 120/120/120
f 123/123/123 122/122/122 121/121/121
f 123/123/123 124/124/124 122/122/122
f 125/125/125 124/124/124 123/123/123
f 125/125/125 126/126/126 124/124/124
f 127/127/127 126/126/126 125/125/125
f 127/127/127 128/128/128 126/126/126
f 99/99/99 128/128/128 127/127/127
f 99/99/99 98/98/98 128/128/128
f 129/129/129 130/130/130 131/131/131
f 129/129/129 132/132/132 130/130/130
f 133/133/133 132/132/132 129/129/129
f 129/129/129 134/134/134 133/133/133
f 129/129/129 135/135/135 134/134/134
f 136/136/136 135/135/135 129/129/129
f 129/129/129 137/137/137 136/136/136
f 129/129/129 138/138/138 137/137/137
f 139/139/139 138/138/138 129/129/129
f 129/129/129 140/140/140 139/139/139
f 129/129/129 141/141/141 140/140/140
f 142/142/142 141/141/141 129/129/129
f 129/129/129 143/143/143 142/142/142
f 129/129/129 144/144/144 143/143/143
f 145/145/145 144/144/144 129/129/129
f 146/146/146 147/147/147 148/148/148
f 146/146/146 149/149/149 147/147/147
f 150/150/150 149/149/149 146/146/146
f 151/151/151 146/146/146 148/148/148
f 151/151/151 152/152/152 146/146/146
f 153/153/153 146/146/146 152/152/152
f 153/153/153 154/154/154 146/146/146
f 155/155/155 146/146/146 154/154/154
f 155/155/155 156/156/156 146/146/146
f 157/157/157 146/146/146 156/156/156
f 157/157/157 158/158/158 146/146/146
f 159/159/159 146/146/146 158/158/158
f 159/159/159 160/160/160 146/146/146
f 161/161/161 146/146/146 160/160/160
f 161/161/161 162/162/162 146/146/146
f 131/131/131 145/145/145 129/129/129
f 162/162/162 150/150/150 146/146/146

