mtllib EffCommonDashSmoke.mtl

v -1.432617 1.482422 9.753906
v -5.401367 7.865238 -1.901365
v -4.785156 6.903323 0.799806
v -3.980469 5.581057 1.192384
v -1.134766 0.830078 10.239258
v -4.131836 5.822268 -1.001952
v -2.901367 3.665041 2.266603
v -0.828125 -0.015625 10.429688
v -3.849609 5.353519 -5.007811
v -2.050781 1.923830 2.396485
v -1.183594 0.461915 8.334961
v -2.215820 2.270511 -3.455078
v -1.588867 0.846682 3.025391
v 1.708984 2.040040 8.441407
v 5.102539 7.515628 -1.718748
v 4.330078 5.919924 1.803712
v 3.323242 4.086916 2.762696
v 0.452148 0.294922 10.797852
v 3.556641 4.930666 0.086915
v 2.739258 3.011721 3.083985
v 0.578125 0.232422 10.485352
v 3.918945 5.684574 -3.336913
v 2.299805 2.498049 0.985352
v 1.016602 0.468750 8.604492
v 2.629883 3.333012 -6.539062
v 1.727539 1.115236 2.337891
v -1.225586 1.216797 10.504883
v -6.777344 9.989262 -2.810544
v -1.160156 0.718750 9.652344
v -0.953125 -0.002929 9.224609
v -1.264648 0.001957 -5.379883
v 0.954102 1.399414 10.625977
v 6.687500 9.728518 -2.296872
v 1.256836 1.079102 8.626953
v 0.699219 0.041992 9.557617
v 1.073242 0.045902 -5.379883

vt 0.147156 1.000000
vt 0.169678 0.000000
vt 0.073181 0.000000
vt 0.242371 0.000000
vt 0.325500 1.000000
vt 0.339966 0.000000
vt 0.493958 0.000000
vt 0.662781 1.000000
vt 0.624756 0.000000
vt 0.732605 0.000000
vt 0.828674 1.000000
vt 0.809692 0.000000
vt 0.921570 0.000000
vt 0.827881 1.000000
vt 0.805359 0.000000
vt 0.901855 0.000000
vt 0.732666 0.000000
vt 0.649536 1.000000
vt 0.635071 0.000000
vt 0.481140 0.000000
vt 0.312317 1.000000
vt 0.350281 0.000000
vt 0.242493 0.000000
vt 0.146362 1.000000
vt 0.165405 0.000000
vt 0.053467 0.000000
vt -0.022461 1.000000
vt -0.023621 0.000000
vt 0.497986 1.000000
vt 0.975220 1.000000
vt 0.976379 0.000000
vt 0.997498 1.000000
vt 0.998657 0.000000
vt 0.477051 1.000000
vt -0.000183 1.000000
vt -0.001343 0.000000

vn 0.987989 0.144777 -0.054017
vn 0.987960 0.150388 -0.036315
vn 0.991713 0.049561 -0.118532
vn 0.985408 0.163818 -0.046203
vn 0.985408 0.163818 -0.046203
vn 0.987989 0.144777 -0.054017
vn 0.966118 0.257811 -0.012207
vn 0.983196 0.181210 -0.022094
vn 0.983196 0.181210 -0.022094
vn 0.994919 0.058105 -0.082213
vn 0.987960 0.150388 -0.036315
vn 0.983196 0.181210 -0.022094
vn 0.966848 0.253110 -0.033752
vn 0.983891 -0.162659 0.074158
vn 0.990742 -0.124148 0.054933
vn 0.983116 0.018860 0.182011
vn 0.942766 -0.333441 0.003174
vn 0.976594 -0.202936 0.071287
vn 0.982801 -0.160891 0.090638
vn 0.852324 -0.521380 -0.041322
vn 0.955683 -0.294371 -0.004028
vn 0.938034 -0.345942 -0.020386
vn 0.990161 -0.110106 0.086364
vn 0.994342 -0.088564 0.058656
vn 0.990440 -0.134036 0.032593
vn 0.956958 -0.285214 0.053710
vn 0.968149 -0.121583 -0.218874
vn 0.968149 -0.121583 -0.218874
vn 0.975446 0.217647 -0.033691
vn 0.931373 0.363394 -0.022094
vn 0.925179 0.379032 -0.019470
vn 0.949533 0.168459 0.264590
vn 0.957277 0.141480 0.252198
vn 0.879001 0.389847 0.274547
vn 0.859297 -0.511038 0.021179
vn 0.859297 -0.511038 0.021179

g polygon0
s 1
usemtl mat2
f 1/1/1 2/2/2 3/3/3
f 1/1/1 4/4/4 2/2/2
f 5/5/5 4/4/4 1/1/1
f 5/5/5 6/6/6 4/4/4
f 7/7/7 6/6/6 5/5/5
f 8/8/8 9/9/9 7/7/7
f 8/8/8 10/10/10 9/9/9
f 11/11/11 10/10/10 8/8/8
f 11/11/11 12/12/12 10/10/10
f 13/13/13 12/12/12 11/11/11
f 14/14/14 15/15/15 16/16/16
f 14/14/14 17/17/17 15/15/15
f 18/18/18 17/17/17 14/14/14
f 18/18/18 19/19/19 17/17/17
f 20/20/20 19/19/19 18/18/18
f 21/21/21 22/22/22 20/20/20
f 21/21/21 23/23/23 22/22/22
f 24/24/24 23/23/23 21/21/21
f 24/24/24 25/25/25 23/23/23
f 26/26/26 25/25/25 24/24/24
f 27/27/27 3/3/3 28/28/28
f 27/27/27 1/1/1 3/3/3
f 29/29/29 7/7/7 5/5/5
f 29/29/29 8/8/8 7/7/7
f 30/30/30 13/13/13 11/11/11
f 30/30/30 31/31/31 13/13/13
f 32/32/32 16/16/16 33/33/33
f 32/32/32 14/14/14 16/16/16
f 34/34/34 20/20/20 18/18/18
f 34/34/34 21/21/21 20/20/20
f 35/35/35 26/26/26 24/24/24
f 35/35/35 36/36/36 26/26/26

v 0.913086 0.121484 14.865820
v 2.932031 1.157032 11.123828
v 2.246485 0.726368 11.864453
v 2.386719 0.801563 12.342969
v 1.260547 0.262891 14.515234
v 3.452734 1.558790 11.202930
v 2.832031 1.049024 12.423828
v -2.685938 0.912501 12.022071
v -0.783008 0.052539 15.102539
v -3.160547 1.215040 10.565040
v -1.120117 0.187109 14.802734
v -3.187305 1.233595 11.606836
v -2.706250 0.933008 12.612305
v 1.005078 0.150391 14.466406
v 1.635547 0.351368 10.821289
v 0.653906 0.000000 14.888672
v 1.766992 0.482618 11.944921
v 2.491602 0.856837 10.543945
v -1.735547 0.320509 10.543554
v -1.065234 0.161133 14.333203
v -0.653906 0.000000 14.888672
v -1.846680 0.381251 11.424414
v -2.319922 0.655079 11.038086
v -1.995117 0.476759 12.245703
v -4.480664 2.442384 11.081837
v -0.971875 0.130273 15.216211
v 4.480664 2.494532 11.081837
v 0.971875 0.160156 15.216211

vt 0.500000 0.000000
vt 0.503906 1.000000
vt 0.360474 1.000000
vt 0.625366 1.000000
vt 0.750000 0.000000
vt 0.746399 1.000000
vt 0.878601 1.000000
vt 0.377625 1.000000
vt 0.502991 0.000000
vt 0.499084 1.000000
vt 0.252991 0.000000
vt 0.256592 1.000000
vt 0.124390 1.000000
vt 0.250000 0.000000
vt 0.000549 1.000000
vt 0.000000 0.000000
vt 0.138916 1.000000
vt 0.251953 1.000000
vt 1.002380 1.000000
vt 0.752991 0.000000
vt 1.002991 0.000000
vt 0.864075 1.000000
vt 0.751038 1.000000
vt 0.642517 1.000000
vt -0.011719 1.000000
vt 0.002991 0.000000
vt 1.014709 1.000000
vt 1.000000 0.000000

vn -0.445869 0.895096 0.001892
vn -0.454904 0.890459 -0.012024
vn -0.520095 0.852196 -0.057130
vn -0.511765 0.857886 -0.046141
vn -0.662265 0.724152 -0.192375
vn -0.488327 0.872471 0.018188
vn -0.668938 0.704216 -0.237912
vn 0.390190 0.920453 0.022766
vn 0.508285 0.859715 -0.050352
vn 0.549139 0.832407 -0.074464
vn 0.661432 0.719048 -0.213255
vn 0.469533 0.882793 -0.014648
vn 0.713518 0.632583 -0.301215
vn -0.465817 0.884515 -0.025451
vn -0.465817 0.884515 -0.025451
vn -0.415585 0.909294 -0.021789
vn -0.511765 0.857886 -0.046141
vn -0.454904 0.890459 -0.012024
vn 0.375782 0.926301 -0.027465
vn 0.390075 0.920470 -0.023987
vn 0.402165 0.914987 -0.032593
vn 0.459542 0.886368 -0.056336
vn 0.428342 0.903192 -0.027710
vn 0.600886 0.787407 -0.137572
vn 0.743166 0.591616 -0.312562
vn 0.646959 0.751571 -0.128781
vn -0.738094 0.604733 -0.299192
vn -0.680704 0.711037 -0.176264

g polygon1
s 1
usemtl mat1
f 37/37/37 38/38/38 39/39/39
f 37/37/37 40/40/40 38/38/38
f 41/41/41 40/40/40 37/37/37
f 41/41/41 42/42/42 40/40/40
f 43/43/43 42/42/42 41/41/41
f 44/44/44 45/45/45 46/46/46
f 44/44/44 47/47/47 45/45/45
f 48/48/48 47/47/47 44/44/44
f 48/48/48 49/49/49 47/47/47
f 50/50/50 51/51/51 52/52/52
f 50/50/50 53/53/53 51/51/51
f 54/54/54 53/53/53 50/50/50
f 55/55/55 56/56/56 57/57/57
f 55/55/55 58/58/58 56/56/56
f 59/59/59 56/56/56 58/58/58
f 59/59/59 60/60/60 56/56/56
f 60/60/60 45/45/45 56/56/56
f 60/60/60 46/46/46 45/45/45
f 47/47/47 61/61/61 62/62/62
f 47/47/47 49/49/49 61/61/61
f 50/50/50 39/39/39 54/54/54
f 50/50/50 37/37/37 39/39/39
f 63/63/63 41/41/41 64/64/64
f 63/63/63 43/43/43 41/41/41

v 0.000000 4.000000 13.000000
v 0.000000 0.000000 9.000000
v 0.000000 -0.000000 13.000000
v 0.000000 4.000000 9.000000

vt 1.000000 0.000000
vt 0.000000 1.000000
vt 0.000000 0.000000
vt 1.000000 1.000000

vn -1.000000 0.000000 0.000000
vn -1.000000 0.000000 0.000000
vn -1.000000 0.000000 0.000000
vn -1.000000 0.000000 0.000000

g polygon2
s 1
usemtl mat3
f 65/65/65 66/66/66 67/67/67
f 65/65/65 68/68/68 66/66/66

