mtllib EffCommonHitCutShockWave.mtl

v -5.425257 1.974632 -13.333008
v -5.908409 2.150485 -12.739258
v -5.886844 2.142636 -15.439453
v -4.798948 1.746674 -11.429688
v -5.663850 2.061473 -9.884766
v -4.026730 1.465610 -9.786133
v -5.102237 1.857063 -7.058594
v -3.132462 1.140123 -8.453125
v -4.246511 1.545604 -4.345703
v -2.142756 0.779899 -7.470703
v -3.065472 1.115741 -2.073242
v -1.087896 0.395962 -6.869141
v -1.616014 0.588181 -0.492188
v 0.000000 0.000000 -6.666992
v 0.000000 0.000000 0.000000
v 1.087896 -0.395962 -6.869141
v 1.616014 -0.588181 -0.492188
v 2.142756 -0.779899 -7.470703
v 3.065472 -1.115741 -2.073242
v 3.132462 -1.140123 -8.453125
v 4.246511 -1.545604 -4.345703
v 4.026730 -1.465610 -9.786133
v 5.102237 -1.857063 -7.058594
v 4.798948 -1.746674 -11.429688
v 5.663850 -2.061473 -9.884766
v 5.425257 -1.974632 -13.333008
v 5.908409 -2.150485 -12.739258
v 5.886844 -2.142636 -15.439453

vt 1.000000 1.000000
vt 0.000000 0.000000
vt 1.000000 1.000000
vt 1.000000 1.000000
vt 0.000000 0.000000
vt 1.000000 1.000000
vt 0.000000 0.000000
vt 1.000000 1.000000
vt 0.000000 0.000000
vt 1.000000 1.000000
vt 0.000000 0.000000
vt 1.000000 1.000000
vt 0.000000 0.000000
vt 1.000000 1.000000
vt 0.000000 0.000000
vt 1.000000 1.000000
vt 0.000000 0.000000
vt 1.000000 1.000000
vt 0.000000 0.000000
vt 1.000000 1.000000
vt 0.000000 0.000000
vt 1.000000 1.000000
vt 0.000000 0.000000
vt 1.000000 1.000000
vt 0.000000 0.000000
vt 1.000000 1.000000
vt 0.000000 0.000000
vt 1.000000 1.000000

vn -0.342020 -0.939693 0.000000
vn -0.342020 -0.939693 0.000000
vn -0.342020 -0.939693 0.000000
vn -0.342020 -0.939693 0.000000
vn -0.342020 -0.939693 0.000000
vn -0.342020 -0.939693 0.000000
vn -0.342020 -0.939693 0.000000
vn -0.342020 -0.939693 0.000000
vn -0.342020 -0.939693 0.000000
vn -0.342020 -0.939693 0.000000
vn -0.342020 -0.939693 0.000000
vn -0.342020 -0.939693 0.000000
vn -0.342020 -0.939693 0.000000
vn -0.342020 -0.939693 0.000000
vn -0.342020 -0.939693 0.000000
vn -0.342020 -0.939693 0.000000
vn -0.342020 -0.939693 0.000000
vn -0.342020 -0.939693 0.000000
vn -0.342020 -0.939693 0.000000
vn -0.342020 -0.939693 0.000000
vn -0.342020 -0.939693 0.000000
vn -0.342020 -0.939693 0.000000
vn -0.342020 -0.939693 0.000000
vn -0.342020 -0.939693 0.000000
vn -0.342020 -0.939693 0.000000
vn -0.342020 -0.939693 0.000000
vn -0.342020 -0.939693 0.000000
vn -0.342020 -0.939693 0.000000

g polygon0
s 1
usemtl mat2
f 1/1/1 2/2/2 3/3/3
f 1/1/1 4/4/4 2/2/2
f 4/4/4 5/5/5 2/2/2
f 4/4/4 6/6/6 5/5/5
f 6/6/6 7/7/7 5/5/5
f 6/6/6 8/8/8 7/7/7
f 8/8/8 9/9/9 7/7/7
f 8/8/8 10/10/10 9/9/9
f 10/10/10 11/11/11 9/9/9
f 10/10/10 12/12/12 11/11/11
f 12/12/12 13/13/13 11/11/11
f 12/12/12 14/14/14 13/13/13
f 14/14/14 15/15/15 13/13/13
f 14/14/14 16/16/16 15/15/15
f 16/16/16 17/17/17 15/15/15
f 16/16/16 18/18/18 17/17/17
f 18/18/18 19/19/19 17/17/17
f 18/18/18 20/20/20 19/19/19
f 20/20/20 21/21/21 19/19/19
f 20/20/20 22/22/22 21/21/21
f 22/22/22 23/23/23 21/21/21
f 22/22/22 24/24/24 23/23/23
f 24/24/24 25/25/25 23/23/23
f 24/24/24 26/26/26 25/25/25
f 26/26/26 27/27/27 25/25/25
f 26/26/26 28/28/28 27/27/27

v 4.026732 -1.465611 -9.786175
v 4.003413 -1.457123 -8.017780
v 3.132216 -1.140034 -8.452897
v 4.798883 -1.746651 -11.429523
v 5.002526 -1.820771 -8.639648
v 5.425275 -1.974639 -13.333509
v 5.897315 -2.146447 -10.697908
v 5.886741 -2.142599 -15.439869
v 6.454587 -2.349277 -13.205637
v 6.169455 -2.245498 -17.684908
v 6.570237 -2.391371 -16.497116
v 6.264668 -2.280153 -19.999897

vt 1.000000 1.000000
vt 0.500000 0.000000
vt 0.500000 0.000000
vt 1.000000 1.000000
vt 0.500000 0.000000
vt 1.000000 1.000000
vt 0.500000 0.000000
vt 1.000000 1.000000
vt 0.500000 0.000000
vt 1.000000 1.000000
vt 0.500000 0.000000
vt 0.500000 0.000000

vn -0.342020 -0.939693 0.000000
vn -0.342020 -0.939693 0.000000
vn -0.342020 -0.939693 0.000000
vn -0.342020 -0.939693 0.000000
vn -0.342020 -0.939693 0.000000
vn -0.342020 -0.939693 0.000000
vn -0.342020 -0.939693 0.000000
vn -0.342020 -0.939693 0.000000
vn -0.342020 -0.939693 0.000000
vn -0.342020 -0.939693 0.000000
vn -0.342020 -0.939693 0.000000
vn -0.342020 -0.939693 0.000000

g polygon1
s 1
usemtl mat3
f 29/29/29 30/30/30 31/31/31
f 29/29/29 32/32/32 30/30/30
f 32/32/32 33/33/33 30/30/30
f 32/32/32 34/34/34 33/33/33
f 34/34/34 35/35/35 33/33/33
f 34/34/34 36/36/36 35/35/35
f 36/36/36 37/37/37 35/35/35
f 36/36/36 38/38/38 37/37/37
f 38/38/38 39/39/39 37/37/37
f 38/38/38 40/40/40 39/39/39

v 7.520693 -7.326575 -16.200531
v 5.886701 -2.142584 -15.440351
v 13.788158 -15.660257 -31.547098
v 5.425727 -1.974803 -13.333679
v 4.798963 -1.746680 -11.428562
v 6.545008 -4.227871 -11.772950
v 4.026506 -1.465529 -9.786090
v 3.132442 -1.140116 -8.452982
v 12.671385 -7.509398 -13.028828
v 14.952286 -13.839215 -20.523705

vt 0.250000 0.000000
vt 0.000000 0.750000
vt 0.000000 0.000000
vt 0.250000 0.750000
vt 0.500000 0.750000
vt 0.750000 0.000000
vt 0.750000 0.750000
vt 1.000000 0.750000
vt 1.000000 0.000000
vt 0.500000 0.000000

vn -0.410587 -0.910802 -0.043109
vn -0.420032 -0.903931 -0.080514
vn -0.420032 -0.903931 -0.080514
vn -0.423212 -0.900073 -0.103727
vn -0.387004 -0.921652 0.028036
vn -0.372994 -0.927553 0.022829
vn -0.386615 -0.914330 -0.120540
vn -0.362987 -0.931667 0.015384
vn -0.355470 -0.933121 0.054102
vn -0.378180 -0.922774 0.073945

g polygon2
s 1
usemtl mat1
f 41/41/41 42/42/42 43/43/43
f 41/41/41 44/44/44 42/42/42
f 45/45/45 44/44/44 41/41/41
f 46/46/46 47/47/47 45/45/45
f 46/46/46 48/48/48 47/47/47
f 49/49/49 48/48/48 46/46/46
f 50/50/50 45/45/45 41/41/41
f 50/50/50 46/46/46 45/45/45

v 12.355330 -0.111396 -18.384150
v 5.886701 -2.142584 -15.440351
v 24.113586 1.391258 -35.996101
v 5.425727 -1.974803 -13.333679
v 4.798963 -1.746680 -11.428562
v 8.683638 -1.393884 -12.322302
v 4.026506 -1.465529 -9.786090
v 3.132442 -1.140116 -8.452982
v 15.615803 -2.915163 -14.900195
v 20.122320 0.698977 -22.841553

vt 0.250000 0.000000
vt 0.000000 0.750000
vt 0.000000 0.000000
vt 0.250000 0.750000
vt 0.500000 0.750000
vt 0.750000 0.000000
vt 0.750000 0.750000
vt 1.000000 0.750000
vt 1.000000 0.000000
vt 0.500000 0.000000

vn -0.410587 -0.910802 -0.043109
vn -0.420032 -0.903931 -0.080514
vn -0.420032 -0.903931 -0.080514
vn -0.423212 -0.900073 -0.103727
vn -0.387004 -0.921652 0.028036
vn -0.372994 -0.927553 0.022829
vn -0.386615 -0.914330 -0.120540
vn -0.362987 -0.931667 0.015384
vn -0.355470 -0.933121 0.054102
vn -0.378180 -0.922774 0.073945

g polygon3
s 1
usemtl mat1
f 51/51/51 52/52/52 53/53/53
f 51/51/51 54/54/54 52/52/52
f 55/55/55 54/54/54 51/51/51
f 56/56/56 57/57/57 55/55/55
f 56/56/56 58/58/58 57/57/57
f 59/59/59 58/58/58 56/56/56
f 60/60/60 55/55/55 51/51/51
f 60/60/60 56/56/56 55/55/55

