mtllib EffCommonBombA.mtl

v 0.000000 0.000000 0.000000
v -22.910156 -0.385742 0.000000
v -30.034180 -10.121094 0.000000
v -1.865234 -28.661133 0.000000
v 7.371094 -18.783203 0.000000
v 18.478516 -1.556641 0.000000
v 10.728516 3.057617 0.000000
v 4.807617 15.978516 0.000000
v -5.557617 22.229492 0.000000

vt 0.500000 -0.500000
vt 1.000000 1.000000
vt 0.000000 1.000000
vt 1.000000 1.000000
vt 0.000000 1.000000
vt 1.000000 1.000000
vt 0.000000 1.000000
vt 1.000000 1.000000
vt 0.000000 1.000000

vn 0.000000 0.000000 1.000000
vn 0.000000 0.000000 1.000000
vn 0.000000 0.000000 1.000000
vn 0.000000 0.000000 1.000000
vn 0.000000 0.000000 1.000000
vn 0.000000 0.000000 1.000000
vn 0.000000 0.000000 1.000000
vn 0.000000 0.000000 1.000000
vn 0.000000 0.000000 1.000000

g polygon0
s 1
usemtl mat2
f 1/1/1 2/2/2 3/3/3
f 1/1/1 4/4/4 5/5/5
f 1/1/1 6/6/6 7/7/7
f 1/1/1 8/8/8 9/9/9

v -12.993751 0.000000 0.000000
v -4.778906 -0.950781 0.000000
v -4.872656 0.000000 0.000000
v -12.744532 -2.535156 0.000000
v -4.501563 -1.864844 0.000000
v -12.004687 -4.972656 0.000000
v -4.051563 -2.707031 0.000000
v -10.803906 -7.218750 0.000000
v -3.445313 -3.445313 0.000000
v -9.188281 -9.188281 0.000000
v -2.707031 -4.051563 0.000000
v -7.218750 -10.803906 0.000000
v -1.864844 -4.501563 0.000000
v -4.972656 -12.004687 0.000000
v -0.950781 -4.778906 0.000000
v -2.535156 -12.744532 0.000000
v 0.000000 -4.872656 0.000000
v 0.000000 -12.993751 0.000000
v 0.950781 -4.778906 0.000000
v 2.535156 -12.744532 0.000000
v 1.864844 -4.501563 0.000000
v 4.972656 -12.004687 0.000000
v 2.707031 -4.051563 0.000000
v 7.218750 -10.803906 0.000000
v 3.445313 -3.445313 0.000000
v 9.188281 -9.188281 0.000000
v 4.051563 -2.707031 0.000000
v 10.803906 -7.218750 0.000000
v 4.501563 -1.864844 0.000000
v 12.004687 -4.972656 0.000000
v 4.778906 -0.950781 0.000000
v 12.744532 -2.535156 0.000000
v 4.872656 0.000000 0.000000
v 12.993751 0.000000 0.000000
v -4.872656 0.000000 0.000000
v -12.744532 2.535156 0.000000
v -12.993751 0.000000 0.000000
v -4.778906 0.950781 0.000000
v -12.004687 4.972656 0.000000
v -4.501563 1.864844 0.000000
v -10.803906 7.218750 0.000000
v -4.051563 2.707031 0.000000
v -9.188281 9.188281 0.000000
v -3.445313 3.445313 0.000000
v -7.218750 10.803906 0.000000
v -2.707031 4.051563 0.000000
v -4.972656 12.004687 0.000000
v -1.864844 4.501563 0.000000
v -2.535156 12.744532 0.000000
v -0.950781 4.778906 0.000000
v 0.000000 12.993751 0.000000
v 0.000000 4.872656 0.000000
v 2.535156 12.744532 0.000000
v 0.950781 4.778906 0.000000
v 4.972656 12.004687 0.000000
v 1.864844 4.501563 0.000000
v 7.218750 10.803906 0.000000
v 2.707031 4.051563 0.000000
v 9.188281 9.188281 0.000000
v 3.445313 3.445313 0.000000
v 10.803906 7.218750 0.000000
v 4.051563 2.707031 0.000000
v 12.004687 4.972656 0.000000
v 4.501563 1.864844 0.000000
v 12.744532 2.535156 0.000000
v 4.778906 0.950781 0.000000

vt -15.501953 1.000000
vt -14.501953 0.000000
vt -15.501953 0.000000
vt -14.501953 1.000000
vt -13.501953 0.000000
vt -13.501953 1.000000
vt -12.501953 0.000000
vt -12.501953 1.000000
vt -11.501953 0.000000
vt -11.501953 1.000000
vt -10.501953 0.000000
vt -10.501953 1.000000
vt -9.501953 0.000000
vt -9.501953 1.000000
vt -8.500977 0.000000
vt -8.500977 1.000000
vt -7.500977 0.000000
vt -7.500977 1.000000
vt -6.500977 0.000000
vt -6.500977 1.000000
vt -5.500977 0.000000
vt -5.500977 1.000000
vt -4.500977 0.000000
vt -4.500977 1.000000
vt -3.500977 0.000000
vt -3.500977 1.000000
vt -2.500977 0.000000
vt -2.500977 1.000000
vt -1.500000 0.000000
vt -1.500000 1.000000
vt -0.500000 0.000000
vt -0.500000 1.000000
vt 0.500000 0.000000
vt 0.500000 1.000000
vt 16.501953 0.000000
vt 15.501953 1.000000
vt 16.501953 1.000000
vt 15.501953 0.000000
vt 14.501953 1.000000
vt 14.501953 0.000000
vt 13.501953 1.000000
vt 13.501953 0.000000
vt 12.501953 1.000000
vt 12.501953 0.000000
vt 11.501953 1.000000
vt 11.501953 0.000000
vt 10.501953 1.000000
vt 10.501953 0.000000
vt 9.500977 1.000000
vt 9.500977 0.000000
vt 8.500977 1.000000
vt 8.500977 0.000000
vt 7.500977 1.000000
vt 7.500977 0.000000
vt 6.500977 1.000000
vt 6.500977 0.000000
vt 5.500977 1.000000
vt 5.500977 0.000000
vt 4.500977 1.000000
vt 4.500977 0.000000
vt 3.500000 1.000000
vt 3.500000 0.000000
vt 2.500000 1.000000
vt 2.500000 0.000000
vt 1.500000 1.000000
vt 1.500000 0.000000

vn 0.000000 0.000000 1.000000
vn 0.000000 0.000000 1.000000
vn 0.000000 0.000000 1.000000
vn 0.000000 0.000000 1.000000
vn 0.000000 0.000000 1.000000
vn 0.000000 0.000000 1.000000
vn 0.000000 0.000000 1.000000
vn 0.000000 0.000000 1.000000
vn 0.000000 0.000000 1.000000
vn 0.000000 0.000000 1.000000
vn 0.000000 0.000000 1.000000
vn 0.000000 0.000000 1.000000
vn 0.000000 0.000000 1.000000
vn 0.000000 0.000000 1.000000
vn 0.000000 0.000000 1.000000
vn 0.000000 0.000000 1.000000
vn 0.000000 0.000000 1.000000
vn 0.000000 0.000000 1.000000
vn 0.000000 0.000000 1.000000
vn 0.000000 0.000000 1.000000
vn 0.000000 0.000000 1.000000
vn 0.000000 0.000000 1.000000
vn 0.000000 0.000000 1.000000
vn 0.000000 0.000000 1.000000
vn 0.000000 0.000000 1.000000
vn 0.000000 0.000000 1.000000
vn 0.000000 0.000000 1.000000
vn 0.000000 0.000000 1.000000
vn 0.000000 0.000000 1.000000
vn 0.000000 0.000000 1.000000
vn 0.000000 0.000000 1.000000
vn 0.000000 0.000000 1.000000
vn 0.000000 0.000000 1.000000
vn 0.000000 0.000000 1.000000
vn 0.000000 0.000000 1.000000
vn 0.000000 0.000000 1.000000
vn 0.000000 0.000000 1.000000
vn 0.000000 0.000000 1.000000
vn 0.000000 0.000000 1.000000
vn 0.000000 0.000000 1.000000
vn 0.000000 0.000000 1.000000
vn 0.000000 0.000000 1.000000
vn 0.000000 0.000000 1.000000
vn 0.000000 0.000000 1.000000
vn 0.000000 0.000000 1.000000
vn 0.000000 0.000000 1.000000
vn 0.000000 0.000000 1.000000
vn 0.000000 0.000000 1.000000
vn 0.000000 0.000000 1.000000
vn 0.000000 0.000000 1.000000
vn 0.000000 0.000000 1.000000
vn 0.000000 0.000000 1.000000
vn 0.000000 0.000000 1.000000
vn 0.000000 0.000000 1.000000
vn 0.000000 0.000000 1.000000
vn 0.000000 0.000000 1.000000
vn 0.000000 0.000000 1.000000
vn 0.000000 0.000000 1.000000
vn 0.000000 0.000000 1.000000
vn 0.000000 0.000000 1.000000
vn 0.000000 0.000000 1.000000
vn 0.000000 0.000000 1.000000
vn 0.000000 0.000000 1.000000
vn 0.000000 0.000000 1.000000
vn 0.000000 0.000000 1.000000
vn 0.000000 0.000000 1.000000

g polygon1
s 1
usemtl mat1
f 10/10/10 11/11/11 12/12/12
f 10/10/10 13/13/13 11/11/11
f 13/13/13 14/14/14 11/11/11
f 13/13/13 15/15/15 14/14/14
f 15/15/15 16/16/16 14/14/14
f 15/15/15 17/17/17 16/16/16
f 17/17/17 18/18/18 16/16/16
f 17/17/17 19/19/19 18/18/18
f 19/19/19 20/20/20 18/18/18
f 19/19/19 21/21/21 20/20/20
f 21/21/21 22/22/22 20/20/20
f 21/21/21 23/23/23 22/22/22
f 23/23/23 24/24/24 22/22/22
f 23/23/23 25/25/25 24/24/24
f 25/25/25 26/26/26 24/24/24
f 25/25/25 27/27/27 26/26/26
f 27/27/27 28/28/28 26/26/26
f 27/27/27 29/29/29 28/28/28
f 29/29/29 30/30/30 28/28/28
f 29/29/29 31/31/31 30/30/30
f 31/31/31 32/32/32 30/30/30
f 31/31/31 33/33/33 32/32/32
f 33/33/33 34/34/34 32/32/32
f 33/33/33 35/35/35 34/34/34
f 35/35/35 36/36/36 34/34/34
f 35/35/35 37/37/37 36/36/36
f 37/37/37 38/38/38 36/36/36
f 37/37/37 39/39/39 38/38/38
f 39/39/39 40/40/40 38/38/38
f 39/39/39 41/41/41 40/40/40
f 41/41/41 42/42/42 40/40/40
f 41/41/41 43/43/43 42/42/42
f 44/44/44 45/45/45 46/46/46
f 44/44/44 47/47/47 45/45/45
f 47/47/47 48/48/48 45/45/45
f 47/47/47 49/49/49 48/48/48
f 49/49/49 50/50/50 48/48/48
f 49/49/49 51/51/51 50/50/50
f 51/51/51 52/52/52 50/50/50
f 51/51/51 53/53/53 52/52/52
f 53/53/53 54/54/54 52/52/52
f 53/53/53 55/55/55 54/54/54
f 55/55/55 56/56/56 54/54/54
f 55/55/55 57/57/57 56/56/56
f 57/57/57 58/58/58 56/56/56
f 57/57/57 59/59/59 58/58/58
f 59/59/59 60/60/60 58/58/58
f 59/59/59 61/61/61 60/60/60
f 61/61/61 62/62/62 60/60/60
f 61/61/61 63/63/63 62/62/62
f 63/63/63 64/64/64 62/62/62
f 63/63/63 65/65/65 64/64/64
f 65/65/65 66/66/66 64/64/64
f 65/65/65 67/67/67 66/66/66
f 67/67/67 68/68/68 66/66/66
f 67/67/67 69/69/69 68/68/68
f 69/69/69 70/70/70 68/68/68
f 69/69/69 71/71/71 70/70/70
f 71/71/71 72/72/72 70/70/70
f 71/71/71 73/73/73 72/72/72
f 73/73/73 74/74/74 72/72/72
f 73/73/73 75/75/75 74/74/74
f 75/75/75 43/43/43 74/74/74
f 75/75/75 42/42/42 43/43/43

